LondrinaOutline-Regular.ufo
<glyph name="exclam" format="1">
  <advance width="219"/>
  <unicode hex="0021"/>
  <outline>
    <contour>
      <point x="51" y="707" type="curve" name="hr01"/>
      <point x="46" y="706"/>
      <point x="44" y="708"/>
      <point x="42" y="707" type="curve"/>
      <point x="37" y="638"/>
      <point x="36" y="564"/>
      <point x="36" y="494" type="curve" smooth="yes"/>
      <point x="36" y="386"/>
      <point x="38" y="276"/>
      <point x="38" y="169" type="curve"/>
      <point x="68" y="163"/>
      <point x="92" y="164"/>
      <point x="113" y="164" type="curve" smooth="yes"/>
      <point x="136" y="164"/>
      <point x="175" y="165"/>
      <point x="180" y="175" type="curve"/>
      <point x="176" y="269"/>
      <point x="174" y="364"/>
      <point x="174" y="458" type="curve" smooth="yes"/>
      <point x="174" y="540"/>
      <point x="176" y="622"/>
      <point x="179" y="704" type="curve"/>
      <point x="174" y="713"/>
      <point x="149" y="713"/>
      <point x="138" y="713" type="curve" smooth="yes"/>
      <point x="109" y="713"/>
      <point x="80" y="707"/>
    </contour>
    <contour>
      <point x="169" y="700" type="curve"/>
      <point x="166" y="620"/>
      <point x="164" y="539"/>
      <point x="164" y="458" type="curve" smooth="yes"/>
      <point x="164" y="365"/>
      <point x="166" y="272"/>
      <point x="170" y="179" type="curve"/>
      <point x="150" y="175"/>
      <point x="128" y="173"/>
      <point x="107" y="173" type="curve" smooth="yes"/>
      <point x="87" y="173"/>
      <point x="68" y="174"/>
      <point x="50" y="175" type="curve"/>
      <point x="49" y="279"/>
      <point x="46" y="384"/>
      <point x="46" y="489" type="curve" smooth="yes"/>
      <point x="46" y="559"/>
      <point x="48" y="628"/>
      <point x="52" y="697" type="curve"/>
      <point x="81" y="697"/>
      <point x="108" y="704"/>
      <point x="136" y="704" type="curve" smooth="yes"/>
      <point x="147" y="704"/>
      <point x="158" y="703"/>
    </contour>
    <contour>
      <point x="51" y="-4" type="line"/>
      <point x="80" y="-4"/>
      <point x="108" y="-3"/>
      <point x="137" y="-3" type="curve" name="hr02"/>
      <point x="164" y="-5"/>
      <point x="165" y="-3"/>
      <point x="179" y="-2" type="curve"/>
      <point x="179" y="38"/>
      <point x="178" y="81"/>
      <point x="181" y="121" type="curve"/>
      <point x="142" y="129"/>
      <point x="60" y="133"/>
      <point x="49" y="118" type="curve"/>
      <point x="49" y="106" type="line" smooth="yes"/>
      <point x="49" y="84"/>
      <point x="45" y="80"/>
      <point x="45" y="46" type="curve" smooth="yes"/>
      <point x="45" y="31"/>
      <point x="42" y="0"/>
      <point x="50" y="-4" type="curve" name="hr03"/>
    </contour>
    <contour>
      <point x="53" y="7" type="line"/>
      <point x="53" y="44"/>
      <point x="59" y="79"/>
      <point x="59" y="116" type="curve"/>
      <point x="70" y="119"/>
      <point x="80" y="120"/>
      <point x="91" y="120" type="curve" name="hr04" smooth="yes"/>
      <point x="118" y="120"/>
      <point x="143" y="116"/>
      <point x="171" y="116" type="curve"/>
      <point x="168" y="80"/>
      <point x="168" y="42"/>
      <point x="168" y="6" type="curve"/>
      <point x="138" y="7"/>
      <point x="136" y="7"/>
      <point x="133" y="7" type="curve" smooth="yes"/>
      <point x="107" y="7"/>
      <point x="79" y="6"/>
      <point x="53" y="6" type="curve"/>
    </contour>
  </outline>
</glyph>
<glyph name="quotedbl" format="1">
  <advance width="378"/>
  <unicode hex="0022"/>
  <outline>
    <contour>
      <point x="40" y="709" type="curve" name="hr01"/>
      <point x="39" y="709" type="line"/>
      <point x="31" y="701"/>
      <point x="29" y="668"/>
      <point x="29" y="641" type="curve" smooth="yes"/>
      <point x="29" y="571"/>
      <point x="32" y="517"/>
      <point x="32" y="454" type="curve"/>
      <point x="151" y="457"/>
      <point x="154" y="455"/>
      <point x="156" y="457" type="curve"/>
      <point x="156" y="540"/>
      <point x="152" y="626"/>
      <point x="152" y="709" type="curve"/>
      <point x="146" y="715"/>
      <point x="134" y="717"/>
      <point x="120" y="717" type="curve" smooth="yes"/>
      <point x="93" y="717"/>
      <point x="58" y="709"/>
    </contour>
    <contour>
      <point x="233" y="709" type="curve" name="hr02"/>
      <point x="232" y="709" type="line"/>
      <point x="224" y="701"/>
      <point x="222" y="668"/>
      <point x="222" y="641" type="curve" name="hr03" smooth="yes"/>
      <point x="222" y="571"/>
      <point x="225" y="523"/>
      <point x="225" y="460" type="curve"/>
      <point x="234" y="451"/>
      <point x="264" y="451"/>
      <point x="284" y="452" type="curve" smooth="yes"/>
      <point x="344" y="457"/>
      <point x="347" y="454"/>
      <point x="349" y="456" type="curve"/>
      <point x="349" y="539"/>
      <point x="345" y="626"/>
      <point x="345" y="709" type="curve"/>
      <point x="339" y="715"/>
      <point x="327" y="717"/>
      <point x="313" y="717" type="curve" smooth="yes"/>
      <point x="286" y="717"/>
      <point x="251" y="709"/>
    </contour>
    <contour>
      <point x="336" y="703" type="curve"/>
      <point x="336" y="624"/>
      <point x="338" y="545"/>
      <point x="338" y="465" type="curve"/>
      <point x="235" y="464" type="line"/>
      <point x="235" y="510"/>
      <point x="233" y="556"/>
      <point x="233" y="603" type="curve" smooth="yes"/>
      <point x="233" y="635"/>
      <point x="236" y="667"/>
      <point x="237" y="699" type="curve"/>
      <point x="269" y="699"/>
      <point x="302" y="703"/>
    </contour>
    <contour>
      <point x="143" y="703" type="curve"/>
      <point x="143" y="624"/>
      <point x="145" y="545"/>
      <point x="145" y="465" type="curve"/>
      <point x="42" y="464" type="line"/>
      <point x="42" y="510"/>
      <point x="40" y="557"/>
      <point x="40" y="604" type="curve" smooth="yes"/>
      <point x="40" y="635"/>
      <point x="43" y="667"/>
      <point x="44" y="699" type="curve"/>
      <point x="76" y="699"/>
      <point x="109" y="703"/>
    </contour>
  </outline>
</glyph>
<glyph name="dollar" format="1">
  <advance width="445"/>
  <unicode hex="0024"/>
  <outline>
    <contour>
      <point x="343" y="329" type="curve" name="hr01" smooth="yes"/>
      <point x="295" y="365"/>
      <point x="193" y="406"/>
      <point x="193" y="473" type="curve" smooth="yes"/>
      <point x="193" y="496"/>
      <point x="208" y="517"/>
      <point x="233" y="517" type="curve" smooth="yes"/>
      <point x="301" y="517"/>
      <point x="220" y="434"/>
      <point x="340" y="434" type="curve" name="hr02"/>
      <point x="358" y="436"/>
      <point x="370" y="438"/>
      <point x="388" y="436" type="curve"/>
      <point x="411" y="436"/>
      <point x="433" y="438"/>
      <point x="433" y="479" type="curve" smooth="yes"/>
      <point x="433" y="586"/>
      <point x="376" y="633"/>
      <point x="304" y="650" type="curve"/>
      <point x="302" y="652" type="line"/>
      <point x="302" y="653"/>
      <point x="301" y="653"/>
      <point x="301" y="654" type="curve" name="hr03"/>
      <point x="301" y="740" type="line" smooth="yes"/>
      <point x="301" y="761"/>
      <point x="220" y="759"/>
      <point x="219" y="759" type="curve" smooth="yes"/>
      <point x="160" y="759"/>
      <point x="148" y="762"/>
      <point x="148" y="716" type="curve" smooth="yes"/>
      <point x="148" y="697"/>
      <point x="149" y="673"/>
      <point x="153" y="654" type="curve"/>
      <point x="142" y="648"/>
      <point x="129" y="646"/>
      <point x="118" y="641" type="curve" smooth="yes"/>
      <point x="62" y="615"/>
      <point x="22" y="567"/>
      <point x="22" y="510" type="curve" name="hr04" smooth="yes"/>
      <point x="22" y="427"/>
      <point x="72" y="369"/>
      <point x="132" y="322" type="curve" smooth="yes"/>
      <point x="160" y="300"/>
      <point x="259" y="229"/>
      <point x="259" y="173" type="curve" smooth="yes"/>
      <point x="259" y="146"/>
      <point x="234" y="136"/>
      <point x="216" y="136" type="curve" smooth="yes"/>
      <point x="177" y="136"/>
      <point x="185" y="166"/>
      <point x="179" y="185" type="curve"/>
      <point x="179" y="248"/>
      <point x="159" y="248"/>
      <point x="67" y="248" type="curve" name="hr05" smooth="yes"/>
      <point x="11" y="248"/>
      <point x="15" y="220"/>
      <point x="15" y="173" type="curve" smooth="yes"/>
      <point x="15" y="100"/>
      <point x="34" y="42"/>
      <point x="97" y="16" type="curve" smooth="yes"/>
      <point x="125" y="4"/>
      <point x="151" y="5"/>
      <point x="151" y="-43" type="curve" smooth="yes"/>
      <point x="151" y="-49"/>
      <point x="151" y="-54"/>
      <point x="151" y="-59" type="curve" smooth="yes"/>
      <point x="151" y="-85"/>
      <point x="156" y="-103"/>
      <point x="215" y="-103" type="curve" name="hr06" smooth="yes"/>
      <point x="221" y="-103"/>
      <point x="227" y="-103"/>
      <point x="232" y="-101" type="curve"/>
      <point x="269" y="-101" type="line" smooth="yes"/>
      <point x="300" y="-101"/>
      <point x="306" y="-74"/>
      <point x="306" y="-47" type="curve" smooth="yes"/>
      <point x="306" y="-30"/>
      <point x="304" y="-12"/>
      <point x="304" y="1" type="curve"/>
      <point x="320" y="5"/>
      <point x="339" y="22"/>
      <point x="351" y="30" type="curve" smooth="yes"/>
      <point x="403" y="65"/>
      <point x="426" y="116"/>
      <point x="426" y="168" type="curve" smooth="yes"/>
      <point x="426" y="228"/>
      <point x="396" y="289"/>
    </contour>
    <contour>
      <point x="337" y="321" type="curve" smooth="yes"/>
      <point x="383" y="286"/>
      <point x="417" y="222"/>
      <point x="417" y="161" type="curve" smooth="yes"/>
      <point x="417" y="86"/>
      <point x="361" y="41"/>
      <point x="301" y="11" type="curve"/>
      <point x="300" y="11" type="line"/>
      <point x="295" y="8"/>
      <point x="294" y="3"/>
      <point x="294" y="-3" type="curve" name="hr07" smooth="yes"/>
      <point x="294" y="-12"/>
      <point x="294" y="-19"/>
      <point x="294" y="-28" type="curve" smooth="yes"/>
      <point x="294" y="-50" type="line" smooth="yes"/>
      <point x="294" y="-80"/>
      <point x="287" y="-88"/>
      <point x="276" y="-89" type="curve"/>
      <point x="252" y="-86"/>
      <point x="230" y="-92"/>
      <point x="203" y="-93" type="curve" smooth="yes"/>
      <point x="189" y="-93"/>
      <point x="166" y="-93"/>
      <point x="161" y="-74" type="curve"/>
      <point x="161" y="-63"/>
      <point x="162" y="-51"/>
      <point x="162" y="-39" type="curve" smooth="yes"/>
      <point x="162" y="56"/>
      <point x="24" y="-18"/>
      <point x="24" y="174" type="curve" smooth="yes"/>
      <point x="24" y="180"/>
      <point x="24" y="187"/>
      <point x="24" y="194" type="curve" smooth="yes"/>
      <point x="24" y="242"/>
      <point x="49" y="237"/>
      <point x="74" y="237" type="curve"/>
      <point x="93" y="238"/>
      <point x="112" y="233"/>
      <point x="130" y="233" type="curve" smooth="yes"/>
      <point x="149" y="233"/>
      <point x="169" y="229"/>
      <point x="169" y="205" type="curve" smooth="yes"/>
      <point x="169" y="201"/>
      <point x="168" y="196"/>
      <point x="168" y="192" type="curve" smooth="yes"/>
      <point x="168" y="146"/>
      <point x="189" y="125"/>
      <point x="218" y="125" type="curve" name="hr08" smooth="yes"/>
      <point x="243" y="125"/>
      <point x="268" y="143"/>
      <point x="268" y="175" type="curve" smooth="yes"/>
      <point x="268" y="210"/>
      <point x="242" y="238"/>
      <point x="219" y="261" type="curve" smooth="yes"/>
      <point x="143" y="339"/>
      <point x="33" y="381"/>
      <point x="33" y="507" type="curve" smooth="yes"/>
      <point x="33" y="565"/>
      <point x="71" y="609"/>
      <point x="123" y="632" type="curve" smooth="yes"/>
      <point x="132" y="636"/>
      <point x="163" y="642"/>
      <point x="163" y="652" type="curve" smooth="yes"/>
      <point x="163" y="670"/>
      <point x="157" y="733"/>
      <point x="157" y="738" type="curve"/>
      <point x="160" y="747"/>
      <point x="184" y="748"/>
      <point x="205" y="748" type="curve" smooth="yes"/>
      <point x="226" y="748"/>
      <point x="267" y="751"/>
      <point x="289" y="740" type="curve"/>
      <point x="291" y="738" type="line"/>
      <point x="291" y="719"/>
      <point x="286" y="699"/>
      <point x="286" y="680" type="curve" smooth="yes"/>
      <point x="286" y="626"/>
      <point x="316" y="645"/>
      <point x="341" y="629" type="curve" smooth="yes"/>
      <point x="398" y="591"/>
      <point x="421" y="544"/>
      <point x="421" y="472" type="curve" smooth="yes"/>
      <point x="421" y="466"/>
      <point x="421" y="459"/>
      <point x="418" y="454" type="curve" smooth="yes"/>
      <point x="416" y="452" type="line" smooth="yes"/>
      <point x="404" y="445"/>
      <point x="387" y="448"/>
      <point x="374" y="448" type="curve" smooth="yes"/>
      <point x="358" y="448"/>
      <point x="340" y="444"/>
      <point x="321" y="444" type="curve" name="hr09" smooth="yes"/>
      <point x="246" y="444"/>
      <point x="299" y="526"/>
      <point x="234" y="526" type="curve" name="hr10" smooth="yes"/>
      <point x="200" y="526"/>
      <point x="184" y="501"/>
      <point x="184" y="474" type="curve" smooth="yes"/>
      <point x="184" y="401"/>
      <point x="285" y="360"/>
    </contour>
  </outline>
</glyph>
<glyph name="percent" format="1">
  <advance width="604"/>
  <unicode hex="0025"/>
  <outline>
    <contour>
      <point x="244" y="5" type="line" name="hr01" smooth="yes"/>
      <point x="322" y="208"/>
      <point x="398" y="411"/>
      <point x="461" y="620" type="curve" smooth="yes"/>
      <point x="467" y="641"/>
      <point x="483" y="671"/>
      <point x="483" y="693" type="curve"/>
      <point x="486" y="699" type="line"/>
      <point x="479" y="713"/>
      <point x="457" y="713"/>
      <point x="442" y="713" type="curve" smooth="yes"/>
      <point x="422" y="713"/>
      <point x="401" y="710"/>
      <point x="381" y="710" type="curve" smooth="yes"/>
      <point x="371" y="710"/>
      <point x="360" y="711"/>
      <point x="350" y="714" type="curve" name="hr02"/>
      <point x="341" y="710"/>
      <point x="324" y="635"/>
      <point x="315" y="611" type="curve" smooth="yes"/>
      <point x="246" y="419"/>
      <point x="174" y="221"/>
      <point x="105" y="19" type="curve" smooth="yes"/>
      <point x="100" y="5"/>
      <point x="100" y="1"/>
      <point x="102" y="-4" type="curve" smooth="yes"/>
      <point x="103" y="-5" type="line"/>
      <point x="129" y="-5"/>
      <point x="163" y="-8"/>
      <point x="193" y="-8" type="curve" name="hr03" smooth="yes"/>
      <point x="210" y="-8"/>
      <point x="232" y="-7"/>
      <point x="239" y="0" type="curve"/>
      <point x="239" y="-1" type="line"/>
      <point x="241" y="1"/>
      <point x="242" y="2"/>
      <point x="243" y="4" type="curve" smooth="yes"/>
    </contour>
    <contour>
      <point x="235" y="9" type="curve"/>
      <point x="229" y="3"/>
      <point x="213" y="2"/>
      <point x="198" y="2" type="curve" smooth="yes"/>
      <point x="170" y="2"/>
      <point x="139" y="3"/>
      <point x="112" y="4" type="curve"/>
      <point x="113" y="8" type="line" smooth="yes"/>
      <point x="126" y="50"/>
      <point x="141" y="91"/>
      <point x="155" y="132" type="curve" smooth="yes"/>
      <point x="159" y="146"/>
      <point x="171" y="166"/>
      <point x="173" y="179" type="curve"/>
      <point x="201" y="265"/>
      <point x="235" y="351"/>
      <point x="267" y="436" type="curve" smooth="yes"/>
      <point x="272" y="451"/>
      <point x="303" y="544"/>
      <point x="305" y="554" type="curve"/>
      <point x="321" y="603"/>
      <point x="344" y="652"/>
      <point x="353" y="703" type="curve"/>
      <point x="360" y="702"/>
      <point x="368" y="701"/>
      <point x="375" y="701" type="curve" smooth="yes"/>
      <point x="395" y="701"/>
      <point x="415" y="704"/>
      <point x="435" y="704" type="curve" smooth="yes"/>
      <point x="449" y="704"/>
      <point x="462" y="703"/>
      <point x="474" y="698" type="curve"/>
      <point x="474" y="687"/>
      <point x="461" y="653"/>
      <point x="456" y="637" type="curve" smooth="yes"/>
      <point x="390" y="425"/>
      <point x="316" y="215"/>
    </contour>
    <contour>
      <point x="13" y="512" type="line" smooth="yes"/>
      <point x="13" y="431"/>
      <point x="30" y="337"/>
      <point x="133" y="337" type="curve" smooth="yes"/>
      <point x="228" y="337"/>
      <point x="248" y="460"/>
      <point x="248" y="522" type="curve" smooth="yes"/>
      <point x="248" y="596"/>
      <point x="220" y="687"/>
      <point x="132" y="687" type="curve" smooth="yes"/>
      <point x="35" y="687"/>
      <point x="19" y="596"/>
      <point x="13" y="514" type="curve" smooth="yes"/>
    </contour>
    <contour>
      <point x="356" y="195" type="line" smooth="yes"/>
      <point x="356" y="114"/>
      <point x="373" y="20"/>
      <point x="476" y="20" type="curve" smooth="yes"/>
      <point x="571" y="20"/>
      <point x="591" y="143"/>
      <point x="591" y="205" type="curve" smooth="yes"/>
      <point x="591" y="279"/>
      <point x="563" y="370"/>
      <point x="475" y="370" type="curve" smooth="yes"/>
      <point x="378" y="370"/>
      <point x="362" y="279"/>
      <point x="356" y="197" type="curve" smooth="yes"/>
    </contour>
    <contour>
      <point x="23" y="513" type="curve"/>
      <point x="26" y="550"/>
      <point x="25" y="602"/>
      <point x="48" y="633" type="curve" smooth="yes"/>
      <point x="68" y="660"/>
      <point x="102" y="677"/>
      <point x="136" y="677" type="curve" smooth="yes"/>
      <point x="212" y="677"/>
      <point x="238" y="590"/>
      <point x="238" y="522" type="curve" smooth="yes"/>
      <point x="238" y="447"/>
      <point x="216" y="347"/>
      <point x="124" y="347" type="curve" smooth="yes"/>
      <point x="30" y="347"/>
      <point x="26" y="446"/>
    </contour>
    <contour>
      <point x="366" y="196" type="curve"/>
      <point x="369" y="233"/>
      <point x="368" y="285"/>
      <point x="391" y="316" type="curve" smooth="yes"/>
      <point x="411" y="343"/>
      <point x="445" y="360"/>
      <point x="479" y="360" type="curve" smooth="yes"/>
      <point x="555" y="360"/>
      <point x="581" y="273"/>
      <point x="581" y="205" type="curve" smooth="yes"/>
      <point x="581" y="130"/>
      <point x="559" y="30"/>
      <point x="467" y="30" type="curve" smooth="yes"/>
      <point x="373" y="30"/>
      <point x="369" y="129"/>
    </contour>
    <contour>
      <point x="435" y="160" type="curve" smooth="yes"/>
      <point x="435" y="144"/>
      <point x="434" y="97"/>
      <point x="468" y="97" type="curve" name="hr04" smooth="yes"/>
      <point x="509" y="97"/>
      <point x="510" y="147"/>
      <point x="510" y="180" type="curve" smooth="yes"/>
      <point x="510" y="256"/>
      <point x="502" y="296"/>
      <point x="472" y="296" type="curve" smooth="yes"/>
      <point x="446" y="296"/>
      <point x="434" y="268"/>
      <point x="434" y="248" type="curve" smooth="yes"/>
      <point x="434" y="219"/>
      <point x="435" y="203"/>
    </contour>
    <contour>
      <point x="92" y="478" type="curve"/>
      <point x="92" y="465"/>
      <point x="91" y="414"/>
      <point x="125" y="414" type="curve" smooth="yes"/>
      <point x="166" y="414"/>
      <point x="167" y="464"/>
      <point x="167" y="497" type="curve" smooth="yes"/>
      <point x="167" y="573"/>
      <point x="156" y="613"/>
      <point x="134" y="613" type="curve" smooth="yes"/>
      <point x="107" y="613"/>
      <point x="91" y="594"/>
      <point x="91" y="557" type="curve" smooth="yes"/>
      <point x="91" y="524"/>
      <point x="92" y="479"/>
    </contour>
    <contour>
      <point x="102" y="479" type="curve" name="hr05"/>
      <point x="99" y="517"/>
      <point x="102" y="544"/>
      <point x="102" y="578" type="curve"/>
      <point x="104" y="584"/>
      <point x="106" y="587"/>
      <point x="108" y="591" type="curve"/>
      <point x="114" y="597" type="line"/>
      <point x="121" y="600"/>
      <point x="125" y="603"/>
      <point x="133" y="603" type="curve"/>
      <point x="153" y="594"/>
      <point x="157" y="543"/>
      <point x="157" y="507" type="curve" smooth="yes"/>
      <point x="157" y="456"/>
      <point x="150" y="425"/>
      <point x="119" y="425" type="curve"/>
      <point x="104" y="427"/>
      <point x="102" y="466"/>
    </contour>
    <contour>
      <point x="446" y="162" type="curve"/>
      <point x="443" y="200"/>
      <point x="445" y="227"/>
      <point x="445" y="261" type="curve"/>
      <point x="447" y="267"/>
      <point x="449" y="270"/>
      <point x="451" y="274" type="curve"/>
      <point x="457" y="280" type="line"/>
      <point x="464" y="283"/>
      <point x="468" y="286"/>
      <point x="476" y="286" type="curve"/>
      <point x="497" y="277"/>
      <point x="500" y="223"/>
      <point x="500" y="187" type="curve" smooth="yes"/>
      <point x="500" y="137"/>
      <point x="496" y="105"/>
      <point x="467" y="105" type="curve"/>
      <point x="447" y="103"/>
      <point x="446" y="149"/>
    </contour>
    <contour>
      <point x="231" y="3" type="curve"/>
      <point x="232" y="3" type="line"/>
      <point x="231" y="2"/>
      <point x="231" y="2"/>
      <point x="231" y="2" type="curve"/>
      <point x="231" y="2"/>
      <point x="231" y="2"/>
    </contour>
  </outline>
</glyph>
<glyph name="parenright" format="1">
  <advance width="313"/>
  <unicode hex="0029"/>
  <outline>
    <contour>
      <point x="203" y="45" type="curve" name="hr01"/>
      <point x="159" y="9"/>
      <point x="107" y="4"/>
      <point x="51" y="4" type="curve" smooth="yes"/>
      <point x="28" y="4"/>
      <point x="27" y="18"/>
      <point x="27" y="48" type="curve" smooth="yes"/>
      <point x="27" y="75"/>
      <point x="29" y="108"/>
      <point x="29" y="124" type="curve"/>
      <point x="72" y="124"/>
      <point x="118" y="162"/>
      <point x="133" y="201" type="curve" smooth="yes"/>
      <point x="151" y="249"/>
      <point x="143" y="307"/>
      <point x="143" y="351" type="curve" smooth="yes"/>
      <point x="143" y="419"/>
      <point x="139" y="504"/>
      <point x="101" y="546" type="curve" smooth="yes"/>
      <point x="83" y="566"/>
      <point x="58" y="576"/>
      <point x="33" y="585" type="curve"/>
      <point x="31" y="605"/>
      <point x="30" y="633"/>
      <point x="30" y="658" type="curve" smooth="yes"/>
      <point x="30" y="676"/>
      <point x="31" y="691"/>
      <point x="32" y="700" type="curve"/>
      <point x="52" y="703"/>
      <point x="76" y="706"/>
      <point x="98" y="706" type="curve" smooth="yes"/>
      <point x="253" y="706"/>
      <point x="271" y="575"/>
      <point x="271" y="470" type="curve" smooth="yes"/>
      <point x="271" y="437"/>
      <point x="270" y="404"/>
      <point x="270" y="373" type="curve" smooth="yes"/>
      <point x="270" y="317"/>
      <point x="277" y="261"/>
      <point x="277" y="205" type="curve" smooth="yes"/>
      <point x="277" y="148"/>
      <point x="250" y="77"/>
    </contour>
    <contour>
      <point x="209" y="37" type="curve"/>
      <point x="273" y="85"/>
      <point x="285" y="155"/>
      <point x="285" y="227" type="curve" smooth="yes"/>
      <point x="285" y="276"/>
      <point x="280" y="326"/>
      <point x="280" y="371" type="curve" smooth="yes"/>
      <point x="280" y="406"/>
      <point x="282" y="441"/>
      <point x="282" y="476" type="curve" smooth="yes"/>
      <point x="282" y="541"/>
      <point x="275" y="605"/>
      <point x="233" y="658" type="curve" smooth="yes"/>
      <point x="198" y="702"/>
      <point x="147" y="714"/>
      <point x="96" y="714" type="curve" smooth="yes"/>
      <point x="79" y="714"/>
      <point x="69" y="713"/>
      <point x="45" y="713" type="curve" name="hr02" smooth="yes"/>
      <point x="17" y="713"/>
      <point x="18" y="695"/>
      <point x="18" y="662" type="curve" smooth="yes"/>
      <point x="18" y="629"/>
      <point x="21" y="586"/>
      <point x="26" y="576" type="curve"/>
      <point x="47" y="569"/>
      <point x="70" y="562"/>
      <point x="87" y="546" type="curve" smooth="yes"/>
      <point x="128" y="508"/>
      <point x="135" y="412"/>
      <point x="135" y="346" type="curve" smooth="yes"/>
      <point x="135" y="285"/>
      <point x="145" y="134"/>
      <point x="24" y="134" type="curve"/>
      <point x="17" y="127"/>
      <point x="18" y="100"/>
      <point x="18" y="64" type="curve" smooth="yes"/>
      <point x="18" y="7"/>
      <point x="21" y="-6"/>
      <point x="50" y="-6" type="curve" smooth="yes"/>
      <point x="108" y="-6"/>
      <point x="162" y="-1"/>
    </contour>
  </outline>
</glyph>
<glyph name="asterisk" format="1">
  <advance width="367"/>
  <unicode hex="002A"/>
  <outline>
    <contour>
      <point x="257" y="358" type="curve" name="hr01" smooth="yes"/>
      <point x="326" y="414"/>
      <point x="353" y="423"/>
      <point x="353" y="450" type="curve"/>
      <point x="331" y="462"/>
      <point x="305" y="509"/>
      <point x="284" y="530" type="curve"/>
      <point x="284" y="546"/>
      <point x="349" y="581"/>
      <point x="349" y="611" type="curve" smooth="yes"/>
      <point x="349" y="612"/>
      <point x="348" y="613"/>
      <point x="348" y="614" type="curve" smooth="yes"/>
      <point x="319" y="643"/>
      <point x="290" y="671"/>
      <point x="262" y="699" type="curve"/>
      <point x="262" y="698"/>
      <point x="263" y="697"/>
      <point x="264" y="695" type="curve" smooth="yes"/>
      <point x="262" y="697"/>
      <point x="259" y="698"/>
      <point x="257" y="699" type="curve"/>
      <point x="233" y="676"/>
      <point x="208" y="655"/>
      <point x="185" y="632" type="curve"/>
      <point x="159" y="648"/>
      <point x="120" y="702"/>
      <point x="107" y="702" type="curve" smooth="yes"/>
      <point x="106" y="702"/>
      <point x="105" y="701"/>
      <point x="104" y="701" type="curve" name="hr02"/>
      <point x="103" y="700" type="line" smooth="yes"/>
      <point x="75" y="686"/>
      <point x="36" y="634"/>
      <point x="14" y="612" type="curve"/>
      <point x="18" y="608"/>
      <point x="26" y="594"/>
      <point x="36" y="583" type="curve" smooth="yes"/>
      <point x="46" y="571"/>
      <point x="80" y="540"/>
      <point x="84" y="525" type="curve"/>
      <point x="60" y="501"/>
      <point x="34" y="476"/>
      <point x="16" y="448" type="curve"/>
      <point x="16" y="436"/>
      <point x="63" y="401"/>
      <point x="78" y="386" type="curve" smooth="yes"/>
      <point x="83" y="382"/>
      <point x="98" y="362"/>
      <point x="108" y="362" type="curve"/>
      <point x="109" y="363"/>
      <point x="110" y="363"/>
      <point x="111" y="364" type="curve" smooth="yes"/>
      <point x="137" y="376"/>
      <point x="158" y="406"/>
      <point x="178" y="423" type="curve"/>
      <point x="201" y="401"/>
      <point x="226" y="380"/>
      <point x="249" y="357" type="curve"/>
      <point x="247" y="361" type="line" smooth="yes"/>
      <point x="248" y="359"/>
      <point x="249" y="357"/>
      <point x="251" y="356" type="curve" smooth="yes"/>
      <point x="253" y="356"/>
      <point x="255" y="357"/>
    </contour>
    <contour>
      <point x="183" y="433" type="curve"/>
      <point x="180" y="433"/>
      <point x="178" y="433"/>
      <point x="176" y="434" type="curve"/>
      <point x="161" y="424"/>
      <point x="132" y="397"/>
      <point x="108" y="373" type="curve" smooth="yes"/>
      <point x="107" y="372" type="line"/>
      <point x="79" y="397"/>
      <point x="54" y="423"/>
      <point x="26" y="447" type="curve"/>
      <point x="36" y="463"/>
      <point x="94" y="514"/>
      <point x="94" y="523" type="curve" smooth="yes"/>
      <point x="94" y="543"/>
      <point x="37" y="590"/>
      <point x="26" y="610" type="curve"/>
      <point x="55" y="634"/>
      <point x="81" y="665"/>
      <point x="107" y="691" type="curve"/>
      <point x="108" y="691"/>
      <point x="108" y="690"/>
      <point x="109" y="690" type="curve"/>
      <point x="112" y="684"/>
      <point x="183" y="622"/>
      <point x="187" y="622" type="curve"/>
      <point x="210" y="645"/>
      <point x="236" y="664"/>
      <point x="259" y="687" type="curve"/>
      <point x="286" y="660"/>
      <point x="312" y="635"/>
      <point x="339" y="609" type="curve"/>
      <point x="335" y="581"/>
      <point x="282" y="558"/>
      <point x="273" y="530" type="curve"/>
      <point x="274" y="528"/>
      <point x="274" y="527"/>
      <point x="275" y="525" type="curve" smooth="yes"/>
      <point x="299" y="500"/>
      <point x="318" y="472"/>
      <point x="342" y="447" type="curve"/>
      <point x="341" y="445"/>
      <point x="340" y="442"/>
      <point x="339" y="440" type="curve" smooth="yes"/>
      <point x="325" y="426" type="line"/>
      <point x="296" y="412"/>
      <point x="277" y="387"/>
      <point x="252" y="367" type="curve"/>
      <point x="230" y="389"/>
      <point x="205" y="410"/>
    </contour>
    <contour>
      <point x="252" y="367" type="line"/>
      <point x="251" y="366" type="line"/>
    </contour>
  </outline>
</glyph>
<glyph name="comma" format="1">
  <advance width="188"/>
  <unicode hex="002C"/>
  <outline>
    <contour>
      <point x="143" y="-63" type="curve" name="hr01"/>
      <point x="159" y="42"/>
      <point x="161" y="81"/>
      <point x="162" y="119" type="curve"/>
      <point x="153" y="128"/>
      <point x="114" y="130"/>
      <point x="85" y="130" type="curve" smooth="yes"/>
      <point x="67" y="130"/>
      <point x="38" y="127"/>
      <point x="30" y="119" type="curve"/>
      <point x="30" y="119"/>
      <point x="30" y="120"/>
      <point x="30" y="120" type="curve"/>
      <point x="27" y="120"/>
      <point x="26" y="39"/>
      <point x="26" y="5" type="curve"/>
      <point x="27" y="3"/>
      <point x="27" y="2"/>
      <point x="28" y="0" type="curve" smooth="yes"/>
      <point x="29" y="-1" type="line" name="hr02"/>
      <point x="44" y="-1"/>
      <point x="59" y="-4"/>
      <point x="74" y="-5" type="curve"/>
      <point x="67" y="-27"/>
      <point x="56" y="-73"/>
      <point x="55" y="-93" type="curve"/>
      <point x="53" y="-93" type="line"/>
      <point x="55" y="-93" type="line"/>
      <point x="55" y="-96" type="line"/>
      <point x="56" y="-98"/>
      <point x="56" y="-99"/>
      <point x="57" y="-101" type="curve" smooth="yes"/>
      <point x="58" y="-102" type="line" name="hr03"/>
      <point x="59" y="-102"/>
      <point x="60" y="-103"/>
      <point x="61" y="-103" type="curve" name="hr04" smooth="yes"/>
      <point x="65" y="-103"/>
      <point x="81" y="-102"/>
      <point x="96" y="-102" type="curve" name="hr05" smooth="yes"/>
      <point x="108" y="-102"/>
      <point x="119" y="-103"/>
      <point x="126" y="-104" type="curve" name="hr06"/>
      <point x="127" y="-104" type="line"/>
      <point x="137" y="-94"/>
      <point x="136" y="-77"/>
    </contour>
    <contour>
      <point x="134" y="-59" type="line" smooth="yes"/>
      <point x="130" y="-66"/>
      <point x="125" y="-85"/>
      <point x="125" y="-93" type="curve"/>
      <point x="117" y="-92"/>
      <point x="106" y="-91"/>
      <point x="95" y="-91" type="curve" smooth="yes"/>
      <point x="84" y="-91"/>
      <point x="73" y="-92"/>
      <point x="65" y="-92" type="curve"/>
      <point x="65" y="-90" type="line" smooth="yes"/>
      <point x="73" y="-66"/>
      <point x="76" y="-26"/>
      <point x="86" y="-3" type="curve"/>
      <point x="82" y="8"/>
      <point x="51" y="6"/>
      <point x="36" y="8" type="curve"/>
      <point x="36" y="44"/>
      <point x="35" y="80"/>
      <point x="40" y="116" type="curve"/>
      <point x="51" y="119"/>
      <point x="62" y="120"/>
      <point x="73" y="120" type="curve" smooth="yes"/>
      <point x="99" y="120"/>
      <point x="126" y="114"/>
      <point x="152" y="114" type="curve"/>
      <point x="146" y="-13"/>
      <point x="135" y="-50"/>
      <point x="133" y="-60" type="curve"/>
    </contour>
  </outline>
</glyph>
<glyph name="hyphen" format="1">
  <advance width="521"/>
  <unicode hex="002D"/>
  <outline>
    <contour>
      <point x="36" y="197" type="line" name="hr00"/>
      <point x="185" y="197"/>
      <point x="335" y="190"/>
      <point x="485" y="190" type="curve"/>
      <point x="486" y="192"/>
      <point x="488" y="194"/>
      <point x="490" y="197" type="curve"/>
      <point x="486" y="219"/>
      <point x="484" y="242"/>
      <point x="484" y="265" type="curve" smooth="yes"/>
      <point x="484" y="297"/>
      <point x="487" y="330"/>
      <point x="487" y="362" type="curve"/>
      <point x="485" y="364"/>
      <point x="483" y="365"/>
      <point x="482" y="367" type="curve"/>
      <point x="39" y="367" type="line"/>
      <point x="37" y="365"/>
      <point x="36" y="363"/>
      <point x="34" y="361" type="curve"/>
      <point x="34" y="308"/>
      <point x="31" y="256"/>
      <point x="31" y="203" type="curve"/>
    </contour>
    <contour>
      <point x="44" y="357" type="curve"/>
      <point x="477" y="357" type="line"/>
      <point x="477" y="324"/>
      <point x="474" y="292"/>
      <point x="474" y="261" type="curve" smooth="yes"/>
      <point x="474" y="240"/>
      <point x="475" y="220"/>
      <point x="479" y="200" type="curve"/>
      <point x="333" y="200"/>
      <point x="186" y="207"/>
      <point x="41" y="207" type="curve"/>
      <point x="41" y="233"/>
      <point x="40" y="260"/>
      <point x="40" y="287" type="curve" smooth="yes"/>
      <point x="40" y="310"/>
      <point x="41" y="334"/>
    </contour>
  </outline>
</glyph>
<glyph name="slash" format="1">
  <advance width="412"/>
  <unicode hex="002F"/>
  <outline>
    <contour>
      <point x="156" y="5" type="line" name="hr01" smooth="yes"/>
      <point x="234" y="208"/>
      <point x="310" y="411"/>
      <point x="373" y="620" type="curve" smooth="yes"/>
      <point x="379" y="641"/>
      <point x="395" y="671"/>
      <point x="395" y="693" type="curve"/>
      <point x="398" y="699" type="line"/>
      <point x="391" y="713"/>
      <point x="369" y="713"/>
      <point x="354" y="713" type="curve" smooth="yes"/>
      <point x="334" y="713"/>
      <point x="313" y="710"/>
      <point x="293" y="710" type="curve" smooth="yes"/>
      <point x="283" y="710"/>
      <point x="272" y="711"/>
      <point x="262" y="714" type="curve" name="hr02"/>
      <point x="253" y="710"/>
      <point x="236" y="635"/>
      <point x="227" y="611" type="curve" smooth="yes"/>
      <point x="191" y="512"/>
      <point x="163" y="418"/>
      <point x="126" y="321" type="curve"/>
      <point x="98" y="255"/>
      <point x="64" y="158"/>
      <point x="43" y="90" type="curve" smooth="yes"/>
      <point x="34" y="61"/>
      <point x="14" y="32"/>
      <point x="15" y="1" type="curve"/>
      <point x="16" y="-1"/>
      <point x="16" y="-2"/>
      <point x="17" y="-4" type="curve" smooth="yes"/>
      <point x="18" y="-5" type="line"/>
      <point x="44" y="-5"/>
      <point x="75" y="-8"/>
      <point x="105" y="-8" type="curve" name="hr03" smooth="yes"/>
      <point x="122" y="-8"/>
      <point x="144" y="-7"/>
      <point x="151" y="0" type="curve"/>
      <point x="151" y="-1" type="line"/>
      <point x="153" y="1"/>
      <point x="154" y="2"/>
      <point x="155" y="4" type="curve" smooth="yes"/>
    </contour>
    <contour>
      <point x="147" y="9" type="curve"/>
      <point x="141" y="3"/>
      <point x="125" y="2"/>
      <point x="110" y="2" type="curve" smooth="yes"/>
      <point x="82" y="2"/>
      <point x="52" y="3"/>
      <point x="25" y="4" type="curve"/>
      <point x="25" y="8" type="line"/>
      <point x="69" y="151"/>
      <point x="125" y="293"/>
      <point x="179" y="436" type="curve" smooth="yes"/>
      <point x="184" y="451"/>
      <point x="215" y="544"/>
      <point x="217" y="554" type="curve"/>
      <point x="233" y="603"/>
      <point x="256" y="652"/>
      <point x="265" y="703" type="curve"/>
      <point x="272" y="702"/>
      <point x="280" y="701"/>
      <point x="287" y="701" type="curve" smooth="yes"/>
      <point x="307" y="701"/>
      <point x="327" y="704"/>
      <point x="347" y="704" type="curve" smooth="yes"/>
      <point x="361" y="704"/>
      <point x="374" y="703"/>
      <point x="386" y="698" type="curve"/>
      <point x="386" y="687"/>
      <point x="373" y="653"/>
      <point x="368" y="637" type="curve" smooth="yes"/>
      <point x="302" y="425"/>
      <point x="228" y="215"/>
    </contour>
    <contour>
      <point x="143" y="3" type="curve"/>
      <point x="144" y="3" type="line"/>
      <point x="143" y="2"/>
      <point x="143" y="2"/>
      <point x="143" y="2" type="curve"/>
      <point x="143" y="2"/>
      <point x="143" y="2"/>
    </contour>
  </outline>
</glyph>
<glyph name="one" format="1">
  <advance width="366"/>
  <unicode hex="0031"/>
  <outline>
    <contour>
      <point x="319" y="18" type="curve" name="hr01"/>
      <point x="317" y="40"/>
      <point x="316" y="62"/>
      <point x="316" y="84" type="curve" smooth="yes"/>
      <point x="316" y="258"/>
      <point x="328" y="432"/>
      <point x="328" y="606" type="curve" name="hr02" smooth="yes"/>
      <point x="328" y="640"/>
      <point x="327" y="676"/>
      <point x="324" y="710" type="curve"/>
      <point x="314" y="720"/>
      <point x="259" y="719"/>
      <point x="240" y="719" type="curve" smooth="yes"/>
      <point x="199" y="719"/>
      <point x="160" y="716"/>
      <point x="120" y="716" type="curve"/>
      <point x="91" y="688"/>
      <point x="35" y="580"/>
      <point x="18" y="544" type="curve" smooth="yes"/>
      <point x="12" y="532"/>
      <point x="-3" y="509"/>
      <point x="-3" y="492" type="curve" smooth="yes"/>
      <point x="-3" y="465"/>
      <point x="107" y="448"/>
      <point x="116" y="448" type="curve" smooth="yes"/>
      <point x="136" y="448"/>
      <point x="149" y="459"/>
      <point x="162" y="497" type="curve" name="hr03"/>
      <point x="162" y="333"/>
      <point x="150" y="171"/>
      <point x="150" y="8" type="curve" name="hr04"/>
      <point x="161" y="-3"/>
      <point x="210" y="-7"/>
      <point x="251" y="-7" type="curve" smooth="yes"/>
      <point x="290" y="-7"/>
      <point x="319" y="-2"/>
    </contour>
    <contour>
      <point x="309" y="17" type="curve"/>
      <point x="309" y="5"/>
      <point x="245" y="5"/>
      <point x="216" y="5" type="curve" smooth="yes"/>
      <point x="197" y="5"/>
      <point x="178" y="7"/>
      <point x="160" y="11" type="curve"/>
      <point x="160" y="167"/>
      <point x="174" y="308"/>
      <point x="174" y="472" type="curve" smooth="yes"/>
      <point x="174" y="487"/>
      <point x="173" y="501"/>
      <point x="171" y="505" type="curve"/>
      <point x="171" y="507" type="line"/>
      <point x="169" y="509"/>
      <point x="167" y="510"/>
      <point x="166" y="512" type="curve"/>
      <point x="146" y="512"/>
      <point x="141" y="456"/>
      <point x="122" y="456" type="curve" smooth="yes"/>
      <point x="95" y="456"/>
      <point x="19" y="480"/>
      <point x="7" y="489" type="curve"/>
      <point x="7" y="493" type="line"/>
      <point x="24" y="543"/>
      <point x="50" y="585"/>
      <point x="77" y="630" type="curve" smooth="yes"/>
      <point x="92" y="656"/>
      <point x="106" y="684"/>
      <point x="125" y="707" type="curve"/>
      <point x="157" y="707"/>
      <point x="190" y="709"/>
      <point x="223" y="709" type="curve" smooth="yes"/>
      <point x="252" y="709"/>
      <point x="284" y="705"/>
      <point x="315" y="705" type="curve"/>
      <point x="317" y="682"/>
      <point x="316" y="661"/>
      <point x="316" y="636" type="curve" name="hr05" smooth="yes"/>
      <point x="316" y="608"/>
      <point x="320" y="581"/>
      <point x="320" y="551" type="curve" smooth="yes"/>
      <point x="320" y="395"/>
      <point x="306" y="240"/>
      <point x="306" y="84" type="curve" name="hr06" smooth="yes"/>
      <point x="306" y="62"/>
      <point x="307" y="39"/>
    </contour>
  </outline>
</glyph>
<glyph name="two" format="1">
  <advance width="498"/>
  <unicode hex="0032"/>
  <outline>
    <contour>
      <point x="76" y="-6" type="line" name="hr01"/>
      <point x="203" y="-4"/>
      <point x="331" y="-1"/>
      <point x="459" y="-1" type="curve" name="hr02"/>
      <point x="460" y="0"/>
      <point x="461" y="0"/>
      <point x="463" y="1" type="curve" smooth="yes"/>
      <point x="464" y="2" type="line"/>
      <point x="464" y="3"/>
      <point x="464" y="5"/>
      <point x="465" y="7" type="curve"/>
      <point x="461" y="15"/>
      <point x="462" y="25"/>
      <point x="462" y="34" type="curve"/>
      <point x="465" y="42"/>
      <point x="466" y="54"/>
      <point x="466" y="68" type="curve" smooth="yes"/>
      <point x="466" y="99"/>
      <point x="462" y="139"/>
      <point x="451" y="150" type="curve"/>
      <point x="383" y="150"/>
      <point x="314" y="146"/>
      <point x="246" y="146" type="curve" smooth="yes"/>
      <point x="227" y="146"/>
      <point x="205" y="146"/>
      <point x="205" y="151" type="curve" smooth="yes"/>
      <point x="205" y="162"/>
      <point x="213" y="175"/>
      <point x="213" y="184" type="curve"/>
      <point x="265" y="294"/>
      <point x="479" y="269"/>
      <point x="479" y="454" type="curve" smooth="yes"/>
      <point x="479" y="582"/>
      <point x="457" y="716"/>
      <point x="260" y="716" type="curve" smooth="yes"/>
      <point x="221" y="716"/>
      <point x="142" y="710"/>
      <point x="102" y="674" type="curve" smooth="yes"/>
      <point x="51" y="628"/>
      <point x="25" y="559"/>
      <point x="25" y="491" type="curve" smooth="yes"/>
      <point x="25" y="471"/>
      <point x="29" y="421"/>
      <point x="37" y="413" type="curve"/>
      <point x="57" y="413"/>
      <point x="78" y="410"/>
      <point x="99" y="410" type="curve" name="hr03" smooth="yes"/>
      <point x="121" y="410"/>
      <point x="182" y="413"/>
      <point x="192" y="423" type="curve"/>
      <point x="192" y="468"/>
      <point x="200" y="542"/>
      <point x="257" y="542" type="curve" name="hr04" smooth="yes"/>
      <point x="287" y="542"/>
      <point x="307" y="506"/>
      <point x="307" y="471" type="curve" smooth="yes"/>
      <point x="307" y="417"/>
      <point x="260" y="393"/>
      <point x="222" y="371" type="curve" smooth="yes"/>
      <point x="164" y="337"/>
      <point x="107" y="303"/>
      <point x="62" y="254" type="curve" smooth="yes"/>
      <point x="20" y="208"/>
      <point x="25" y="60"/>
      <point x="25" y="4" type="curve"/>
      <point x="23" y="4" type="line"/>
      <point x="23" y="4"/>
      <point x="24" y="3"/>
      <point x="25" y="3" type="curve"/>
      <point x="25" y="1" type="line" smooth="yes"/>
      <point x="26" y="-1"/>
      <point x="26" y="-2"/>
      <point x="27" y="-4" type="curve" smooth="yes"/>
      <point x="28" y="-5" type="line"/>
      <point x="29" y="-5"/>
      <point x="30" y="-6"/>
      <point x="31" y="-6" type="curve" name="hr05"/>
    </contour>
    <contour>
      <point x="76" y="4" type="curve"/>
      <point x="35" y="4" type="line"/>
      <point x="36" y="8"/>
      <point x="37" y="21"/>
      <point x="37" y="29" type="curve" smooth="yes"/>
      <point x="37" y="69" type="line" smooth="yes"/>
      <point x="37" y="119"/>
      <point x="34" y="207"/>
      <point x="69" y="247" type="curve" smooth="yes"/>
      <point x="112" y="297"/>
      <point x="171" y="329"/>
      <point x="227" y="362" type="curve" smooth="yes"/>
      <point x="265" y="384"/>
      <point x="318" y="414"/>
      <point x="318" y="468" type="curve" smooth="yes"/>
      <point x="318" y="509"/>
      <point x="293" y="553"/>
      <point x="256" y="553" type="curve" smooth="yes"/>
      <point x="195" y="553"/>
      <point x="182" y="475"/>
      <point x="182" y="428" type="curve"/>
      <point x="151" y="427"/>
      <point x="120" y="420"/>
      <point x="91" y="420" type="curve" smooth="yes"/>
      <point x="74" y="420"/>
      <point x="58" y="422"/>
      <point x="42" y="423" type="curve"/>
      <point x="41" y="443"/>
      <point x="36" y="466"/>
      <point x="36" y="487" type="curve" smooth="yes"/>
      <point x="36" y="554"/>
      <point x="57" y="621"/>
      <point x="108" y="666" type="curve" smooth="yes"/>
      <point x="152" y="705"/>
      <point x="237" y="707"/>
      <point x="270" y="707" type="curve" smooth="yes"/>
      <point x="392" y="707"/>
      <point x="468" y="641"/>
      <point x="468" y="462" type="curve" smooth="yes"/>
      <point x="468" y="390"/>
      <point x="444" y="347"/>
      <point x="375" y="307" type="curve" smooth="yes"/>
      <point x="285" y="255"/>
      <point x="195" y="231"/>
      <point x="195" y="152" type="curve" smooth="yes"/>
      <point x="195" y="143"/>
      <point x="200" y="137"/>
      <point x="217" y="137" type="curve" smooth="yes"/>
      <point x="316" y="137" type="line" smooth="yes"/>
      <point x="359" y="137"/>
      <point x="403" y="140"/>
      <point x="447" y="140" type="curve"/>
      <point x="453" y="123"/>
      <point x="454" y="105"/>
      <point x="454" y="87" type="curve" smooth="yes"/>
      <point x="454" y="66"/>
      <point x="451" y="45"/>
      <point x="451" y="24" type="curve" smooth="yes"/>
      <point x="451" y="19"/>
      <point x="451" y="13"/>
      <point x="453" y="9" type="curve"/>
      <point x="327" y="9"/>
      <point x="201" y="6"/>
    </contour>
  </outline>
</glyph>
<glyph name="four" format="1">
  <advance width="469"/>
  <unicode hex="0034"/>
  <outline>
    <contour>
      <point x="391" y="335" type="curve" name="hr01"/>
      <point x="389" y="335" type="line"/>
      <point x="387" y="346"/>
      <point x="387" y="358"/>
      <point x="387" y="369" type="curve" smooth="yes"/>
      <point x="387" y="450"/>
      <point x="392" y="530"/>
      <point x="394" y="611" type="curve" smooth="yes"/>
      <point x="395" y="642"/>
      <point x="394" y="673"/>
      <point x="397" y="704" type="curve"/>
      <point x="395" y="706"/>
      <point x="393" y="707"/>
      <point x="392" y="709" type="curve"/>
      <point x="338" y="709"/>
      <point x="285" y="707"/>
      <point x="232" y="707" type="curve"/>
      <point x="230" y="705"/>
      <point x="229" y="703"/>
      <point x="227" y="701" type="curve"/>
      <point x="227" y="702" type="line"/>
      <point x="228" y="704"/>
      <point x="230" y="707"/>
      <point x="231" y="709" type="curve" smooth="yes"/>
      <point x="166" y="613"/>
      <point x="105" y="514"/>
      <point x="50" y="412" type="curve"/>
      <point x="21" y="372"/>
      <point x="7" y="338"/>
      <point x="7" y="302" type="curve" smooth="yes"/>
      <point x="7" y="263"/>
      <point x="11" y="209"/>
      <point x="20" y="191" type="curve"/>
      <point x="20" y="192" type="line"/>
      <point x="22" y="188" type="line"/>
      <point x="27" y="185"/>
      <point x="37" y="185"/>
      <point x="46" y="185" type="curve" smooth="yes"/>
      <point x="59" y="185"/>
      <point x="72" y="186"/>
      <point x="77" y="186" type="curve" smooth="yes"/>
      <point x="128" y="186"/>
      <point x="181" y="184"/>
      <point x="232" y="184" type="curve"/>
      <point x="228" y="171"/>
      <point x="230" y="151"/>
      <point x="229" y="137" type="curve" smooth="yes"/>
      <point x="226" y="92"/>
      <point x="221" y="47"/>
      <point x="221" y="2" type="curve"/>
      <point x="220" y="2" type="line"/>
      <point x="220" y="2"/>
      <point x="220" y="1"/>
      <point x="221" y="1" type="curve"/>
      <point x="221" y="-1" type="line" smooth="yes"/>
      <point x="222" y="-3"/>
      <point x="222" y="-4"/>
      <point x="223" y="-6" type="curve" smooth="yes"/>
      <point x="224" y="-7" type="line" name="hr02"/>
      <point x="225" y="-7"/>
      <point x="226" y="-8"/>
      <point x="227" y="-8" type="curve" name="hr03" smooth="yes"/>
      <point x="235" y="-8"/>
      <point x="266" y="-10"/>
      <point x="298" y="-10" type="curve" name="hr04" smooth="yes"/>
      <point x="333" y="-10"/>
      <point x="376" y="-7"/>
      <point x="376" y="4" type="curve" smooth="yes"/>
      <point x="376" y="29"/>
      <point x="380" y="53"/>
      <point x="382" y="78" type="curve" smooth="yes"/>
      <point x="384" y="110"/>
      <point x="383" y="144"/>
      <point x="389" y="176" type="curve"/>
      <point x="393" y="177"/>
      <point x="396" y="177"/>
      <point x="400" y="177" type="curve" smooth="yes"/>
      <point x="410" y="177"/>
      <point x="419" y="175"/>
      <point x="429" y="175" type="curve" smooth="yes"/>
      <point x="436" y="175"/>
      <point x="447" y="175"/>
      <point x="451" y="183" type="curve"/>
      <point x="453" y="231"/>
      <point x="455" y="280"/>
      <point x="457" y="328" type="curve"/>
      <point x="449" y="336"/>
      <point x="419" y="336"/>
      <point x="405" y="336" type="curve" name="hr05" smooth="yes"/>
      <point x="400" y="336"/>
      <point x="395" y="336"/>
    </contour>
    <contour>
      <point x="392" y="325" type="curve" smooth="yes"/>
      <point x="411" y="325"/>
      <point x="428" y="323"/>
      <point x="447" y="323" type="curve"/>
      <point x="445" y="278"/>
      <point x="443" y="232"/>
      <point x="441" y="187" type="curve"/>
      <point x="433" y="184"/>
      <point x="427" y="184"/>
      <point x="418" y="184" type="curve"/>
      <point x="412" y="186"/>
      <point x="406" y="187"/>
      <point x="399" y="187" type="curve" smooth="yes"/>
      <point x="391" y="187"/>
      <point x="386" y="187"/>
      <point x="380" y="181" type="curve"/>
      <point x="373" y="148"/>
      <point x="374" y="112"/>
      <point x="372" y="79" type="curve" smooth="yes"/>
      <point x="370" y="55"/>
      <point x="366" y="30"/>
      <point x="366" y="6" type="curve"/>
      <point x="351" y="1"/>
      <point x="330" y="-1"/>
      <point x="307" y="-1" type="curve" smooth="yes"/>
      <point x="280" y="-1"/>
      <point x="252" y="1"/>
      <point x="231" y="2" type="curve"/>
      <point x="231" y="64"/>
      <point x="243" y="126"/>
      <point x="243" y="189" type="curve"/>
      <point x="236" y="196"/>
      <point x="208" y="197"/>
      <point x="185" y="197" type="curve" name="hr06" smooth="yes"/>
      <point x="151" y="197"/>
      <point x="112" y="193"/>
      <point x="71" y="193" type="curve" smooth="yes"/>
      <point x="56" y="193"/>
      <point x="41" y="194"/>
      <point x="28" y="197" type="curve"/>
      <point x="20" y="212"/>
      <point x="18" y="265"/>
      <point x="18" y="302" type="curve" smooth="yes"/>
      <point x="18" y="318"/>
      <point x="18" y="331"/>
      <point x="19" y="337" type="curve"/>
      <point x="46" y="377"/>
      <point x="66" y="422"/>
      <point x="90" y="464" type="curve" smooth="yes"/>
      <point x="136" y="543"/>
      <point x="184" y="621"/>
      <point x="235" y="697" type="curve"/>
      <point x="286" y="697"/>
      <point x="336" y="699"/>
      <point x="386" y="699" type="curve"/>
      <point x="384" y="670"/>
      <point x="385" y="640"/>
      <point x="384" y="612" type="curve" smooth="yes"/>
      <point x="382" y="526"/>
      <point x="377" y="452"/>
      <point x="377" y="357" type="curve" smooth="yes"/>
      <point x="377" y="343"/>
      <point x="378" y="328"/>
      <point x="386" y="324" type="curve"/>
      <point x="388" y="324"/>
      <point x="390" y="325"/>
    </contour>
    <contour>
      <point x="273" y="541" type="curve"/>
      <point x="273" y="542" type="line"/>
      <point x="273" y="543"/>
      <point x="272" y="544"/>
      <point x="272" y="545" type="curve"/>
      <point x="271" y="546" type="line" smooth="yes"/>
      <point x="269" y="547"/>
      <point x="268" y="547"/>
      <point x="267" y="548" type="curve"/>
      <point x="257" y="548"/>
      <point x="246" y="526"/>
      <point x="243" y="520" type="curve"/>
      <point x="213" y="490"/>
      <point x="179" y="414"/>
      <point x="155" y="374" type="curve" smooth="yes"/>
      <point x="147" y="362"/>
      <point x="131" y="344"/>
      <point x="128" y="329" type="curve"/>
      <point x="142" y="315"/>
      <point x="189" y="318"/>
      <point x="217" y="318" type="curve" smooth="yes"/>
      <point x="240" y="318"/>
      <point x="266" y="319"/>
      <point x="270" y="327" type="curve"/>
      <point x="271" y="398"/>
      <point x="272" y="470"/>
    </contour>
    <contour>
      <point x="260" y="331" type="curve"/>
      <point x="247" y="329"/>
      <point x="229" y="328"/>
      <point x="209" y="328" type="curve" smooth="yes"/>
      <point x="185" y="328"/>
      <point x="160" y="329"/>
      <point x="140" y="332" type="curve"/>
      <point x="163" y="372"/>
      <point x="187" y="413"/>
      <point x="212" y="453" type="curve" smooth="yes"/>
      <point x="218" y="463"/>
      <point x="245" y="514"/>
      <point x="263" y="533" type="curve"/>
      <point x="262" y="466"/>
      <point x="261" y="398"/>
    </contour>
  </outline>
</glyph>
<glyph name="seven" format="1">
  <advance width="476"/>
  <unicode hex="0037"/>
  <outline>
    <contour>
      <point x="22" y="565" type="line" name="hr00"/>
      <point x="105" y="565"/>
      <point x="188" y="556"/>
      <point x="272" y="556" type="curve"/>
      <point x="189" y="371"/>
      <point x="96" y="192"/>
      <point x="12" y="9" type="curve"/>
      <point x="12" y="-5"/>
      <point x="50" y="-5"/>
      <point x="64" y="-5" type="curve" smooth="yes"/>
      <point x="99" y="-5"/>
      <point x="135" y="2"/>
      <point x="168" y="2" type="curve"/>
      <point x="169" y="3"/>
      <point x="171" y="4"/>
      <point x="173" y="5" type="curve"/>
      <point x="267" y="193"/>
      <point x="387" y="369"/>
      <point x="468" y="563" type="curve"/>
      <point x="468" y="565"/>
      <point x="467" y="688"/>
      <point x="467" y="705" type="curve"/>
      <point x="466" y="707"/>
      <point x="464" y="708"/>
      <point x="463" y="710" type="curve"/>
      <point x="409" y="715"/>
      <point x="356" y="717"/>
      <point x="302" y="717" type="curve" smooth="yes"/>
      <point x="211" y="717"/>
      <point x="118" y="712"/>
      <point x="27" y="712" type="curve"/>
      <point x="25" y="710"/>
      <point x="24" y="708"/>
      <point x="22" y="706" type="curve"/>
      <point x="22" y="707"/>
      <point x="22" y="707"/>
      <point x="22" y="707" type="curve"/>
      <point x="22" y="707"/>
      <point x="21" y="693"/>
      <point x="21" y="688" type="curve" smooth="yes"/>
      <point x="21" y="640" type="line" smooth="yes"/>
      <point x="21" y="617"/>
      <point x="20" y="594"/>
      <point x="17" y="571" type="curve"/>
    </contour>
    <contour>
      <point x="32" y="702" type="curve"/>
      <point x="121" y="702"/>
      <point x="209" y="706"/>
      <point x="299" y="706" type="curve" smooth="yes"/>
      <point x="351" y="706"/>
      <point x="404" y="705"/>
      <point x="457" y="700" type="curve"/>
      <point x="457" y="655"/>
      <point x="458" y="611"/>
      <point x="458" y="566" type="curve"/>
      <point x="375" y="374"/>
      <point x="258" y="199"/>
      <point x="165" y="12" type="curve"/>
      <point x="134" y="12"/>
      <point x="98" y="4"/>
      <point x="65" y="4" type="curve" smooth="yes"/>
      <point x="50" y="4"/>
      <point x="36" y="6"/>
      <point x="23" y="10" type="curve"/>
      <point x="109" y="194"/>
      <point x="203" y="374"/>
      <point x="284" y="559" type="curve"/>
      <point x="282" y="562"/>
      <point x="280" y="564"/>
      <point x="279" y="566" type="curve"/>
      <point x="279" y="572" type="line"/>
      <point x="276" y="566" type="line"/>
      <point x="193" y="566"/>
      <point x="110" y="574"/>
      <point x="28" y="575" type="curve"/>
      <point x="33" y="617"/>
      <point x="29" y="659"/>
    </contour>
  </outline>
</glyph>
<glyph name="eight" format="1">
  <advance width="490"/>
  <unicode hex="0038"/>
  <outline>
    <contour>
      <point x="468" y="513" type="curve" name="hr01" smooth="yes"/>
      <point x="468" y="667"/>
      <point x="376" y="714"/>
      <point x="262" y="714" type="curve" smooth="yes"/>
      <point x="215" y="714"/>
      <point x="173" y="713"/>
      <point x="131" y="695" type="curve" smooth="yes"/>
      <point x="61" y="664"/>
      <point x="27" y="572"/>
      <point x="27" y="496" type="curve" smooth="yes"/>
      <point x="27" y="448"/>
      <point x="43" y="389"/>
      <point x="80" y="352" type="curve"/>
      <point x="39" y="311"/>
      <point x="18" y="252"/>
      <point x="18" y="195" type="curve" smooth="yes"/>
      <point x="18" y="82"/>
      <point x="94" y="-19"/>
      <point x="243" y="-19" type="curve" smooth="yes"/>
      <point x="384" y="-19"/>
      <point x="463" y="65"/>
      <point x="463" y="185" type="curve" smooth="yes"/>
      <point x="463" y="252"/>
      <point x="444" y="306"/>
      <point x="393" y="345" type="curve"/>
      <point x="437" y="384"/>
      <point x="469" y="436"/>
      <point x="469" y="497" type="curve" smooth="yes"/>
      <point x="469" y="503"/>
      <point x="468" y="510"/>
    </contour>
    <contour>
      <point x="458" y="527" type="curve"/>
      <point x="458" y="489" type="line"/>
      <point x="455" y="483"/>
      <point x="447" y="439"/>
      <point x="446" y="437" type="curve" smooth="yes"/>
      <point x="435" y="402"/>
      <point x="411" y="373"/>
      <point x="383" y="350" type="curve"/>
      <point x="382" y="348"/>
      <point x="382" y="347"/>
      <point x="381" y="345" type="curve"/>
      <point x="427" y="299"/>
      <point x="454" y="260"/>
      <point x="454" y="185" type="curve" smooth="yes"/>
      <point x="454" y="72"/>
      <point x="379" y="-9"/>
      <point x="244" y="-9" type="curve" name="hr02" smooth="yes"/>
      <point x="128" y="-9"/>
      <point x="28" y="55"/>
      <point x="28" y="194" type="curve" smooth="yes"/>
      <point x="28" y="253"/>
      <point x="50" y="308"/>
      <point x="91" y="349" type="curve"/>
      <point x="91" y="355" type="line"/>
      <point x="55" y="390"/>
      <point x="38" y="445"/>
      <point x="38" y="501" type="curve" smooth="yes"/>
      <point x="38" y="620"/>
      <point x="101" y="706"/>
      <point x="248" y="706" type="curve" smooth="yes"/>
      <point x="347" y="706"/>
      <point x="419" y="677"/>
      <point x="444" y="599" type="curve"/>
      <point x="444" y="575"/>
      <point x="457" y="529"/>
    </contour>
    <contour>
      <point x="306" y="211" type="curve"/>
      <point x="306" y="214" type="line"/>
      <point x="307" y="216"/>
      <point x="307" y="219"/>
      <point x="307" y="221" type="curve" smooth="yes"/>
      <point x="307" y="259"/>
      <point x="278" y="281"/>
      <point x="242" y="281" type="curve" smooth="yes"/>
      <point x="211" y="281"/>
      <point x="180" y="263"/>
      <point x="180" y="222" type="curve" smooth="yes"/>
      <point x="180" y="183"/>
      <point x="213" y="166"/>
      <point x="245" y="166" type="curve" smooth="yes"/>
      <point x="275" y="166"/>
      <point x="304" y="181"/>
      <point x="304" y="208" type="curve"/>
      <point x="305" y="209"/>
      <point x="305" y="210"/>
    </contour>
    <contour>
      <point x="190" y="506" type="curve" name="hr03"/>
      <point x="190" y="500"/>
      <point x="189" y="496"/>
      <point x="189" y="491" type="curve" smooth="yes"/>
      <point x="189" y="455"/>
      <point x="213" y="432"/>
      <point x="243" y="432" type="curve" smooth="yes"/>
      <point x="271" y="432"/>
      <point x="296" y="454"/>
      <point x="296" y="482" type="curve" smooth="yes"/>
      <point x="296" y="510"/>
      <point x="274" y="538"/>
      <point x="245" y="538" type="curve" smooth="yes"/>
      <point x="234" y="538"/>
      <point x="192" y="525"/>
      <point x="192" y="508" type="curve" name="hr04"/>
      <point x="192" y="509" type="line"/>
      <point x="192" y="508"/>
      <point x="191" y="507"/>
    </contour>
    <contour>
      <point x="297" y="215" type="line" smooth="yes"/>
      <point x="293" y="209"/>
      <point x="290" y="199"/>
      <point x="285" y="189" type="curve"/>
      <point x="283" y="187" type="line"/>
      <point x="270" y="180"/>
      <point x="255" y="177"/>
      <point x="241" y="177" type="curve" smooth="yes"/>
      <point x="214" y="177"/>
      <point x="190" y="191"/>
      <point x="190" y="224" type="curve"/>
      <point x="197" y="244"/>
      <point x="204" y="265"/>
      <point x="227" y="272" type="curve"/>
      <point x="269" y="272"/>
      <point x="278" y="262"/>
      <point x="296" y="229" type="curve"/>
      <point x="296" y="227"/>
      <point x="296" y="226"/>
      <point x="297" y="225" type="curve"/>
      <point x="297" y="218" type="line"/>
      <point x="296" y="217"/>
      <point x="296" y="215"/>
      <point x="296" y="214" type="curve"/>
    </contour>
    <contour>
      <point x="202" y="507" type="line" smooth="yes"/>
      <point x="218" y="517"/>
      <point x="229" y="525"/>
      <point x="250" y="525" type="curve" smooth="yes"/>
      <point x="276" y="525"/>
      <point x="285" y="497"/>
      <point x="285" y="482" type="curve" smooth="yes"/>
      <point x="285" y="461"/>
      <point x="269" y="442"/>
      <point x="245" y="442" type="curve" smooth="yes"/>
      <point x="213" y="442"/>
      <point x="199" y="473"/>
      <point x="199" y="492" type="curve" smooth="yes"/>
      <point x="199" y="496"/>
      <point x="200" y="500"/>
      <point x="200" y="505" type="curve"/>
    </contour>
    <contour>
      <point x="191" y="508" type="line"/>
      <point x="192" y="508" type="line"/>
      <point x="191" y="507" type="line"/>
    </contour>
  </outline>
</glyph>
<glyph name="nine" format="1">
  <advance width="513"/>
  <unicode hex="0039"/>
  <outline>
    <contour>
      <point x="481" y="323" type="curve" name="hr01" smooth="yes"/>
      <point x="480" y="399"/>
      <point x="481" y="475"/>
      <point x="475" y="551" type="curve" smooth="yes"/>
      <point x="472" y="592"/>
      <point x="462" y="650"/>
      <point x="427" y="677" type="curve" smooth="yes"/>
      <point x="378" y="714"/>
      <point x="320" y="713"/>
      <point x="262" y="713" type="curve" smooth="yes"/>
      <point x="179" y="713"/>
      <point x="85" y="685"/>
      <point x="44" y="608" type="curve" smooth="yes"/>
      <point x="24" y="571"/>
      <point x="23" y="528"/>
      <point x="23" y="488" type="curve" smooth="yes"/>
      <point x="23" y="371"/>
      <point x="118" y="280"/>
      <point x="226" y="280" type="curve" smooth="yes"/>
      <point x="249" y="280"/>
      <point x="274" y="284"/>
      <point x="298" y="294" type="curve"/>
      <point x="298" y="253"/>
      <point x="299" y="197"/>
      <point x="253" y="182" type="curve"/>
      <point x="233" y="182" type="line"/>
      <point x="212" y="190"/>
      <point x="197" y="204"/>
      <point x="192" y="226" type="curve"/>
      <point x="185" y="233"/>
      <point x="156" y="232"/>
      <point x="144" y="232" type="curve" smooth="yes"/>
      <point x="106" y="232"/>
      <point x="68" y="227"/>
      <point x="30" y="227" type="curve"/>
      <point x="25" y="222"/>
      <point x="25" y="217"/>
      <point x="25" y="212" type="curve" smooth="yes"/>
      <point x="25" y="163"/>
      <point x="25" y="125"/>
      <point x="53" y="82" type="curve" smooth="yes"/>
      <point x="90" y="24"/>
      <point x="182" y="-9"/>
      <point x="268" y="-9" type="curve" smooth="yes"/>
      <point x="457" y="-9"/>
      <point x="482" y="133"/>
      <point x="482" y="246" type="curve" smooth="yes"/>
      <point x="482" y="272"/>
      <point x="481" y="298"/>
    </contour>
    <contour>
      <point x="471" y="322" type="curve" smooth="yes"/>
      <point x="471" y="298"/>
      <point x="472" y="272"/>
      <point x="472" y="246" type="curve" smooth="yes"/>
      <point x="472" y="136"/>
      <point x="451" y="0"/>
      <point x="271" y="0" type="curve" name="hr02" smooth="yes"/>
      <point x="145" y="0"/>
      <point x="33" y="63"/>
      <point x="33" y="184" type="curve" smooth="yes"/>
      <point x="33" y="195"/>
      <point x="33" y="206"/>
      <point x="35" y="217" type="curve"/>
      <point x="71" y="217"/>
      <point x="106" y="222"/>
      <point x="141" y="222" type="curve" smooth="yes"/>
      <point x="155" y="222"/>
      <point x="169" y="221"/>
      <point x="183" y="219" type="curve"/>
      <point x="189" y="192"/>
      <point x="219" y="170"/>
      <point x="247" y="170" type="curve" name="hr03" smooth="yes"/>
      <point x="307" y="170"/>
      <point x="308" y="261"/>
      <point x="308" y="300" type="curve" smooth="yes"/>
      <point x="308" y="301"/>
      <point x="307" y="302"/>
      <point x="307" y="303" type="curve"/>
      <point x="306" y="304" type="line" smooth="yes"/>
      <point x="304" y="305"/>
      <point x="302" y="305"/>
      <point x="300" y="306" type="curve"/>
      <point x="299" y="306"/>
      <point x="299" y="305"/>
      <point x="298" y="305" type="curve"/>
      <point x="298" y="307" type="line"/>
      <point x="298" y="305" type="line"/>
      <point x="276" y="296"/>
      <point x="252" y="291"/>
      <point x="228" y="291" type="curve" smooth="yes"/>
      <point x="111" y="291"/>
      <point x="33" y="376"/>
      <point x="33" y="509" type="curve" smooth="yes"/>
      <point x="33" y="566"/>
      <point x="48" y="613"/>
      <point x="90" y="650" type="curve" smooth="yes"/>
      <point x="148" y="702"/>
      <point x="234" y="703"/>
      <point x="307" y="703" type="curve" smooth="yes"/>
      <point x="410" y="703"/>
      <point x="457" y="653"/>
      <point x="465" y="550" type="curve" smooth="yes"/>
      <point x="471" y="475"/>
      <point x="470" y="398"/>
    </contour>
    <contour>
      <point x="327" y="480" type="curve"/>
      <point x="327" y="484" type="line"/>
      <point x="329" y="488"/>
      <point x="330" y="492"/>
      <point x="330" y="496" type="curve" smooth="yes"/>
      <point x="330" y="537"/>
      <point x="287" y="552"/>
      <point x="260" y="552" type="curve" smooth="yes"/>
      <point x="225" y="552"/>
      <point x="196" y="531"/>
      <point x="196" y="497" type="curve" smooth="yes"/>
      <point x="196" y="460"/>
      <point x="213" y="430"/>
      <point x="263" y="430" type="curve" smooth="yes"/>
      <point x="300" y="430"/>
      <point x="325" y="448"/>
      <point x="325" y="476" type="curve"/>
      <point x="326" y="477"/>
      <point x="326" y="479"/>
    </contour>
    <contour>
      <point x="318" y="484" type="line" name="hr04" smooth="yes"/>
      <point x="316" y="481"/>
      <point x="310" y="467"/>
      <point x="310" y="463" type="curve"/>
      <point x="302" y="447"/>
      <point x="281" y="438"/>
      <point x="261" y="438" type="curve" smooth="yes"/>
      <point x="223" y="438"/>
      <point x="205" y="466"/>
      <point x="205" y="505" type="curve" smooth="yes"/>
      <point x="205" y="531"/>
      <point x="240" y="545"/>
      <point x="259" y="545" type="curve" smooth="yes"/>
      <point x="289" y="545"/>
      <point x="318" y="524"/>
      <point x="318" y="488" type="curve"/>
      <point x="317" y="487"/>
      <point x="317" y="485"/>
      <point x="317" y="483" type="curve"/>
    </contour>
  </outline>
</glyph>
<glyph name="question" format="1">
  <advance width="451"/>
  <unicode hex="003F"/>
  <outline>
    <contour>
      <point x="139" y="238" type="curve" name="hr01"/>
      <point x="138" y="222"/>
      <point x="137" y="206"/>
      <point x="137" y="193" type="curve" smooth="yes"/>
      <point x="137" y="173"/>
      <point x="141" y="173"/>
      <point x="165" y="173" type="curve" smooth="yes"/>
      <point x="189" y="173"/>
      <point x="213" y="171"/>
      <point x="238" y="171" type="curve" smooth="yes"/>
      <point x="252" y="171"/>
      <point x="271" y="172"/>
      <point x="275" y="179" type="curve"/>
      <point x="275" y="181"/>
      <point x="275" y="182"/>
      <point x="274" y="183" type="curve"/>
      <point x="274" y="194" type="line"/>
      <point x="288" y="223"/>
      <point x="288" y="268"/>
      <point x="308" y="304" type="curve" smooth="yes"/>
      <point x="328" y="339"/>
      <point x="357" y="362"/>
      <point x="381" y="393" type="curve" smooth="yes"/>
      <point x="413" y="435"/>
      <point x="436" y="483"/>
      <point x="436" y="533" type="curve" name="hr02" smooth="yes"/>
      <point x="436" y="648"/>
      <point x="329" y="714"/>
      <point x="229" y="714" type="curve" smooth="yes"/>
      <point x="116" y="714"/>
      <point x="11" y="615"/>
      <point x="11" y="499" type="curve"/>
      <point x="19" y="491"/>
      <point x="71" y="488"/>
      <point x="107" y="488" type="curve" smooth="yes"/>
      <point x="176" y="488"/>
      <point x="162" y="536"/>
      <point x="203" y="552" type="curve"/>
      <point x="243" y="552"/>
      <point x="264" y="533"/>
      <point x="264" y="506" type="curve" smooth="yes"/>
      <point x="264" y="469"/>
      <point x="227" y="430"/>
      <point x="203" y="396" type="curve" smooth="yes"/>
      <point x="166" y="343"/>
      <point x="148" y="302"/>
    </contour>
    <contour>
      <point x="149" y="235" type="line" smooth="yes"/>
      <point x="156" y="284"/>
      <point x="166" y="319"/>
      <point x="194" y="366" type="curve" smooth="yes"/>
      <point x="214" y="400"/>
      <point x="275" y="460"/>
      <point x="275" y="506" type="curve" name="hr03" smooth="yes"/>
      <point x="275" y="527"/>
      <point x="254" y="562"/>
      <point x="202" y="562" type="curve" smooth="yes"/>
      <point x="171" y="562"/>
      <point x="163" y="514"/>
      <point x="141" y="502" type="curve" smooth="yes"/>
      <point x="134" y="498"/>
      <point x="122" y="497"/>
      <point x="108" y="497" type="curve" smooth="yes"/>
      <point x="79" y="497"/>
      <point x="41" y="503"/>
      <point x="21" y="503" type="curve"/>
      <point x="21" y="607"/>
      <point x="123" y="703"/>
      <point x="230" y="703" type="curve" smooth="yes"/>
      <point x="323" y="703"/>
      <point x="426" y="641"/>
      <point x="426" y="533" type="curve" smooth="yes"/>
      <point x="426" y="484"/>
      <point x="403" y="440"/>
      <point x="373" y="399" type="curve" smooth="yes"/>
      <point x="357" y="377"/>
      <point x="334" y="360"/>
      <point x="319" y="338" type="curve" smooth="yes"/>
      <point x="290" y="297"/>
      <point x="263" y="236"/>
      <point x="263" y="189" type="curve" smooth="yes"/>
      <point x="263" y="187"/>
      <point x="263" y="185"/>
      <point x="264" y="183" type="curve" name="hr04"/>
      <point x="252" y="181"/>
      <point x="240" y="181"/>
      <point x="228" y="181" type="curve" smooth="yes"/>
      <point x="201" y="181"/>
      <point x="174" y="182"/>
      <point x="147" y="182" type="curve"/>
      <point x="146" y="186"/>
      <point x="145" y="191"/>
      <point x="145" y="197" type="curve" smooth="yes"/>
      <point x="145" y="212"/>
      <point x="149" y="230"/>
      <point x="149" y="237" type="curve" smooth="yes"/>
    </contour>
    <contour>
      <point x="146" y="-4" type="line" smooth="yes"/>
      <point x="184" y="-4"/>
      <point x="222" y="-5"/>
      <point x="261" y="-5" type="curve" name="hr05"/>
      <point x="262" y="-3"/>
      <point x="264" y="-2"/>
      <point x="266" y="0" type="curve"/>
      <point x="266" y="38"/>
      <point x="266" y="80"/>
      <point x="272" y="117" type="curve"/>
      <point x="265" y="130"/>
      <point x="237" y="132"/>
      <point x="210" y="132" type="curve" smooth="yes"/>
      <point x="182" y="132"/>
      <point x="153" y="128"/>
      <point x="140" y="122" type="curve" name="hr06"/>
      <point x="137" y="116" type="line"/>
      <point x="137" y="96"/>
      <point x="133" y="65"/>
      <point x="133" y="38" type="curve" smooth="yes"/>
      <point x="133" y="22"/>
      <point x="134" y="0"/>
      <point x="143" y="-4" type="curve"/>
    </contour>
    <contour>
      <point x="146" y="6" type="curve"/>
      <point x="143" y="14"/>
      <point x="142" y="24"/>
      <point x="142" y="36" type="curve" smooth="yes"/>
      <point x="142" y="62"/>
      <point x="147" y="93"/>
      <point x="147" y="114" type="curve"/>
      <point x="167" y="118"/>
      <point x="192" y="122"/>
      <point x="216" y="122" type="curve" smooth="yes"/>
      <point x="232" y="122"/>
      <point x="247" y="120"/>
      <point x="261" y="116" type="curve"/>
      <point x="255" y="80"/>
      <point x="256" y="41"/>
      <point x="256" y="5" type="curve"/>
      <point x="219" y="5"/>
      <point x="182" y="6"/>
    </contour>
  </outline>
</glyph>
<glyph name="at" format="1">
  <advance width="564"/>
  <unicode hex="0040"/>
  <outline>
    <contour>
      <point x="398" y="466" type="line" name="hr01" smooth="yes"/>
      <point x="381" y="477"/>
      <point x="361" y="484"/>
      <point x="333" y="484" type="curve" smooth="yes"/>
      <point x="226" y="484"/>
      <point x="159" y="403"/>
      <point x="159" y="299" type="curve" smooth="yes"/>
      <point x="159" y="201"/>
      <point x="208" y="156"/>
      <point x="276" y="156" type="curve" smooth="yes"/>
      <point x="304" y="156"/>
      <point x="333" y="164"/>
      <point x="357" y="179" type="curve"/>
      <point x="371" y="157"/>
      <point x="394" y="147"/>
      <point x="420" y="147" type="curve" name="hr02" smooth="yes"/>
      <point x="550" y="147"/>
      <point x="540" y="284"/>
      <point x="540" y="387" type="curve" smooth="yes"/>
      <point x="540" y="510"/>
      <point x="519" y="664"/>
      <point x="283" y="664" type="curve" smooth="yes"/>
      <point x="40" y="664"/>
      <point x="28" y="514"/>
      <point x="28" y="377" type="curve" name="hr03" smooth="yes"/>
      <point x="28" y="254"/>
      <point x="18" y="37"/>
      <point x="168" y="-12" type="curve" name="hr04" smooth="yes"/>
      <point x="214" y="-27"/>
      <point x="258" y="-28"/>
      <point x="309" y="-28" type="curve" smooth="yes"/>
      <point x="383" y="-28"/>
      <point x="462" y="-10"/>
      <point x="534" y="38" type="curve"/>
      <point x="534" y="40"/>
      <point x="535" y="42"/>
      <point x="536" y="44" type="curve"/>
      <point x="525" y="66"/>
      <point x="507" y="121"/>
      <point x="491" y="129" type="curve"/>
      <point x="425" y="90"/>
      <point x="344" y="74"/>
      <point x="277" y="74" type="curve" smooth="yes"/>
      <point x="147" y="74"/>
      <point x="139" y="178"/>
      <point x="133" y="264" type="curve" name="hr05" smooth="yes"/>
      <point x="131" y="285"/>
      <point x="129" y="315"/>
      <point x="129" y="347" type="curve" smooth="yes"/>
      <point x="129" y="425"/>
      <point x="141" y="520"/>
      <point x="195" y="551" type="curve" smooth="yes"/>
      <point x="225" y="568"/>
      <point x="256" y="568"/>
      <point x="289" y="568" type="curve"/>
      <point x="314" y="560"/>
      <point x="342" y="562"/>
      <point x="366" y="551" type="curve"/>
      <point x="366" y="550" type="line"/>
      <point x="415" y="526"/>
      <point x="434" y="459"/>
      <point x="434" y="408" type="curve" smooth="yes"/>
      <point x="434" y="401"/>
      <point x="433" y="390"/>
      <point x="433" y="380" type="curve" smooth="yes"/>
      <point x="433" y="374"/>
      <point x="433" y="369"/>
      <point x="435" y="365" type="curve"/>
      <point x="435" y="312" type="line"/>
      <point x="428" y="299"/>
      <point x="433" y="264"/>
      <point x="422" y="243" type="curve"/>
      <point x="405" y="253"/>
      <point x="407" y="307"/>
      <point x="407" y="332" type="curve" smooth="yes"/>
      <point x="407" y="365"/>
      <point x="412" y="398"/>
      <point x="412" y="430" type="curve" smooth="yes"/>
      <point x="412" y="443"/>
      <point x="405" y="457"/>
      <point x="399" y="465" type="curve" smooth="yes"/>
    </contour>
    <contour>
      <point x="392" y="458" type="curve"/>
      <point x="400" y="448"/>
      <point x="400" y="435"/>
      <point x="400" y="422" type="curve" name="hr06"/>
      <point x="397" y="417"/>
      <point x="397" y="410"/>
      <point x="397" y="401" type="curve" smooth="yes"/>
      <point x="397" y="391"/>
      <point x="398" y="379"/>
      <point x="398" y="372" type="curve" smooth="yes"/>
      <point x="398" y="356"/>
      <point x="396" y="335"/>
      <point x="396" y="316" type="curve" smooth="yes"/>
      <point x="396" y="294"/>
      <point x="399" y="232"/>
      <point x="424" y="232" type="curve"/>
      <point x="447" y="255"/>
      <point x="448" y="309"/>
      <point x="448" y="338" type="curve" smooth="yes"/>
      <point x="448" y="351"/>
      <point x="446" y="364"/>
      <point x="444" y="369" type="curve"/>
      <point x="444" y="436"/>
      <point x="440" y="525"/>
      <point x="370" y="559" type="curve"/>
      <point x="370" y="560" type="line"/>
      <point x="340" y="573"/>
      <point x="300" y="580"/>
      <point x="270" y="580" type="curve" smooth="yes"/>
      <point x="128" y="580"/>
      <point x="120" y="448"/>
      <point x="120" y="349" type="curve" smooth="yes"/>
      <point x="120" y="229"/>
      <point x="115" y="64"/>
      <point x="272" y="64" type="curve" smooth="yes"/>
      <point x="337" y="64"/>
      <point x="422" y="78"/>
      <point x="491" y="117" type="curve"/>
      <point x="502" y="93"/>
      <point x="513" y="68"/>
      <point x="525" y="44" type="curve"/>
      <point x="466" y="5"/>
      <point x="378" y="-20"/>
      <point x="293" y="-20" type="curve" smooth="yes"/>
      <point x="213" y="-20"/>
      <point x="137" y="2"/>
      <point x="92" y="58" type="curve" smooth="yes"/>
      <point x="43" y="119"/>
      <point x="36" y="231"/>
      <point x="36" y="312" type="curve" smooth="yes"/>
      <point x="36" y="468"/>
      <point x="19" y="655"/>
      <point x="285" y="655" type="curve" smooth="yes"/>
      <point x="378" y="655"/>
      <point x="446" y="630"/>
      <point x="490" y="573" type="curve"/>
      <point x="521" y="528"/>
      <point x="530" y="438"/>
      <point x="530" y="359" type="curve" smooth="yes"/>
      <point x="530" y="232"/>
      <point x="518" y="158"/>
      <point x="421" y="158" type="curve" smooth="yes"/>
      <point x="397" y="158"/>
      <point x="375" y="167"/>
      <point x="364" y="189" type="curve"/>
      <point x="361" y="189"/>
      <point x="358" y="190"/>
      <point x="356" y="191" type="curve"/>
      <point x="333" y="175"/>
      <point x="304" y="166"/>
      <point x="276" y="166" type="curve" smooth="yes"/>
      <point x="209" y="166"/>
      <point x="168" y="209"/>
      <point x="168" y="302" type="curve" smooth="yes"/>
      <point x="168" y="380"/>
      <point x="214" y="474"/>
      <point x="334" y="474" type="curve" smooth="yes"/>
      <point x="354" y="474"/>
      <point x="375" y="469"/>
    </contour>
    <contour>
      <point x="244" y="285" type="line" name="hr07" smooth="yes"/>
      <point x="244" y="262"/>
      <point x="261" y="250"/>
      <point x="279" y="250" type="curve" smooth="yes"/>
      <point x="332" y="250"/>
      <point x="327" y="345"/>
      <point x="327" y="360" type="curve" smooth="yes"/>
      <point x="327" y="366"/>
      <point x="326" y="373"/>
      <point x="328" y="379" type="curve"/>
      <point x="326" y="382"/>
      <point x="325" y="384"/>
      <point x="324" y="387" type="curve"/>
      <point x="252" y="387"/>
      <point x="244" y="355"/>
      <point x="244" y="287" type="curve" smooth="yes"/>
    </contour>
    <contour>
      <point x="254" y="286" type="line" name="hr08" smooth="yes"/>
      <point x="254" y="338"/>
      <point x="257" y="377"/>
      <point x="317" y="377" type="curve"/>
      <point x="317" y="360"/>
      <point x="311" y="344"/>
      <point x="311" y="328" type="curve" smooth="yes"/>
      <point x="311" y="319"/>
      <point x="313" y="310"/>
      <point x="313" y="301" type="curve" smooth="yes"/>
      <point x="313" y="284"/>
      <point x="308" y="268"/>
      <point x="281" y="259" type="curve"/>
      <point x="274" y="259" type="line"/>
      <point x="261" y="263"/>
      <point x="257" y="269"/>
      <point x="254" y="280" type="curve"/>
    </contour>
  </outline>
</glyph>
<glyph name="C" format="1">
  <advance width="488"/>
  <unicode hex="0043"/>
  <outline>
    <contour>
      <point x="197" y="539" type="curve" name="hr01"/>
      <point x="210" y="552"/>
      <point x="228" y="548"/>
      <point x="244" y="553" type="curve"/>
      <point x="319" y="553"/>
      <point x="296" y="472"/>
      <point x="308" y="424" type="curve"/>
      <point x="333" y="412"/>
      <point x="375" y="409"/>
      <point x="405" y="409" type="curve" name="hr02" smooth="yes"/>
      <point x="421" y="409"/>
      <point x="454" y="409"/>
      <point x="464" y="419" type="curve" name="hr03"/>
      <point x="472" y="442"/>
      <point x="475" y="466"/>
      <point x="475" y="489" type="curve" smooth="yes"/>
      <point x="475" y="618"/>
      <point x="363" y="733"/>
      <point x="232" y="733" type="curve" smooth="yes"/>
      <point x="121" y="733"/>
      <point x="74" y="692"/>
      <point x="40" y="606" type="curve" smooth="yes"/>
      <point x="33" y="589"/>
      <point x="26" y="571"/>
      <point x="26" y="552" type="curve" smooth="yes"/>
      <point x="26" y="546"/>
      <point x="26" y="541"/>
      <point x="28" y="536" type="curve"/>
      <point x="28" y="489"/>
      <point x="26" y="442"/>
      <point x="26" y="395" type="curve" smooth="yes"/>
      <point x="26" y="285" type="line" smooth="yes"/>
      <point x="26" y="255"/>
      <point x="27" y="225"/>
      <point x="28" y="196" type="curve" smooth="yes"/>
      <point x="29" y="139"/>
      <point x="26" y="81"/>
      <point x="68" y="37" type="curve" smooth="yes"/>
      <point x="108" y="-5"/>
      <point x="169" y="-18"/>
      <point x="226" y="-18" type="curve" smooth="yes"/>
      <point x="385" y="-18"/>
      <point x="473" y="85"/>
      <point x="473" y="211" type="curve" smooth="yes"/>
      <point x="473" y="231"/>
      <point x="472" y="271"/>
      <point x="459" y="285" type="curve"/>
      <point x="440" y="292"/>
      <point x="408" y="293"/>
      <point x="394" y="293" type="curve" smooth="yes"/>
      <point x="377" y="293"/>
      <point x="360" y="288"/>
      <point x="344" y="288" type="curve" smooth="yes"/>
      <point x="338" y="288"/>
      <point x="331" y="289"/>
      <point x="325" y="291" type="curve"/>
      <point x="309" y="283"/>
      <point x="320" y="209"/>
      <point x="305" y="185" type="curve" smooth="yes"/>
      <point x="293" y="166"/>
      <point x="272" y="156"/>
      <point x="252" y="156" type="curve" smooth="yes"/>
      <point x="190" y="156"/>
      <point x="182" y="249"/>
      <point x="182" y="307" type="curve" smooth="yes"/>
      <point x="182" y="345"/>
      <point x="186" y="383"/>
      <point x="186" y="418" type="curve" smooth="yes"/>
      <point x="186" y="433"/>
      <point x="184" y="454"/>
      <point x="184" y="474" type="curve" smooth="yes"/>
      <point x="184" y="493"/>
      <point x="186" y="512"/>
      <point x="190" y="525" type="curve" smooth="yes"/>
      <point x="191" y="526" type="line"/>
      <point x="191" y="527"/>
      <point x="192" y="528"/>
      <point x="192" y="529" type="curve"/>
      <point x="192" y="528" type="line"/>
      <point x="193" y="532"/>
      <point x="195" y="535"/>
    </contour>
    <contour>
      <point x="189" y="544" type="line" smooth="yes"/>
      <point x="179" y="531"/>
      <point x="175" y="505"/>
      <point x="175" y="463" type="curve" smooth="yes"/>
      <point x="175" y="442"/>
      <point x="176" y="423"/>
      <point x="176" y="419" type="curve" smooth="yes"/>
      <point x="175" y="394"/>
      <point x="173" y="356"/>
      <point x="173" y="316" type="curve" smooth="yes"/>
      <point x="173" y="221"/>
      <point x="191" y="146"/>
      <point x="256" y="146" type="curve" smooth="yes"/>
      <point x="282" y="146"/>
      <point x="309" y="162"/>
      <point x="320" y="194" type="curve" smooth="yes"/>
      <point x="329" y="222"/>
      <point x="322" y="251"/>
      <point x="328" y="280" type="curve"/>
      <point x="335" y="279"/>
      <point x="342" y="279"/>
      <point x="350" y="279" type="curve" smooth="yes"/>
      <point x="369" y="279"/>
      <point x="389" y="281"/>
      <point x="408" y="281" type="curve"/>
      <point x="421" y="276"/>
      <point x="437" y="281"/>
      <point x="454" y="276" type="curve"/>
      <point x="460" y="255"/>
      <point x="463" y="232"/>
      <point x="463" y="210" type="curve" smooth="yes"/>
      <point x="463" y="84"/>
      <point x="375" y="-8"/>
      <point x="224" y="-8" type="curve" name="hr04" smooth="yes"/>
      <point x="171" y="-8"/>
      <point x="112" y="4"/>
      <point x="75" y="44" type="curve" smooth="yes"/>
      <point x="35" y="86"/>
      <point x="39" y="143"/>
      <point x="38" y="197" type="curve" smooth="yes"/>
      <point x="37" y="258"/>
      <point x="35" y="318"/>
      <point x="35" y="379" type="curve" smooth="yes"/>
      <point x="35" y="423"/>
      <point x="40" y="427"/>
      <point x="40" y="513" type="curve" smooth="yes"/>
      <point x="40" y="524"/>
      <point x="39" y="534"/>
      <point x="37" y="541" type="curve"/>
      <point x="37" y="656"/>
      <point x="121" y="722"/>
      <point x="221" y="722" type="curve" smooth="yes"/>
      <point x="355" y="722"/>
      <point x="466" y="614"/>
      <point x="466" y="492" type="curve" smooth="yes"/>
      <point x="466" y="470"/>
      <point x="462" y="447"/>
      <point x="455" y="425" type="curve"/>
      <point x="439" y="420"/>
      <point x="422" y="419"/>
      <point x="405" y="419" type="curve" smooth="yes"/>
      <point x="375" y="419"/>
      <point x="345" y="424"/>
      <point x="317" y="429" type="curve"/>
      <point x="309" y="470"/>
      <point x="327" y="564"/>
      <point x="239" y="564" type="curve" name="hr05" smooth="yes"/>
      <point x="220" y="564"/>
      <point x="202" y="558"/>
      <point x="190" y="546" type="curve" smooth="yes"/>
    </contour>
  </outline>
</glyph>
<glyph name="D" format="1">
  <advance width="482"/>
  <unicode hex="0044"/>
  <outline>
    <contour>
      <point x="397" y="620" type="curve" name="hr01"/>
      <point x="330" y="721"/>
      <point x="264" y="707"/>
      <point x="153" y="707" type="curve" smooth="yes"/>
      <point x="119" y="707"/>
      <point x="38" y="706"/>
      <point x="36" y="689" type="curve"/>
      <point x="36" y="689"/>
      <point x="36" y="690"/>
      <point x="37" y="690" type="curve" smooth="yes"/>
      <point x="36" y="689"/>
      <point x="35" y="687"/>
      <point x="35" y="686" type="curve" smooth="yes"/>
      <point x="35" y="657"/>
      <point x="36" y="629"/>
      <point x="36" y="600" type="curve" smooth="yes"/>
      <point x="36" y="514"/>
      <point x="34" y="428"/>
      <point x="34" y="342" type="curve" smooth="yes"/>
      <point x="34" y="228"/>
      <point x="37" y="114"/>
      <point x="51" y="0" type="curve"/>
      <point x="53" y="0"/>
      <point x="54" y="0"/>
      <point x="56" y="-1" type="curve" name="hr02"/>
      <point x="57" y="-1" type="line"/>
      <point x="49" y="-2"/>
      <point x="42" y="-2"/>
      <point x="35" y="-3" type="curve" name="hr03"/>
      <point x="58" y="-3" type="line"/>
      <point x="59" y="-5"/>
      <point x="60" y="-7"/>
      <point x="62" y="-10" type="curve" name="hr04" smooth="yes"/>
      <point x="61" y="-7"/>
      <point x="61" y="-5"/>
      <point x="61" y="-3" type="curve" name="hr05"/>
      <point x="104" y="-3"/>
      <point x="147" y="-4"/>
      <point x="190" y="-4" type="curve" name="hr06" smooth="yes"/>
      <point x="234" y="-4"/>
      <point x="277" y="-3"/>
      <point x="321" y="0" type="curve" name="hr07"/>
      <point x="366" y="45"/>
      <point x="407" y="110"/>
      <point x="433" y="168" type="curve" smooth="yes"/>
      <point x="438" y="179"/>
      <point x="451" y="203"/>
      <point x="452" y="217" type="curve"/>
      <point x="453" y="218" type="line"/>
      <point x="453" y="245"/>
      <point x="462" y="274"/>
      <point x="463" y="302" type="curve" smooth="yes"/>
      <point x="464" y="332"/>
      <point x="465" y="358"/>
      <point x="465" y="381" type="curve" name="hr08" smooth="yes"/>
      <point x="465" y="466"/>
      <point x="453" y="520"/>
    </contour>
    <contour>
      <point x="389" y="615" type="curve"/>
      <point x="444" y="518"/>
      <point x="455" y="465"/>
      <point x="455" y="384" type="curve" smooth="yes"/>
      <point x="455" y="360"/>
      <point x="454" y="334"/>
      <point x="453" y="303" type="curve" name="hr09" smooth="yes"/>
      <point x="452" y="275"/>
      <point x="443" y="246"/>
      <point x="443" y="219" type="curve"/>
      <point x="444" y="219" type="line"/>
      <point x="443" y="219"/>
      <point x="443" y="218"/>
      <point x="442" y="217" type="curve"/>
      <point x="442" y="218" type="line"/>
      <point x="417" y="141"/>
      <point x="367" y="73"/>
      <point x="317" y="10" type="curve"/>
      <point x="277" y="7"/>
      <point x="237" y="6"/>
      <point x="197" y="6" type="curve" smooth="yes"/>
      <point x="151" y="6"/>
      <point x="105" y="7"/>
      <point x="60" y="7" type="curve"/>
      <point x="47" y="119"/>
      <point x="44" y="232"/>
      <point x="44" y="345" type="curve" smooth="yes"/>
      <point x="44" y="428"/>
      <point x="46" y="511"/>
      <point x="46" y="594" type="curve" smooth="yes"/>
      <point x="46" y="624"/>
      <point x="45" y="655"/>
      <point x="45" y="685" type="curve"/>
      <point x="45" y="686" type="line"/>
      <point x="124" y="702"/>
      <point x="203" y="691"/>
      <point x="283" y="696" type="curve"/>
      <point x="327" y="681"/>
      <point x="363" y="653"/>
    </contour>
    <contour>
      <point x="305" y="251" type="line" smooth="yes"/>
      <point x="321" y="278"/>
      <point x="334" y="308"/>
      <point x="334" y="340" type="curve" name="hr10" smooth="yes"/>
      <point x="334" y="399"/>
      <point x="312" y="494"/>
      <point x="237" y="494" type="curve" smooth="yes"/>
      <point x="218" y="494"/>
      <point x="186" y="493"/>
      <point x="177" y="484" type="curve"/>
      <point x="177" y="291" type="line" smooth="yes"/>
      <point x="177" y="276"/>
      <point x="175" y="261"/>
      <point x="175" y="248" type="curve" smooth="yes"/>
      <point x="175" y="225"/>
      <point x="181" y="208"/>
      <point x="214" y="208" type="curve" smooth="yes"/>
      <point x="226" y="208"/>
      <point x="239" y="208"/>
      <point x="251" y="211" type="curve"/>
      <point x="252" y="210"/>
      <point x="254" y="210"/>
      <point x="255" y="210" type="curve" smooth="yes"/>
      <point x="271" y="210"/>
      <point x="297" y="235"/>
      <point x="306" y="252" type="curve" smooth="yes"/>
    </contour>
    <contour>
      <point x="297" y="256" type="curve" smooth="yes"/>
      <point x="291" y="245"/>
      <point x="262" y="220"/>
      <point x="256" y="220" type="curve"/>
      <point x="255" y="220" type="line"/>
      <point x="253" y="221"/>
      <point x="251" y="221"/>
      <point x="247" y="221" type="curve" smooth="yes"/>
      <point x="234" y="221"/>
      <point x="211" y="218"/>
      <point x="204" y="218" type="curve"/>
      <point x="180" y="224"/>
      <point x="185" y="260"/>
      <point x="185" y="283" type="curve" smooth="yes"/>
      <point x="185" y="323"/>
      <point x="189" y="364"/>
      <point x="189" y="404" type="curve" name="hr11" smooth="yes"/>
      <point x="189" y="429"/>
      <point x="187" y="454"/>
      <point x="187" y="480" type="curve"/>
      <point x="202" y="481"/>
      <point x="220" y="485"/>
      <point x="236" y="485" type="curve" smooth="yes"/>
      <point x="295" y="485"/>
      <point x="324" y="403"/>
      <point x="324" y="348" type="curve" smooth="yes"/>
      <point x="324" y="314"/>
      <point x="314" y="284"/>
    </contour>
  </outline>
</glyph>
<glyph name="F" format="1">
  <advance width="494"/>
  <unicode hex="0046"/>
  <outline>
    <contour>
      <point x="355" y="256" type="line" name="hr01"/>
      <point x="361" y="262"/>
      <point x="361" y="261"/>
      <point x="361" y="272" type="curve" smooth="yes"/>
      <point x="361" y="285"/>
      <point x="359" y="304"/>
      <point x="359" y="306" type="curve" smooth="yes"/>
      <point x="359" y="327"/>
      <point x="363" y="362"/>
      <point x="363" y="391" type="curve" smooth="yes"/>
      <point x="363" y="411"/>
      <point x="362" y="422"/>
      <point x="353" y="432" type="curve"/>
      <point x="336" y="429"/>
      <point x="308" y="426"/>
      <point x="282" y="426" type="curve" smooth="yes"/>
      <point x="238" y="426"/>
      <point x="218" y="427"/>
      <point x="218" y="470" type="curve" name="hr02" smooth="yes"/>
      <point x="218" y="485"/>
      <point x="222" y="501"/>
      <point x="227" y="514" type="curve"/>
      <point x="294" y="524"/>
      <point x="370" y="525"/>
      <point x="438" y="525" type="curve" smooth="yes"/>
      <point x="442" y="525"/>
      <point x="448" y="525"/>
      <point x="453" y="525" type="curve" smooth="yes"/>
      <point x="471" y="525"/>
      <point x="491" y="526"/>
      <point x="495" y="534" type="curve"/>
      <point x="495" y="544" type="line"/>
      <point x="498" y="552"/>
      <point x="498" y="566"/>
      <point x="498" y="583" type="curve" smooth="yes"/>
      <point x="498" y="619"/>
      <point x="497" y="674"/>
      <point x="491" y="687" type="curve"/>
      <point x="434" y="700"/>
      <point x="374" y="704"/>
      <point x="315" y="704" type="curve" smooth="yes"/>
      <point x="264" y="704"/>
      <point x="213" y="701"/>
      <point x="164" y="697" type="curve" smooth="yes"/>
      <point x="125" y="694"/>
      <point x="78" y="697"/>
      <point x="41" y="685" type="curve"/>
      <point x="38" y="679" type="line"/>
      <point x="38" y="538" type="line" smooth="yes"/>
      <point x="38" y="447"/>
      <point x="35" y="357"/>
      <point x="35" y="267" type="curve" smooth="yes"/>
      <point x="35" y="179"/>
      <point x="36" y="91"/>
      <point x="36" y="3" type="curve"/>
      <point x="41" y="-7"/>
      <point x="48" y="-8"/>
      <point x="61" y="-8" type="curve" smooth="yes"/>
      <point x="70" y="-8"/>
      <point x="78" y="-7"/>
      <point x="84" y="-7" type="curve" name="hr03" smooth="yes"/>
      <point x="111" y="-9"/>
      <point x="127" y="-8"/>
      <point x="165" y="-8" type="curve" name="hr04" smooth="yes"/>
      <point x="189" y="-8"/>
      <point x="217" y="-7"/>
      <point x="221" y="1" type="curve"/>
      <point x="221" y="81"/>
      <point x="223" y="161"/>
      <point x="229" y="241" type="curve"/>
      <point x="270" y="245"/>
      <point x="314" y="249"/>
      <point x="354" y="256" type="curve"/>
    </contour>
    <contour>
      <point x="262" y="256" type="curve" smooth="yes"/>
      <point x="251" y="255"/>
      <point x="240" y="252"/>
      <point x="230" y="251" type="curve"/>
      <point x="230" y="254" type="line"/>
      <point x="229" y="253"/>
      <point x="229" y="252"/>
      <point x="228" y="251" type="curve"/>
      <point x="224" y="251" type="line"/>
      <point x="222" y="250"/>
      <point x="221" y="248"/>
      <point x="219" y="247" type="curve"/>
      <point x="213" y="167"/>
      <point x="211" y="86"/>
      <point x="211" y="5" type="curve"/>
      <point x="182" y="2"/>
      <point x="151" y="0"/>
      <point x="121" y="0" type="curve" name="hr05" smooth="yes"/>
      <point x="96" y="0"/>
      <point x="70" y="2"/>
      <point x="46" y="5" type="curve"/>
      <point x="46" y="228"/>
      <point x="48" y="452"/>
      <point x="48" y="676" type="curve"/>
      <point x="125" y="686"/>
      <point x="215" y="695"/>
      <point x="303" y="695" type="curve" smooth="yes"/>
      <point x="367" y="695"/>
      <point x="430" y="690"/>
      <point x="485" y="678" type="curve"/>
      <point x="485" y="635"/>
      <point x="486" y="592"/>
      <point x="486" y="549" type="curve"/>
      <point x="485" y="545"/>
      <point x="485" y="542"/>
      <point x="485" y="538" type="curve"/>
      <point x="467" y="534"/>
      <point x="447" y="536"/>
      <point x="429" y="535" type="curve" smooth="yes"/>
      <point x="361" y="531"/>
      <point x="290" y="533"/>
      <point x="223" y="523" type="curve"/>
      <point x="213" y="518"/>
      <point x="208" y="485"/>
      <point x="208" y="467" type="curve" smooth="yes"/>
      <point x="208" y="418"/>
      <point x="233" y="416"/>
      <point x="282" y="416" type="curve" smooth="yes"/>
      <point x="306" y="416"/>
      <point x="331" y="418"/>
      <point x="349" y="421" type="curve"/>
      <point x="352" y="413"/>
      <point x="353" y="402"/>
      <point x="353" y="389" type="curve" smooth="yes"/>
      <point x="353" y="360"/>
      <point x="347" y="322"/>
      <point x="347" y="293" type="curve" smooth="yes"/>
      <point x="347" y="282"/>
      <point x="348" y="273"/>
      <point x="350" y="265" type="curve"/>
      <point x="320" y="261"/>
      <point x="291" y="259"/>
    </contour>
  </outline>
</glyph>
<glyph name="I" format="1">
  <advance width="260"/>
  <unicode hex="0049"/>
  <outline>
    <contour>
      <point x="222" y="708" type="line" name="hr01"/>
      <point x="201" y="708"/>
      <point x="180" y="707"/>
      <point x="160" y="707" type="curve" smooth="yes"/>
      <point x="122" y="707"/>
      <point x="84" y="713"/>
      <point x="47" y="713" type="curve"/>
      <point x="38" y="704"/>
      <point x="36" y="645"/>
      <point x="35" y="622" type="curve" smooth="yes"/>
      <point x="33" y="588"/>
      <point x="32" y="555"/>
      <point x="32" y="521" type="curve" smooth="yes"/>
      <point x="32" y="402"/>
      <point x="38" y="284"/>
      <point x="38" y="167" type="curve" smooth="yes"/>
      <point x="38" y="110"/>
      <point x="37" y="54"/>
      <point x="34" y="-3" type="curve"/>
      <point x="43" y="-7" type="line"/>
      <point x="48" y="-5"/>
      <point x="55" y="-4"/>
      <point x="65" y="-4" type="curve" smooth="yes"/>
      <point x="92" y="-4"/>
      <point x="133" y="-11"/>
      <point x="168" y="-11" type="curve" name="hr02" smooth="yes"/>
      <point x="194" y="-11"/>
      <point x="213" y="-8"/>
      <point x="226" y="5" type="curve"/>
      <point x="221" y="79"/>
      <point x="220" y="153"/>
      <point x="220" y="227" type="curve" smooth="yes"/>
      <point x="220" y="386"/>
      <point x="227" y="544"/>
      <point x="227" y="703" type="curve"/>
    </contour>
    <contour>
      <point x="216" y="7" type="curve"/>
      <point x="202" y="7"/>
      <point x="184" y="0"/>
      <point x="164" y="0" type="curve" name="hr03" smooth="yes"/>
      <point x="132" y="0"/>
      <point x="96" y="4"/>
      <point x="69" y="4" type="curve" smooth="yes"/>
      <point x="59" y="4"/>
      <point x="51" y="3"/>
      <point x="44" y="2" type="curve"/>
      <point x="47" y="71"/>
      <point x="49" y="139"/>
      <point x="49" y="207" type="curve" smooth="yes"/>
      <point x="49" y="314"/>
      <point x="43" y="420"/>
      <point x="43" y="527" type="curve" smooth="yes"/>
      <point x="43" y="586"/>
      <point x="45" y="644"/>
      <point x="52" y="703" type="curve"/>
      <point x="88" y="703"/>
      <point x="123" y="697"/>
      <point x="159" y="697" type="curve" smooth="yes"/>
      <point x="178" y="697"/>
      <point x="197" y="698"/>
      <point x="217" y="698" type="curve"/>
      <point x="217" y="540"/>
      <point x="210" y="383"/>
      <point x="210" y="226" type="curve" smooth="yes"/>
      <point x="210" y="153"/>
      <point x="211" y="80"/>
    </contour>
  </outline>
</glyph>
<glyph name="N" format="1">
  <advance width="498"/>
  <unicode hex="004E"/>
  <outline>
    <contour>
      <point x="424" y="-10" type="curve" name="hr01" smooth="yes"/>
      <point x="436" y="-10"/>
      <point x="445" y="-10"/>
      <point x="456" y="-5" type="curve" name="hr02"/>
      <point x="457" y="-5" type="line"/>
      <point x="458" y="-3"/>
      <point x="460" y="-2"/>
      <point x="462" y="0" type="curve" name="hr03"/>
      <point x="462" y="235"/>
      <point x="461" y="469"/>
      <point x="461" y="704" type="curve"/>
      <point x="455" y="715"/>
      <point x="406" y="715"/>
      <point x="390" y="715" type="curve" smooth="yes"/>
      <point x="366" y="715"/>
      <point x="334" y="715"/>
      <point x="313" y="705" type="curve"/>
      <point x="311" y="687"/>
      <point x="310" y="668"/>
      <point x="310" y="650" type="curve" smooth="yes"/>
      <point x="310" y="599"/>
      <point x="315" y="549"/>
      <point x="315" y="498" type="curve" smooth="yes"/>
      <point x="315" y="474"/>
      <point x="314" y="450"/>
      <point x="311" y="426" type="curve"/>
      <point x="295" y="459"/>
      <point x="277" y="491"/>
      <point x="262" y="525" type="curve" smooth="yes"/>
      <point x="253" y="544"/>
      <point x="240" y="562"/>
      <point x="233" y="582" type="curve"/>
      <point x="233" y="605"/>
      <point x="181" y="671"/>
      <point x="181" y="695" type="curve"/>
      <point x="173" y="710"/>
      <point x="122" y="708"/>
      <point x="103" y="708" type="curve"/>
      <point x="100" y="709"/>
      <point x="95" y="710"/>
      <point x="90" y="710" type="curve" smooth="yes"/>
      <point x="73" y="710"/>
      <point x="57" y="708"/>
      <point x="43" y="701" type="curve"/>
      <point x="35" y="601"/>
      <point x="33" y="501"/>
      <point x="33" y="401" type="curve" smooth="yes"/>
      <point x="33" y="268"/>
      <point x="37" y="135"/>
      <point x="37" y="2" type="curve"/>
      <point x="46" y="-7"/>
      <point x="99" y="-13"/>
      <point x="124" y="-13" type="curve" name="hr04" smooth="yes"/>
      <point x="142" y="-13"/>
      <point x="174" y="-13"/>
      <point x="187" y="0" type="curve" name="hr05"/>
      <point x="182" y="48"/>
      <point x="184" y="101"/>
      <point x="184" y="150" type="curve" smooth="yes"/>
      <point x="184" y="208"/>
      <point x="185" y="266"/>
      <point x="190" y="321" type="curve"/>
      <point x="207" y="279"/>
      <point x="220" y="237"/>
      <point x="237" y="196" type="curve" smooth="yes"/>
      <point x="264" y="129"/>
      <point x="298" y="64"/>
      <point x="328" y="-2" type="curve" smooth="yes"/>
      <point x="329" y="-3"/>
      <point x="330" y="-4"/>
      <point x="332" y="-5" type="curve" name="hr06"/>
      <point x="363" y="-5"/>
      <point x="393" y="-10"/>
    </contour>
    <contour>
      <point x="424" y="0" type="curve" name="hr08" smooth="yes"/>
      <point x="389" y="0"/>
      <point x="379" y="5"/>
      <point x="335" y="5" type="curve"/>
      <point x="306" y="70"/>
      <point x="273" y="134"/>
      <point x="246" y="200" type="curve" smooth="yes"/>
      <point x="227" y="245"/>
      <point x="213" y="293"/>
      <point x="194" y="339" type="curve"/>
      <point x="192" y="340"/>
      <point x="190" y="341"/>
      <point x="189" y="342" type="curve"/>
      <point x="188" y="342" type="line"/>
      <point x="179" y="342"/>
      <point x="177" y="309"/>
      <point x="177" y="282" type="curve" smooth="yes"/>
      <point x="177" y="268"/>
      <point x="178" y="256"/>
      <point x="178" y="253" type="curve" smooth="yes"/>
      <point x="177" y="196"/>
      <point x="173" y="139"/>
      <point x="173" y="82" type="curve" smooth="yes"/>
      <point x="173" y="56"/>
      <point x="174" y="29"/>
      <point x="176" y="3" type="curve"/>
      <point x="166" y="0"/>
      <point x="155" y="3"/>
      <point x="145" y="0" type="curve"/>
      <point x="104" y="0"/>
      <point x="92" y="6"/>
      <point x="47" y="6" type="curve"/>
      <point x="47" y="137"/>
      <point x="43" y="269"/>
      <point x="43" y="401" type="curve" smooth="yes"/>
      <point x="43" y="499"/>
      <point x="45" y="598"/>
      <point x="53" y="696" type="curve"/>
      <point x="56" y="697"/>
      <point x="59" y="697"/>
      <point x="63" y="697" type="curve" smooth="yes"/>
      <point x="65" y="697"/>
      <point x="68" y="697"/>
      <point x="71" y="697" type="curve" smooth="yes"/>
      <point x="75" y="697"/>
      <point x="79" y="697"/>
      <point x="82" y="699" type="curve"/>
      <point x="99" y="699" type="line"/>
      <point x="108" y="694"/>
      <point x="151" y="696"/>
      <point x="171" y="691" type="curve"/>
      <point x="176" y="665"/>
      <point x="212" y="606"/>
      <point x="223" y="580" type="curve"/>
      <point x="225" y="563"/>
      <point x="246" y="534"/>
      <point x="253" y="521" type="curve" smooth="yes"/>
      <point x="262" y="502"/>
      <point x="297" y="410"/>
      <point x="312" y="410" type="curve"/>
      <point x="313" y="410" type="line"/>
      <point x="324" y="421"/>
      <point x="325" y="440"/>
      <point x="325" y="459" type="curve" smooth="yes"/>
      <point x="325" y="520"/>
      <point x="320" y="576"/>
      <point x="320" y="635" type="curve" smooth="yes"/>
      <point x="320" y="657"/>
      <point x="321" y="678"/>
      <point x="323" y="700" type="curve"/>
      <point x="345" y="703"/>
      <point x="367" y="705"/>
      <point x="389" y="705" type="curve" smooth="yes"/>
      <point x="410" y="705"/>
      <point x="430" y="703"/>
      <point x="451" y="700" type="curve"/>
      <point x="451" y="467"/>
      <point x="452" y="237"/>
      <point x="452" y="5" type="curve"/>
      <point x="442" y="4"/>
      <point x="433" y="0"/>
    </contour>
  </outline>
</glyph>
<glyph name="P" format="1">
  <advance width="497"/>
  <unicode hex="0050"/>
  <outline>
    <contour>
      <point x="489" y="490" type="curve" name="hr01" smooth="yes"/>
      <point x="489" y="654"/>
      <point x="324" y="719"/>
      <point x="188" y="719" type="curve" smooth="yes"/>
      <point x="135" y="719"/>
      <point x="83" y="711"/>
      <point x="37" y="700" type="curve"/>
      <point x="35" y="698"/>
      <point x="34" y="696"/>
      <point x="32" y="694" type="curve"/>
      <point x="36" y="633"/>
      <point x="37" y="572"/>
      <point x="37" y="511" type="curve" smooth="yes"/>
      <point x="37" y="406"/>
      <point x="33" y="302"/>
      <point x="33" y="198" type="curve" smooth="yes"/>
      <point x="33" y="133"/>
      <point x="35" y="69"/>
      <point x="39" y="5" type="curve"/>
      <point x="48" y="-4"/>
      <point x="79" y="-6"/>
      <point x="111" y="-6" type="curve" smooth="yes"/>
      <point x="149" y="-6"/>
      <point x="191" y="-2"/>
      <point x="213" y="5" type="curve"/>
      <point x="212" y="5" type="line"/>
      <point x="213" y="6"/>
      <point x="215" y="6"/>
      <point x="216" y="7" type="curve" smooth="yes"/>
      <point x="217" y="8" type="line"/>
      <point x="216" y="8"/>
      <point x="216" y="8"/>
      <point x="215" y="7" type="curve" smooth="yes"/>
      <point x="219" y="11" type="line" name="hr02"/>
      <point x="219" y="93"/>
      <point x="215" y="175"/>
      <point x="215" y="257" type="curve"/>
      <point x="226" y="255"/>
      <point x="237" y="254"/>
      <point x="248" y="254" type="curve" smooth="yes"/>
      <point x="365" y="254"/>
      <point x="490" y="362"/>
      <point x="490" y="477" type="curve" smooth="yes"/>
      <point x="490" y="482"/>
      <point x="489" y="487"/>
    </contour>
    <contour>
      <point x="479" y="491" type="curve"/>
      <point x="479" y="472" type="line"/>
      <point x="477" y="468"/>
      <point x="478" y="459"/>
      <point x="477" y="455" type="curve" smooth="yes"/>
      <point x="459" y="350"/>
      <point x="355" y="264"/>
      <point x="248" y="264" type="curve" smooth="yes"/>
      <point x="236" y="264"/>
      <point x="223" y="265"/>
      <point x="211" y="268" type="curve"/>
      <point x="205" y="262" type="line"/>
      <point x="205" y="183"/>
      <point x="209" y="80"/>
      <point x="209" y="14" type="curve"/>
      <point x="186" y="8"/>
      <point x="144" y="5"/>
      <point x="108" y="5" type="curve" smooth="yes"/>
      <point x="84" y="5"/>
      <point x="62" y="6"/>
      <point x="48" y="10" type="curve"/>
      <point x="44" y="72"/>
      <point x="43" y="134"/>
      <point x="43" y="196" type="curve" smooth="yes"/>
      <point x="43" y="302"/>
      <point x="46" y="408"/>
      <point x="46" y="514" type="curve" smooth="yes"/>
      <point x="46" y="573"/>
      <point x="45" y="632"/>
      <point x="42" y="691" type="curve"/>
      <point x="83" y="701"/>
      <point x="131" y="707"/>
      <point x="180" y="707" type="curve" smooth="yes"/>
      <point x="317" y="707"/>
      <point x="479" y="655"/>
    </contour>
    <contour>
      <point x="312" y="537" type="curve" smooth="yes"/>
      <point x="282" y="560"/>
      <point x="247" y="565"/>
      <point x="212" y="565" type="curve" name="hr03" smooth="yes"/>
      <point x="201" y="565"/>
      <point x="191" y="560"/>
      <point x="181" y="560" type="curve"/>
      <point x="180" y="559" type="line" smooth="yes"/>
      <point x="176" y="551"/>
      <point x="175" y="536"/>
      <point x="175" y="521" type="curve" smooth="yes"/>
      <point x="175" y="492"/>
      <point x="169" y="400"/>
      <point x="201" y="400" type="curve" smooth="yes"/>
      <point x="253" y="400"/>
      <point x="345" y="401"/>
      <point x="345" y="470" type="curve" smooth="yes"/>
      <point x="345" y="495"/>
      <point x="332" y="523"/>
    </contour>
    <contour>
      <point x="306" y="529" type="curve" smooth="yes"/>
      <point x="324" y="516"/>
      <point x="329" y="503"/>
      <point x="335" y="483" type="curve"/>
      <point x="335" y="425"/>
      <point x="293" y="413"/>
      <point x="243" y="411" type="curve" name="hr04" smooth="yes"/>
      <point x="236" y="411"/>
      <point x="229" y="412"/>
      <point x="222" y="412" type="curve" smooth="yes"/>
      <point x="217" y="412"/>
      <point x="212" y="411"/>
      <point x="207" y="410" type="curve"/>
      <point x="196" y="410" type="line"/>
      <point x="189" y="431"/>
      <point x="187" y="460"/>
      <point x="187" y="490" type="curve" smooth="yes"/>
      <point x="187" y="510"/>
      <point x="188" y="531"/>
      <point x="188" y="551" type="curve"/>
      <point x="206" y="551"/>
      <point x="221" y="553"/>
      <point x="236" y="553" type="curve" smooth="yes"/>
      <point x="259" y="553"/>
      <point x="279" y="549"/>
    </contour>
  </outline>
</glyph>
<glyph name="R" format="1">
  <advance width="518"/>
  <unicode hex="0052"/>
  <outline>
    <contour>
      <point x="522" y="2" type="curve" name="hr01"/>
      <point x="481" y="111"/>
      <point x="404" y="201"/>
      <point x="345" y="301" type="curve"/>
      <point x="448" y="307"/>
      <point x="506" y="407"/>
      <point x="506" y="503" type="curve" smooth="yes"/>
      <point x="506" y="660"/>
      <point x="360" y="724"/>
      <point x="222" y="724" type="curve" smooth="yes"/>
      <point x="156" y="724"/>
      <point x="89" y="714"/>
      <point x="33" y="704" type="curve"/>
      <point x="31" y="702"/>
      <point x="30" y="700"/>
      <point x="28" y="698" type="curve"/>
      <point x="36" y="645"/>
      <point x="34" y="587"/>
      <point x="34" y="535" type="curve" smooth="yes"/>
      <point x="34" y="375"/>
      <point x="39" y="216"/>
      <point x="39" y="56" type="curve" smooth="yes"/>
      <point x="39" y="37"/>
      <point x="39" y="19"/>
      <point x="36" y="1" type="curve"/>
      <point x="36" y="1"/>
      <point x="37" y="2"/>
      <point x="37" y="3" type="curve"/>
      <point x="40" y="-5" type="line"/>
      <point x="66" y="-5"/>
      <point x="94" y="-7"/>
      <point x="123" y="-7" type="curve" name="hr02" smooth="yes"/>
      <point x="147" y="-7"/>
      <point x="210" y="-7"/>
      <point x="219" y="11" type="curve"/>
      <point x="213" y="51"/>
      <point x="208" y="117"/>
      <point x="208" y="173" type="curve" smooth="yes"/>
      <point x="208" y="198"/>
      <point x="209" y="222"/>
      <point x="212" y="241" type="curve"/>
      <point x="236" y="205"/>
      <point x="260" y="173"/>
      <point x="281" y="135" type="curve" smooth="yes"/>
      <point x="305" y="90"/>
      <point x="323" y="44"/>
      <point x="346" y="-1" type="curve" smooth="yes"/>
      <point x="347" y="-2"/>
      <point x="348" y="-3"/>
      <point x="350" y="-4" type="curve" name="hr03"/>
      <point x="405" y="-4"/>
      <point x="461" y="-2"/>
      <point x="517" y="-2" type="curve" name="hr04"/>
      <point x="517" y="6" type="line"/>
      <point x="519" y="5"/>
      <point x="520" y="3"/>
    </contour>
    <contour>
      <point x="353" y="6" type="curve"/>
      <point x="331" y="50"/>
      <point x="312" y="95"/>
      <point x="290" y="139" type="curve" smooth="yes"/>
      <point x="268" y="182"/>
      <point x="239" y="218"/>
      <point x="213" y="258" type="curve"/>
      <point x="210" y="257"/>
      <point x="207" y="257"/>
      <point x="204" y="256" type="curve"/>
      <point x="200" y="236"/>
      <point x="198" y="208"/>
      <point x="198" y="178" type="curve" smooth="yes"/>
      <point x="198" y="121"/>
      <point x="204" y="55"/>
      <point x="209" y="14" type="curve" name="hr05"/>
      <point x="184" y="5"/>
      <point x="156" y="3"/>
      <point x="128" y="3" type="curve" smooth="yes"/>
      <point x="100" y="3"/>
      <point x="72" y="5"/>
      <point x="47" y="5" type="curve"/>
      <point x="49" y="19"/>
      <point x="50" y="33"/>
      <point x="50" y="48" type="curve" smooth="yes"/>
      <point x="50" y="256"/>
      <point x="41" y="463"/>
      <point x="41" y="672" type="curve" smooth="yes"/>
      <point x="41" y="680"/>
      <point x="40" y="687"/>
      <point x="39" y="695" type="curve"/>
      <point x="82" y="703"/>
      <point x="125" y="707"/>
      <point x="168" y="710" type="curve" smooth="yes"/>
      <point x="166" y="710" type="line" smooth="yes"/>
      <point x="188" y="711"/>
      <point x="210" y="713"/>
      <point x="232" y="713" type="curve" smooth="yes"/>
      <point x="344" y="713"/>
      <point x="496" y="668"/>
      <point x="496" y="502" type="curve" smooth="yes"/>
      <point x="496" y="410"/>
      <point x="438" y="311"/>
      <point x="338" y="311" type="curve"/>
      <point x="336" y="309"/>
      <point x="335" y="307"/>
      <point x="333" y="305" type="curve"/>
      <point x="338" y="277"/>
      <point x="373" y="239"/>
      <point x="390" y="214" type="curve" smooth="yes"/>
      <point x="434" y="147"/>
      <point x="479" y="81"/>
      <point x="509" y="8" type="curve"/>
      <point x="457" y="8"/>
      <point x="405" y="6"/>
    </contour>
    <contour>
      <point x="175" y="544" type="line" smooth="yes"/>
      <point x="175" y="538"/>
      <point x="174" y="532"/>
      <point x="174" y="526" type="curve" smooth="yes"/>
      <point x="174" y="520"/>
      <point x="176" y="514"/>
      <point x="176" y="509" type="curve" smooth="yes"/>
      <point x="176" y="498"/>
      <point x="173" y="481"/>
      <point x="173" y="466" type="curve" smooth="yes"/>
      <point x="173" y="452"/>
      <point x="176" y="439"/>
      <point x="184" y="431" type="curve"/>
      <point x="202" y="431"/>
      <point x="230" y="426"/>
      <point x="256" y="426" type="curve" smooth="yes"/>
      <point x="309" y="426"/>
      <point x="333" y="462"/>
      <point x="333" y="501" type="curve" smooth="yes"/>
      <point x="333" y="544"/>
      <point x="301" y="580"/>
      <point x="248" y="580" type="curve" smooth="yes"/>
      <point x="223" y="580"/>
      <point x="198" y="573"/>
      <point x="177" y="564" type="curve"/>
    </contour>
    <contour>
      <point x="292" y="559" type="curve" smooth="yes"/>
      <point x="313" y="546"/>
      <point x="324" y="522"/>
      <point x="324" y="498" type="curve" name="hr06" smooth="yes"/>
      <point x="324" y="461"/>
      <point x="304" y="435"/>
      <point x="245" y="435" type="curve" smooth="yes"/>
      <point x="224" y="435"/>
      <point x="202" y="438"/>
      <point x="188" y="441" type="curve"/>
      <point x="186" y="451"/>
      <point x="185" y="452"/>
      <point x="185" y="472" type="curve" smooth="yes"/>
      <point x="185" y="486"/>
      <point x="186" y="505"/>
      <point x="186" y="521" type="curve" smooth="yes"/>
      <point x="186" y="535"/>
      <point x="185" y="547"/>
      <point x="184" y="549" type="curve"/>
      <point x="184" y="555" type="line"/>
      <point x="203" y="563"/>
      <point x="226" y="569"/>
      <point x="249" y="569" type="curve" smooth="yes"/>
      <point x="264" y="569"/>
      <point x="279" y="566"/>
    </contour>
  </outline>
</glyph>
<glyph name="T" format="1">
  <advance width="443"/>
  <unicode hex="0054"/>
  <outline>
    <contour>
      <point x="438" y="702" type="line" name="hr01"/>
      <point x="297" y="715"/>
      <point x="150" y="709"/>
      <point x="10" y="709" type="curve"/>
      <point x="8" y="707"/>
      <point x="7" y="705"/>
      <point x="5" y="703" type="curve"/>
      <point x="6" y="703" type="line"/>
      <point x="3" y="686"/>
      <point x="4" y="669"/>
      <point x="4" y="653" type="curve" smooth="yes"/>
      <point x="4" y="604" type="line" smooth="yes"/>
      <point x="4" y="598"/>
      <point x="3" y="588"/>
      <point x="3" y="578" type="curve" smooth="yes"/>
      <point x="3" y="556"/>
      <point x="5" y="537"/>
      <point x="26" y="537" type="curve" smooth="yes"/>
      <point x="42" y="537"/>
      <point x="55" y="538"/>
      <point x="75" y="538" type="curve" smooth="yes"/>
      <point x="94" y="538"/>
      <point x="120" y="533"/>
      <point x="136" y="525" type="curve" name="hr02"/>
      <point x="140" y="392"/>
      <point x="139" y="261"/>
      <point x="139" y="129" type="curve" smooth="yes"/>
      <point x="139" y="91"/>
      <point x="136" y="53"/>
      <point x="136" y="15" type="curve" smooth="yes"/>
      <point x="136" y="7"/>
      <point x="137" y="-2"/>
      <point x="144" y="-6" type="curve"/>
      <point x="159" y="-2"/>
      <point x="174" y="-1"/>
      <point x="190" y="-1" type="curve" name="hr03" smooth="yes"/>
      <point x="216" y="-1"/>
      <point x="243" y="-4"/>
      <point x="269" y="-4" type="curve" name="hr04" smooth="yes"/>
      <point x="285" y="-4"/>
      <point x="308" y="-3"/>
      <point x="312" y="6" type="curve"/>
      <point x="312" y="142"/>
      <point x="305" y="279"/>
      <point x="305" y="416" type="curve" smooth="yes"/>
      <point x="305" y="455"/>
      <point x="307" y="495"/>
      <point x="307" y="535" type="curve"/>
      <point x="333" y="535"/>
      <point x="361" y="539"/>
      <point x="388" y="539" type="curve" smooth="yes"/>
      <point x="402" y="539"/>
      <point x="415" y="538"/>
      <point x="428" y="535" type="curve"/>
      <point x="437" y="553"/>
      <point x="438" y="577"/>
      <point x="438" y="600" type="curve" smooth="yes"/>
    </contour>
    <contour>
      <point x="424" y="546" type="curve"/>
      <point x="408" y="549"/>
      <point x="392" y="549"/>
      <point x="376" y="549" type="curve" smooth="yes"/>
      <point x="348" y="549"/>
      <point x="297" y="548"/>
      <point x="297" y="537" type="curve" smooth="yes"/>
      <point x="297" y="538"/>
      <point x="297" y="538"/>
      <point x="297" y="538" type="curve"/>
      <point x="296" y="538"/>
      <point x="295" y="528"/>
      <point x="295" y="522" type="curve" smooth="yes"/>
      <point x="295" y="489" type="line" smooth="yes"/>
      <point x="295" y="330"/>
      <point x="294" y="168"/>
      <point x="301" y="10" type="curve"/>
      <point x="287" y="7"/>
      <point x="273" y="6"/>
      <point x="259" y="6" type="curve" smooth="yes"/>
      <point x="236" y="6"/>
      <point x="212" y="8"/>
      <point x="189" y="8" type="curve" smooth="yes"/>
      <point x="175" y="8"/>
      <point x="161" y="8"/>
      <point x="147" y="5" type="curve"/>
      <point x="146" y="14"/>
      <point x="145" y="24"/>
      <point x="145" y="36" type="curve" smooth="yes"/>
      <point x="145" y="68"/>
      <point x="149" y="106"/>
      <point x="149" y="130" type="curve" name="hr05" smooth="yes"/>
      <point x="149" y="222"/>
      <point x="146" y="314"/>
      <point x="146" y="406" type="curve" smooth="yes"/>
      <point x="146" y="437"/>
      <point x="148" y="500"/>
      <point x="148" y="523" type="curve" smooth="yes"/>
      <point x="148" y="541"/>
      <point x="105" y="547"/>
      <point x="86" y="547" type="curve" smooth="yes"/>
      <point x="73" y="547"/>
      <point x="59" y="546"/>
      <point x="46" y="546" type="curve" smooth="yes"/>
      <point x="36" y="546"/>
      <point x="26" y="547"/>
      <point x="18" y="549" type="curve"/>
      <point x="13" y="559"/>
      <point x="11" y="590"/>
      <point x="11" y="622" type="curve" smooth="yes"/>
      <point x="11" y="656"/>
      <point x="13" y="691"/>
      <point x="15" y="699" type="curve"/>
      <point x="153" y="699"/>
      <point x="289" y="703"/>
      <point x="427" y="690" type="curve"/>
      <point x="428" y="669"/>
      <point x="428" y="649"/>
      <point x="428" y="628" type="curve" smooth="yes"/>
      <point x="428" y="601"/>
      <point x="427" y="573"/>
    </contour>
    <contour>
      <point x="300" y="543" type="curve"/>
      <point x="299" y="542" type="line" smooth="yes"/>
      <point x="298" y="541"/>
      <point x="298" y="540"/>
      <point x="298" y="540" type="curve"/>
      <point x="299" y="541"/>
      <point x="299" y="542"/>
    </contour>
    <contour>
      <point x="5" y="704" type="line"/>
      <point x="5" y="703" type="line"/>
    </contour>
  </outline>
</glyph>
<glyph name="V" format="1">
  <advance width="440"/>
  <unicode hex="0056"/>
  <outline>
    <contour>
      <point x="446" y="689" type="line" name="hr00"/>
      <point x="423" y="695"/>
      <point x="388" y="695"/>
      <point x="368" y="695" type="curve" smooth="yes"/>
      <point x="356" y="695"/>
      <point x="344" y="694"/>
      <point x="331" y="694" type="curve" smooth="yes"/>
      <point x="321" y="694"/>
      <point x="311" y="695"/>
      <point x="302" y="698" type="curve"/>
      <point x="299" y="698" type="line"/>
      <point x="298" y="697"/>
      <point x="298" y="697"/>
      <point x="297" y="697" type="curve"/>
      <point x="294" y="691" type="line"/>
      <point x="294" y="692"/>
      <point x="294" y="692"/>
      <point x="294" y="692" type="curve"/>
      <point x="284" y="692"/>
      <point x="241" y="387"/>
      <point x="211" y="244" type="curve"/>
      <point x="180" y="364"/>
      <point x="170" y="493"/>
      <point x="170" y="614" type="curve" smooth="yes"/>
      <point x="170" y="620"/>
      <point x="170" y="629"/>
      <point x="170" y="639" type="curve" smooth="yes"/>
      <point x="170" y="693"/>
      <point x="171" y="702"/>
      <point x="95" y="702" type="curve" smooth="yes"/>
      <point x="54" y="702"/>
      <point x="25" y="696"/>
      <point x="11" y="682" type="curve"/>
      <point x="12" y="676"/>
      <point x="13" y="654"/>
      <point x="14" y="645" type="curve" smooth="yes"/>
      <point x="20" y="576" type="line"/>
      <point x="37" y="409"/>
      <point x="75" y="190"/>
      <point x="128" y="4" type="curve"/>
      <point x="147" y="-15"/>
      <point x="202" y="-8"/>
      <point x="218" y="-8" type="curve" smooth="yes"/>
      <point x="243" y="-8"/>
      <point x="271" y="-7"/>
      <point x="284" y="-1" type="curve"/>
      <point x="350" y="224"/>
      <point x="405" y="453"/>
      <point x="450" y="682" type="curve"/>
    </contour>
    <contour>
      <point x="275" y="6" type="curve"/>
      <point x="249" y="6"/>
      <point x="219" y="1"/>
      <point x="190" y="1" type="curve" smooth="yes"/>
      <point x="171" y="1"/>
      <point x="153" y="3"/>
      <point x="137" y="9" type="curve"/>
      <point x="75" y="228"/>
      <point x="40" y="453"/>
      <point x="21" y="680" type="curve"/>
      <point x="33" y="689"/>
      <point x="64" y="692"/>
      <point x="94" y="692" type="curve" smooth="yes"/>
      <point x="119" y="692"/>
      <point x="143" y="690"/>
      <point x="154" y="688" type="curve"/>
      <point x="162" y="652"/>
      <point x="160" y="611"/>
      <point x="160" y="572" type="curve" smooth="yes"/>
      <point x="160" y="457"/>
      <point x="178" y="335"/>
      <point x="206" y="222" type="curve"/>
      <point x="209" y="222"/>
      <point x="213" y="222"/>
      <point x="216" y="221" type="curve"/>
      <point x="239" y="315"/>
      <point x="253" y="410"/>
      <point x="270" y="505" type="curve" smooth="yes"/>
      <point x="281" y="566"/>
      <point x="286" y="628"/>
      <point x="303" y="687" type="curve"/>
      <point x="318" y="683"/>
      <point x="334" y="682"/>
      <point x="349" y="682" type="curve" smooth="yes"/>
      <point x="363" y="682"/>
      <point x="376" y="683"/>
      <point x="390" y="683" type="curve"/>
      <point x="402" y="679"/>
      <point x="418" y="680"/>
      <point x="439" y="680" type="curve"/>
      <point x="395" y="453"/>
      <point x="340" y="227"/>
    </contour>
    <contour>
      <point x="11" y="682" type="line"/>
      <point x="11" y="681" type="line"/>
    </contour>
  </outline>
</glyph>
<glyph name="W" format="1">
  <advance width="465"/>
  <unicode hex="0057"/>
  <outline>
    <contour>
      <point x="450" y="699" type="line" name="hr01"/>
      <point x="442" y="707"/>
      <point x="412" y="705"/>
      <point x="405" y="705" type="curve" smooth="yes"/>
      <point x="392" y="705"/>
      <point x="377" y="706"/>
      <point x="362" y="706" type="curve" smooth="yes"/>
      <point x="342" y="706"/>
      <point x="322" y="705"/>
      <point x="305" y="699" type="curve"/>
      <point x="302" y="693" type="line"/>
      <point x="302" y="694"/>
      <point x="302" y="694"/>
      <point x="302" y="694" type="curve"/>
      <point x="301" y="694"/>
      <point x="299" y="659"/>
      <point x="298" y="647" type="curve" smooth="yes"/>
      <point x="295" y="572" type="line" smooth="yes"/>
      <point x="291" y="478"/>
      <point x="291" y="385"/>
      <point x="286" y="292" type="curve"/>
      <point x="268" y="349"/>
      <point x="260" y="451"/>
      <point x="231" y="467" type="curve"/>
      <point x="230" y="466" type="line" smooth="yes"/>
      <point x="214" y="433"/>
      <point x="201" y="349"/>
      <point x="187" y="302" type="curve"/>
      <point x="176" y="351"/>
      <point x="173" y="402"/>
      <point x="173" y="453" type="curve" smooth="yes"/>
      <point x="173" y="512"/>
      <point x="176" y="573"/>
      <point x="176" y="634" type="curve" smooth="yes"/>
      <point x="176" y="658"/>
      <point x="175" y="684"/>
      <point x="166" y="703" type="curve"/>
      <point x="132" y="703"/>
      <point x="99" y="705"/>
      <point x="64" y="705" type="curve" smooth="yes"/>
      <point x="47" y="705"/>
      <point x="27" y="704"/>
      <point x="18" y="695" type="curve" name="hr02"/>
      <point x="18" y="474"/>
      <point x="58" y="232"/>
      <point x="91" y="4" type="curve"/>
      <point x="93" y="3"/>
      <point x="94" y="1"/>
      <point x="96" y="0" type="curve"/>
      <point x="100" y="0" type="line"/>
      <point x="102" y="-4"/>
      <point x="102" y="-2"/>
      <point x="102" y="0" type="curve"/>
      <point x="113" y="-1"/>
      <point x="134" y="-3"/>
      <point x="153" y="-3" type="curve" name="hr03" smooth="yes"/>
      <point x="169" y="-3"/>
      <point x="183" y="-1"/>
      <point x="188" y="4" type="curve" smooth="yes"/>
      <point x="219" y="41"/>
      <point x="207" y="125"/>
      <point x="238" y="165" type="curve"/>
      <point x="255" y="133"/>
      <point x="272" y="-2"/>
      <point x="298" y="-2" type="curve" name="hr04" smooth="yes"/>
      <point x="310" y="-2"/>
      <point x="330" y="-5"/>
      <point x="349" y="-5" type="curve" name="hr05" smooth="yes"/>
      <point x="365" y="-5"/>
      <point x="376" y="-4"/>
      <point x="385" y="5" type="curve"/>
      <point x="405" y="236"/>
      <point x="431" y="465"/>
      <point x="451" y="696" type="curve"/>
    </contour>
    <contour>
      <point x="376" y="9" type="curve"/>
      <point x="369" y="6"/>
      <point x="359" y="5"/>
      <point x="349" y="5" type="curve" smooth="yes"/>
      <point x="330" y="5"/>
      <point x="310" y="8"/>
      <point x="300" y="8" type="curve"/>
      <point x="275" y="33"/>
      <point x="271" y="146"/>
      <point x="239" y="178" type="curve"/>
      <point x="238" y="178" type="line"/>
      <point x="210" y="178"/>
      <point x="196" y="37"/>
      <point x="181" y="11" type="curve"/>
      <point x="171" y="7"/>
      <point x="161" y="6"/>
      <point x="150" y="6" type="curve" smooth="yes"/>
      <point x="134" y="6"/>
      <point x="117" y="9"/>
      <point x="100" y="10" type="curve"/>
      <point x="67" y="236"/>
      <point x="35" y="462"/>
      <point x="28" y="692" type="curve"/>
      <point x="44" y="694"/>
      <point x="61" y="695"/>
      <point x="77" y="695" type="curve" smooth="yes"/>
      <point x="106" y="695"/>
      <point x="133" y="693"/>
      <point x="162" y="693" type="curve"/>
      <point x="165" y="658"/>
      <point x="166" y="623"/>
      <point x="166" y="588" type="curve" smooth="yes"/>
      <point x="166" y="545"/>
      <point x="165" y="503"/>
      <point x="165" y="460" type="curve" smooth="yes"/>
      <point x="165" y="400"/>
      <point x="168" y="339"/>
      <point x="182" y="280" type="curve"/>
      <point x="185" y="280"/>
      <point x="189" y="280"/>
      <point x="192" y="279" type="curve"/>
      <point x="204" y="336"/>
      <point x="219" y="394"/>
      <point x="235" y="450" type="curve"/>
      <point x="260" y="392"/>
      <point x="260" y="324"/>
      <point x="285" y="266" type="curve"/>
      <point x="288" y="266"/>
      <point x="291" y="267"/>
      <point x="294" y="268" type="curve"/>
      <point x="310" y="408"/>
      <point x="296" y="550"/>
      <point x="312" y="690" type="curve"/>
      <point x="339" y="693"/>
      <point x="366" y="695"/>
      <point x="394" y="695" type="curve" smooth="yes"/>
      <point x="409" y="695"/>
      <point x="425" y="695"/>
      <point x="440" y="693" type="curve"/>
      <point x="421" y="464"/>
      <point x="396" y="237"/>
    </contour>
    <contour>
      <point x="446" y="692" type="line"/>
      <point x="443" y="692" type="line"/>
    </contour>
  </outline>
</glyph>
<glyph name="Z" format="1">
  <advance width="474"/>
  <unicode hex="005A"/>
  <outline>
    <contour>
      <point x="456" y="534" type="line" name="hr01"/>
      <point x="456" y="572"/>
      <point x="459" y="612"/>
      <point x="459" y="652" type="curve" smooth="yes"/>
      <point x="459" y="668"/>
      <point x="458" y="684"/>
      <point x="451" y="699" type="curve"/>
      <point x="364" y="699"/>
      <point x="277" y="703"/>
      <point x="190" y="703" type="curve" smooth="yes"/>
      <point x="131" y="703"/>
      <point x="68" y="701"/>
      <point x="9" y="695" type="curve"/>
      <point x="7" y="693"/>
      <point x="10" y="690"/>
      <point x="9" y="688" type="curve"/>
      <point x="9" y="687"/>
      <point x="10" y="686"/>
      <point x="10" y="685" type="curve" smooth="yes"/>
      <point x="10" y="677"/>
      <point x="14" y="635"/>
      <point x="16" y="629" type="curve"/>
      <point x="16" y="618"/>
      <point x="15" y="607"/>
      <point x="15" y="596" type="curve" smooth="yes"/>
      <point x="15" y="582"/>
      <point x="16" y="549"/>
      <point x="29" y="543" type="curve"/>
      <point x="106" y="543"/>
      <point x="185" y="539"/>
      <point x="261" y="531" type="curve"/>
      <point x="198" y="441"/>
      <point x="130" y="354"/>
      <point x="73" y="259" type="curve" smooth="yes"/>
      <point x="53" y="226"/>
      <point x="20" y="182"/>
      <point x="20" y="147" type="curve" smooth="yes"/>
      <point x="20" y="94"/>
      <point x="14" y="3"/>
      <point x="34" y="-6" type="curve"/>
      <point x="99" y="-3"/>
      <point x="165" y="-2"/>
      <point x="230" y="-2" type="curve" smooth="yes"/>
      <point x="301" y="-2"/>
      <point x="372" y="-3"/>
      <point x="443" y="-7" type="curve" name="hr02"/>
      <point x="457" y="22"/>
      <point x="453" y="85"/>
      <point x="453" y="105" type="curve" smooth="yes"/>
      <point x="453" y="128"/>
      <point x="452" y="153"/>
      <point x="445" y="168" type="curve"/>
      <point x="365" y="159"/>
      <point x="284" y="167"/>
      <point x="204" y="156" type="curve"/>
      <point x="286" y="282"/>
      <point x="377" y="402"/>
      <point x="455" y="531" type="curve" smooth="yes"/>
    </contour>
    <contour>
      <point x="447" y="536" type="line" smooth="yes"/>
      <point x="375" y="417"/>
      <point x="292" y="310"/>
      <point x="215" y="191" type="curve" smooth="yes"/>
      <point x="207" y="178"/>
      <point x="199" y="164"/>
      <point x="190" y="154" type="curve"/>
      <point x="191" y="151"/>
      <point x="193" y="148"/>
      <point x="194" y="145" type="curve"/>
      <point x="276" y="156"/>
      <point x="358" y="149"/>
      <point x="440" y="157" type="curve"/>
      <point x="442" y="143"/>
      <point x="443" y="128"/>
      <point x="443" y="114" type="curve" smooth="yes"/>
      <point x="443" y="77"/>
      <point x="438" y="40"/>
      <point x="438" y="3" type="curve"/>
      <point x="366" y="7"/>
      <point x="295" y="9"/>
      <point x="223" y="9" type="curve" smooth="yes"/>
      <point x="162" y="9"/>
      <point x="100" y="7"/>
      <point x="38" y="4" type="curve"/>
      <point x="31" y="27"/>
      <point x="30" y="50"/>
      <point x="30" y="74" type="curve" smooth="yes"/>
      <point x="30" y="92"/>
      <point x="31" y="110"/>
      <point x="31" y="128" type="curve" smooth="yes"/>
      <point x="31" y="138"/>
      <point x="31" y="148"/>
      <point x="30" y="158" type="curve"/>
      <point x="83" y="290"/>
      <point x="192" y="416"/>
      <point x="274" y="532" type="curve"/>
      <point x="267" y="552"/>
      <point x="165" y="548"/>
      <point x="138" y="548" type="curve" smooth="yes"/>
      <point x="102" y="548"/>
      <point x="67" y="554"/>
      <point x="32" y="553" type="curve"/>
      <point x="27" y="562"/>
      <point x="26" y="571"/>
      <point x="26" y="581" type="curve" smooth="yes"/>
      <point x="26" y="592"/>
      <point x="28" y="603"/>
      <point x="28" y="613" type="curve" smooth="yes"/>
      <point x="28" y="635"/>
      <point x="27" y="665"/>
      <point x="20" y="686" type="curve"/>
      <point x="75" y="691"/>
      <point x="130" y="693"/>
      <point x="186" y="693" type="curve" smooth="yes"/>
      <point x="273" y="693"/>
      <point x="360" y="689"/>
      <point x="447" y="689" type="curve"/>
      <point x="449" y="674"/>
      <point x="449" y="658"/>
      <point x="449" y="643" type="curve" smooth="yes"/>
      <point x="449" y="607"/>
      <point x="446" y="571"/>
      <point x="446" y="535" type="curve"/>
    </contour>
  </outline>
</glyph>
<glyph name="bracketleft" format="1">
  <advance width="321"/>
  <unicode hex="005B"/>
  <outline>
    <contour>
      <point x="197" y="-5" type="curve" name="hr01" smooth="yes"/>
      <point x="208" y="-5"/>
      <point x="231" y="-7"/>
      <point x="252" y="-7" type="curve" name="hr02" smooth="yes"/>
      <point x="291" y="-7"/>
      <point x="299" y="-8"/>
      <point x="299" y="23" type="curve" smooth="yes"/>
      <point x="299" y="59"/>
      <point x="296" y="95"/>
      <point x="296" y="132" type="curve"/>
      <point x="290" y="143"/>
      <point x="212" y="141"/>
      <point x="189" y="146" type="curve"/>
      <point x="189" y="251"/>
      <point x="180" y="355"/>
      <point x="180" y="460" type="curve" smooth="yes"/>
      <point x="180" y="500"/>
      <point x="181" y="540"/>
      <point x="185" y="581" type="curve"/>
      <point x="220" y="581"/>
      <point x="256" y="583"/>
      <point x="291" y="583" type="curve"/>
      <point x="310" y="602"/>
      <point x="303" y="667"/>
      <point x="303" y="672" type="curve" smooth="yes"/>
      <point x="303" y="686"/>
      <point x="302" y="700"/>
      <point x="297" y="711" type="curve"/>
      <point x="279" y="708"/>
      <point x="261" y="707"/>
      <point x="243" y="707" type="curve" smooth="yes"/>
      <point x="192" y="707"/>
      <point x="141" y="714"/>
      <point x="91" y="714" type="curve" name="hr03" smooth="yes"/>
      <point x="75" y="714"/>
      <point x="57" y="713"/>
      <point x="48" y="704" type="curve"/>
      <point x="48" y="705"/>
      <point x="48" y="705"/>
      <point x="48" y="705" type="curve"/>
      <point x="39" y="705"/>
      <point x="37" y="342"/>
      <point x="37" y="305" type="curve" smooth="yes"/>
      <point x="38" y="-7" type="line"/>
      <point x="57" y="-3"/>
      <point x="82" y="-2"/>
      <point x="102" y="-2" type="curve" name="hr04" smooth="yes"/>
      <point x="134" y="-2"/>
      <point x="166" y="-5"/>
    </contour>
    <contour>
      <point x="197" y="5" type="curve" smooth="yes"/>
      <point x="166" y="5"/>
      <point x="133" y="7"/>
      <point x="102" y="7" type="curve" smooth="yes"/>
      <point x="83" y="7"/>
      <point x="65" y="6"/>
      <point x="48" y="4" type="curve"/>
      <point x="48" y="88"/>
      <point x="47" y="173"/>
      <point x="47" y="257" type="curve" smooth="yes"/>
      <point x="47" y="405"/>
      <point x="49" y="553"/>
      <point x="58" y="701" type="curve"/>
      <point x="77" y="704"/>
      <point x="97" y="705"/>
      <point x="116" y="705" type="curve" smooth="yes"/>
      <point x="164" y="705"/>
      <point x="211" y="699"/>
      <point x="259" y="699" type="curve" smooth="yes"/>
      <point x="270" y="699"/>
      <point x="281" y="699"/>
      <point x="292" y="700" type="curve"/>
      <point x="292" y="663"/>
      <point x="294" y="628"/>
      <point x="287" y="593" type="curve"/>
      <point x="251" y="593"/>
      <point x="216" y="591"/>
      <point x="181" y="591" type="curve"/>
      <point x="171" y="586"/>
      <point x="169" y="541"/>
      <point x="169" y="504" type="curve" smooth="yes"/>
      <point x="169" y="383"/>
      <point x="179" y="263"/>
      <point x="179" y="143" type="curve"/>
      <point x="197" y="125"/>
      <point x="257" y="130"/>
      <point x="286" y="127" type="curve"/>
      <point x="286" y="87"/>
      <point x="289" y="47"/>
      <point x="289" y="6" type="curve"/>
      <point x="258" y="6"/>
      <point x="227" y="5"/>
    </contour>
  </outline>
</glyph>
<glyph name="backslash" format="1">
  <advance width="412"/>
  <unicode hex="005C"/>
  <outline>
    <contour>
      <point x="200" y="149" type="line" name="hr01" smooth="yes"/>
      <point x="219" y="101"/>
      <point x="238" y="53"/>
      <point x="256" y="5" type="curve" smooth="yes"/>
      <point x="260" y="-5"/>
      <point x="278" y="-7"/>
      <point x="295" y="-7" type="curve" smooth="yes"/>
      <point x="312" y="-7"/>
      <point x="328" y="-5"/>
      <point x="333" y="-5" type="curve" name="hr02" smooth="yes"/>
      <point x="352" y="-5"/>
      <point x="371" y="-6"/>
      <point x="391" y="-6" type="curve" name="hr03"/>
      <point x="396" y="-1"/>
      <point x="398" y="-1"/>
      <point x="398" y="7" type="curve" smooth="yes"/>
      <point x="398" y="31"/>
      <point x="375" y="70"/>
      <point x="369" y="89" type="curve"/>
      <point x="369" y="114"/>
      <point x="341" y="162"/>
      <point x="333" y="190" type="curve" smooth="yes"/>
      <point x="299" y="298"/>
      <point x="251" y="401"/>
      <point x="219" y="509" type="curve" smooth="yes"/>
      <point x="217" y="514"/>
      <point x="208" y="553"/>
      <point x="203" y="558" type="curve"/>
      <point x="184" y="606"/>
      <point x="168" y="664"/>
      <point x="160" y="716" type="curve"/>
      <point x="157" y="717"/>
      <point x="151" y="713"/>
      <point x="149" y="714" type="curve"/>
      <point x="139" y="711"/>
      <point x="129" y="710"/>
      <point x="118" y="710" type="curve" smooth="yes"/>
      <point x="98" y="710"/>
      <point x="76" y="714"/>
      <point x="56" y="714" type="curve" smooth="yes"/>
      <point x="42" y="714"/>
      <point x="29" y="712"/>
      <point x="17" y="706" type="curve"/>
      <point x="14" y="700" type="line"/>
      <point x="17" y="691" type="line"/>
      <point x="20" y="672"/>
      <point x="29" y="653"/>
      <point x="34" y="635" type="curve" smooth="yes"/>
      <point x="81" y="473"/>
      <point x="145" y="312"/>
      <point x="199" y="150" type="curve" smooth="yes"/>
    </contour>
    <contour>
      <point x="209" y="153" type="curve"/>
      <point x="196" y="191"/>
      <point x="180" y="228"/>
      <point x="167" y="267" type="curve" smooth="yes"/>
      <point x="136" y="355"/>
      <point x="107" y="445"/>
      <point x="76" y="534" type="curve" smooth="yes"/>
      <point x="58" y="586"/>
      <point x="49" y="648"/>
      <point x="25" y="698" type="curve"/>
      <point x="36" y="702"/>
      <point x="48" y="703"/>
      <point x="60" y="703" type="curve" smooth="yes"/>
      <point x="80" y="703"/>
      <point x="101" y="699"/>
      <point x="122" y="699" type="curve" smooth="yes"/>
      <point x="130" y="699"/>
      <point x="139" y="700"/>
      <point x="147" y="702" type="curve"/>
      <point x="153" y="669"/>
      <point x="182" y="570"/>
      <point x="196" y="551" type="curve"/>
      <point x="239" y="394"/>
      <point x="307" y="244"/>
      <point x="359" y="89" type="curve"/>
      <point x="359" y="78"/>
      <point x="384" y="19"/>
      <point x="387" y="8" type="curve"/>
      <point x="387" y="4" type="line"/>
      <point x="368" y="3"/>
      <point x="345" y="2"/>
      <point x="322" y="2" type="curve" smooth="yes"/>
      <point x="301" y="2"/>
      <point x="281" y="3"/>
      <point x="266" y="7" type="curve"/>
      <point x="251" y="57"/>
      <point x="228" y="104"/>
    </contour>
  </outline>
</glyph>
<glyph name="bracketright" format="1">
  <advance width="321"/>
  <unicode hex="005D"/>
  <outline>
    <contour>
      <point x="23" y="-9" type="curve" name="hr01"/>
      <point x="81" y="-10"/>
      <point x="144" y="-5"/>
      <point x="203" y="-5" type="curve" smooth="yes"/>
      <point x="215" y="-5"/>
      <point x="230" y="-4"/>
      <point x="244" y="-4" type="curve" name="hr02" smooth="yes"/>
      <point x="255" y="-4"/>
      <point x="273" y="-6"/>
      <point x="284" y="-8" type="curve"/>
      <point x="282" y="158"/>
      <point x="283" y="327"/>
      <point x="281" y="494" type="curve" smooth="yes"/>
      <point x="280" y="564"/>
      <point x="273" y="635"/>
      <point x="273" y="705" type="curve"/>
      <point x="269" y="712"/>
      <point x="250" y="713"/>
      <point x="235" y="713" type="curve" smooth="yes"/>
      <point x="183" y="713"/>
      <point x="132" y="707"/>
      <point x="81" y="707" type="curve" smooth="yes"/>
      <point x="62" y="707"/>
      <point x="36" y="710"/>
      <point x="17" y="713" type="curve"/>
      <point x="19" y="705" type="line"/>
      <point x="19" y="685"/>
      <point x="18" y="664"/>
      <point x="18" y="644" type="curve" smooth="yes"/>
      <point x="18" y="623"/>
      <point x="19" y="588"/>
      <point x="30" y="583" type="curve"/>
      <point x="50" y="583"/>
      <point x="89" y="579"/>
      <point x="116" y="579" type="curve" smooth="yes"/>
      <point x="124" y="579"/>
      <point x="131" y="579"/>
      <point x="136" y="580" type="curve"/>
      <point x="140" y="540"/>
      <point x="141" y="499"/>
      <point x="141" y="459" type="curve" smooth="yes"/>
      <point x="141" y="355"/>
      <point x="132" y="250"/>
      <point x="132" y="146" type="curve"/>
      <point x="100" y="138"/>
      <point x="53" y="147"/>
      <point x="25" y="133" type="curve"/>
      <point x="21" y="107"/>
      <point x="18" y="78"/>
      <point x="18" y="49" type="curve" smooth="yes"/>
      <point x="18" y="32"/>
      <point x="19" y="16"/>
    </contour>
    <contour>
      <point x="34" y="127" type="curve"/>
      <point x="41" y="128"/>
      <point x="135" y="128"/>
      <point x="142" y="142" type="curve"/>
      <point x="142" y="265"/>
      <point x="152" y="389"/>
      <point x="152" y="512" type="curve" smooth="yes"/>
      <point x="152" y="541"/>
      <point x="150" y="571"/>
      <point x="140" y="591" type="curve"/>
      <point x="104" y="591"/>
      <point x="69" y="593"/>
      <point x="33" y="593" type="curve"/>
      <point x="29" y="612"/>
      <point x="28" y="630"/>
      <point x="28" y="650" type="curve" smooth="yes"/>
      <point x="28" y="666"/>
      <point x="29" y="683"/>
      <point x="29" y="700" type="curve"/>
      <point x="43" y="698"/>
      <point x="58" y="698"/>
      <point x="72" y="698" type="curve" smooth="yes"/>
      <point x="119" y="698"/>
      <point x="166" y="704"/>
      <point x="212" y="704" type="curve" smooth="yes"/>
      <point x="229" y="704"/>
      <point x="246" y="703"/>
      <point x="263" y="701" type="curve"/>
      <point x="277" y="469"/>
      <point x="273" y="234"/>
      <point x="273" y="4" type="curve"/>
      <point x="264" y="5"/>
      <point x="254" y="6"/>
      <point x="245" y="6" type="curve" smooth="yes"/>
      <point x="230" y="6"/>
      <point x="216" y="5"/>
      <point x="203" y="5" type="curve" smooth="yes"/>
      <point x="145" y="5"/>
      <point x="88" y="5"/>
      <point x="31" y="6" type="curve"/>
      <point x="29" y="19"/>
      <point x="28" y="34"/>
      <point x="28" y="49" type="curve" smooth="yes"/>
      <point x="28" y="75"/>
      <point x="31" y="103"/>
    </contour>
  </outline>
</glyph>
<glyph name="underscore" format="1">
  <advance width="650"/>
  <unicode hex="005F"/>
  <outline>
    <contour>
      <point x="36" y="-43" type="line" name="hr01"/>
      <point x="36" y="-58"/>
      <point x="33" y="-75"/>
      <point x="33" y="-92" type="curve" smooth="yes"/>
      <point x="33" y="-109"/>
      <point x="34" y="-149"/>
      <point x="43" y="-153" type="curve"/>
      <point x="231" y="-153"/>
      <point x="419" y="-155"/>
      <point x="607" y="-155" type="curve" name="hr02"/>
      <point x="613" y="-142"/>
      <point x="614" y="-120"/>
      <point x="614" y="-96" type="curve" smooth="yes"/>
      <point x="614" y="-91"/>
      <point x="614" y="-86"/>
      <point x="614" y="-80" type="curve" smooth="yes"/>
      <point x="614" y="-63"/>
      <point x="615" y="-46"/>
      <point x="616" y="-32" type="curve"/>
      <point x="490" y="-32"/>
      <point x="359" y="-35"/>
      <point x="234" y="-35" type="curve" name="hr03" smooth="yes"/>
      <point x="198" y="-35"/>
      <point x="162" y="-33"/>
      <point x="126" y="-33" type="curve" name="hr04" smooth="yes"/>
      <point x="98" y="-33"/>
      <point x="69" y="-34"/>
      <point x="41" y="-37" type="curve"/>
    </contour>
    <contour>
      <point x="264" y="-44" type="curve" smooth="yes"/>
      <point x="377" y="-44"/>
      <point x="491" y="-42"/>
      <point x="605" y="-42" type="curve"/>
      <point x="601" y="-76"/>
      <point x="602" y="-111"/>
      <point x="602" y="-145" type="curve"/>
      <point x="548" y="-145"/>
      <point x="47" y="-146"/>
      <point x="47" y="-139" type="curve" smooth="yes"/>
      <point x="47" y="-132"/>
      <point x="48" y="-122"/>
      <point x="46" y="-115" type="curve"/>
      <point x="46" y="-46" type="line"/>
      <point x="76" y="-43"/>
      <point x="106" y="-42"/>
      <point x="136" y="-42" type="curve" smooth="yes"/>
      <point x="179" y="-42"/>
      <point x="222" y="-44"/>
    </contour>
  </outline>
</glyph>
<glyph name="a" format="1">
  <advance width="476"/>
  <unicode hex="0061"/>
  <outline>
    <contour>
      <point x="439" y="503" type="line" name="hr01"/>
      <point x="413" y="503"/>
      <point x="362" y="510"/>
      <point x="324" y="510" type="curve" smooth="yes"/>
      <point x="311" y="510"/>
      <point x="299" y="510"/>
      <point x="291" y="507" type="curve"/>
      <point x="288" y="501" type="line" name="hr02"/>
      <point x="288" y="490"/>
      <point x="285" y="480"/>
      <point x="284" y="469" type="curve"/>
      <point x="265" y="495"/>
      <point x="241" y="501"/>
      <point x="197" y="501" type="curve" smooth="yes"/>
      <point x="87" y="501"/>
      <point x="12" y="397"/>
      <point x="12" y="264" type="curve" smooth="yes"/>
      <point x="12" y="159"/>
      <point x="55" y="34"/>
      <point x="114" y="6" type="curve" smooth="yes"/>
      <point x="132" y="-3"/>
      <point x="151" y="-6"/>
      <point x="170" y="-6" type="curve" smooth="yes"/>
      <point x="214" y="-6"/>
      <point x="257" y="14"/>
      <point x="291" y="43" type="curve"/>
      <point x="290" y="36"/>
      <point x="289" y="28"/>
      <point x="289" y="21" type="curve" smooth="yes"/>
      <point x="289" y="6"/>
      <point x="293" y="-7"/>
      <point x="308" y="-7" type="curve" name="hr03" smooth="yes"/>
      <point x="311" y="-7"/>
      <point x="315" y="-6"/>
      <point x="319" y="-5" type="curve" name="hr04"/>
      <point x="397" y="-5" type="line"/>
      <point x="404" y="-8"/>
      <point x="411" y="-9"/>
      <point x="417" y="-9" type="curve" name="hr05" smooth="yes"/>
      <point x="442" y="-9"/>
      <point x="448" y="22"/>
      <point x="448" y="60" type="curve" smooth="yes"/>
      <point x="448" y="145"/>
      <point x="445" y="229"/>
      <point x="445" y="314" type="curve" smooth="yes"/>
      <point x="445" y="442" type="line" smooth="yes"/>
      <point x="445" y="448"/>
      <point x="447" y="459"/>
      <point x="447" y="469" type="curve" smooth="yes"/>
      <point x="447" y="479"/>
      <point x="445" y="491"/>
      <point x="444" y="494" type="curve"/>
      <point x="444" y="498" type="line"/>
    </contour>
    <contour>
      <point x="435" y="490" type="curve"/>
      <point x="435" y="392"/>
      <point x="438" y="292"/>
      <point x="438" y="194" type="curve" smooth="yes"/>
      <point x="438" y="133"/>
      <point x="433" y="70"/>
      <point x="433" y="10" type="curve"/>
      <point x="431" y="8"/>
      <point x="428" y="5"/>
      <point x="427" y="4" type="curve"/>
      <point x="402" y="4" type="line"/>
      <point x="393" y="7"/>
      <point x="376" y="8"/>
      <point x="358" y="8" type="curve" smooth="yes"/>
      <point x="340" y="8"/>
      <point x="323" y="7"/>
      <point x="314" y="4" type="curve"/>
      <point x="307" y="4" type="line"/>
      <point x="299" y="8"/>
      <point x="299" y="15"/>
      <point x="299" y="22" type="curve" name="hr06" smooth="yes"/>
      <point x="299" y="33"/>
      <point x="303" y="45"/>
      <point x="303" y="56" type="curve"/>
      <point x="300" y="57"/>
      <point x="297" y="58"/>
      <point x="295" y="60" type="curve"/>
      <point x="263" y="28"/>
      <point x="216" y="3"/>
      <point x="170" y="3" type="curve" smooth="yes"/>
      <point x="70" y="3"/>
      <point x="23" y="145"/>
      <point x="23" y="265" type="curve" smooth="yes"/>
      <point x="23" y="392"/>
      <point x="91" y="491"/>
      <point x="197" y="491" type="curve" smooth="yes"/>
      <point x="238" y="491"/>
      <point x="263" y="485"/>
      <point x="283" y="451" type="curve"/>
      <point x="283" y="450"/>
      <point x="284" y="450"/>
      <point x="284" y="449" type="curve"/>
      <point x="285" y="449" type="line"/>
      <point x="288" y="449"/>
      <point x="291" y="450"/>
      <point x="294" y="451" type="curve"/>
      <point x="294" y="451"/>
      <point x="293" y="451"/>
      <point x="293" y="452" type="curve"/>
      <point x="294" y="452" type="line"/>
      <point x="293" y="452" type="line"/>
      <point x="293" y="454"/>
      <point x="292" y="456"/>
      <point x="292" y="458" type="curve" smooth="yes"/>
      <point x="292" y="471"/>
      <point x="298" y="485"/>
      <point x="298" y="498" type="curve"/>
      <point x="343" y="498"/>
      <point x="388" y="493"/>
      <point x="434" y="493" type="curve"/>
      <point x="434" y="492"/>
      <point x="434" y="491"/>
    </contour>
    <contour>
      <point x="144" y="301" type="line" smooth="yes"/>
      <point x="138" y="286"/>
      <point x="135" y="269"/>
      <point x="135" y="251" type="curve" smooth="yes"/>
      <point x="135" y="192"/>
      <point x="166" y="132"/>
      <point x="233" y="132" type="curve" smooth="yes"/>
      <point x="284" y="132"/>
      <point x="299" y="172"/>
      <point x="299" y="229" type="curve" smooth="yes"/>
      <point x="299" y="355"/>
      <point x="294" y="368"/>
      <point x="241" y="368" type="curve" smooth="yes"/>
      <point x="197" y="368"/>
      <point x="152" y="346"/>
      <point x="143" y="300" type="curve"/>
    </contour>
    <contour>
      <point x="153" y="297" type="curve"/>
      <point x="162" y="345"/>
      <point x="208" y="358"/>
      <point x="252" y="358" type="curve" name="hr07" smooth="yes"/>
      <point x="288" y="358"/>
      <point x="289" y="327"/>
      <point x="289" y="299" type="curve" smooth="yes"/>
      <point x="289" y="285"/>
      <point x="288" y="272"/>
      <point x="288" y="260" type="curve" smooth="yes"/>
      <point x="288" y="247"/>
      <point x="289" y="231"/>
      <point x="289" y="216" type="curve" smooth="yes"/>
      <point x="289" y="166"/>
      <point x="268" y="142"/>
      <point x="231" y="142" type="curve" smooth="yes"/>
      <point x="174" y="142"/>
      <point x="145" y="196"/>
      <point x="145" y="252" type="curve" smooth="yes"/>
      <point x="145" y="268"/>
      <point x="147" y="284"/>
    </contour>
  </outline>
</glyph>
<glyph name="c" format="1">
  <advance width="442"/>
  <unicode hex="0063"/>
  <outline>
    <contour>
      <point x="424" y="196" type="line" name="hr01"/>
      <point x="414" y="201"/>
      <point x="401" y="202"/>
      <point x="388" y="202" type="curve" smooth="yes"/>
      <point x="363" y="202"/>
      <point x="336" y="198"/>
      <point x="312" y="198" type="curve" smooth="yes"/>
      <point x="306" y="198"/>
      <point x="300" y="198"/>
      <point x="295" y="199" type="curve"/>
      <point x="287" y="195"/>
      <point x="275" y="153"/>
      <point x="265" y="143" type="curve"/>
      <point x="253" y="137"/>
      <point x="237" y="134"/>
      <point x="221" y="134" type="curve" name="hr02" smooth="yes"/>
      <point x="187" y="134"/>
      <point x="158" y="148"/>
      <point x="158" y="190" type="curve" smooth="yes"/>
      <point x="158" y="323"/>
      <point x="172" y="357"/>
      <point x="223" y="357" type="curve" smooth="yes"/>
      <point x="266" y="357"/>
      <point x="275" y="327"/>
      <point x="294" y="289" type="curve"/>
      <point x="307" y="282"/>
      <point x="342" y="278"/>
      <point x="377" y="278" type="curve" name="hr03" smooth="yes"/>
      <point x="397" y="278"/>
      <point x="423" y="279"/>
      <point x="428" y="289" type="curve"/>
      <point x="424" y="336"/>
      <point x="436" y="437"/>
      <point x="390" y="471" type="curve" smooth="yes"/>
      <point x="337" y="510"/>
      <point x="305" y="516"/>
      <point x="256" y="516" type="curve" name="hr04" smooth="yes"/>
      <point x="209" y="516"/>
      <point x="102" y="526"/>
      <point x="51" y="472" type="curve" smooth="yes"/>
      <point x="18" y="436"/>
      <point x="18" y="359"/>
      <point x="18" y="333" type="curve" smooth="yes"/>
      <point x="18" y="309"/>
      <point x="20" y="286"/>
      <point x="20" y="262" type="curve" smooth="yes"/>
      <point x="20" y="244"/>
      <point x="19" y="227"/>
      <point x="19" y="209" type="curve" smooth="yes"/>
      <point x="19" y="98"/>
      <point x="52" y="-15"/>
      <point x="188" y="-15" type="curve" smooth="yes"/>
      <point x="212" y="-15"/>
      <point x="238" y="-17"/>
      <point x="265" y="-17" type="curve" name="hr05" smooth="yes"/>
      <point x="317" y="-17"/>
      <point x="369" y="-8"/>
      <point x="401" y="37" type="curve" smooth="yes"/>
      <point x="428" y="75"/>
      <point x="416" y="146"/>
      <point x="426" y="190" type="curve"/>
    </contour>
    <contour>
      <point x="393" y="42" type="curve"/>
      <point x="367" y="0"/>
      <point x="305" y="-7"/>
      <point x="265" y="-7" type="curve" name="hr06" smooth="yes"/>
      <point x="137" y="-7"/>
      <point x="29" y="4"/>
      <point x="29" y="194" type="curve" smooth="yes"/>
      <point x="29" y="218"/>
      <point x="30" y="241"/>
      <point x="30" y="261" type="curve" smooth="yes"/>
      <point x="30" y="286"/>
      <point x="28" y="310"/>
      <point x="28" y="336" type="curve" smooth="yes"/>
      <point x="28" y="360"/>
      <point x="29" y="434"/>
      <point x="58" y="465" type="curve" smooth="yes"/>
      <point x="104" y="514"/>
      <point x="190" y="506"/>
      <point x="248" y="506" type="curve" smooth="yes"/>
      <point x="297" y="506"/>
      <point x="342" y="501"/>
      <point x="384" y="463" type="curve" smooth="yes"/>
      <point x="425" y="425"/>
      <point x="417" y="345"/>
      <point x="417" y="293" type="curve"/>
      <point x="409" y="291"/>
      <point x="390" y="290"/>
      <point x="370" y="290" type="curve" smooth="yes"/>
      <point x="342" y="290"/>
      <point x="311" y="292"/>
      <point x="300" y="297" type="curve"/>
      <point x="292" y="341"/>
      <point x="256" y="368"/>
      <point x="221" y="368" type="curve" name="hr07" smooth="yes"/>
      <point x="184" y="368"/>
      <point x="150" y="339"/>
      <point x="150" y="280" type="curve" smooth="yes"/>
      <point x="150" y="262"/>
      <point x="152" y="243"/>
      <point x="152" y="228" type="curve" smooth="yes"/>
      <point x="152" y="214"/>
      <point x="149" y="199"/>
      <point x="149" y="184" type="curve" smooth="yes"/>
      <point x="149" y="144"/>
      <point x="183" y="123"/>
      <point x="229" y="123" type="curve" smooth="yes"/>
      <point x="277" y="123"/>
      <point x="292" y="156"/>
      <point x="298" y="188" type="curve"/>
      <point x="302" y="187"/>
      <point x="307" y="187"/>
      <point x="312" y="187" type="curve" smooth="yes"/>
      <point x="335" y="187"/>
      <point x="365" y="192"/>
      <point x="389" y="192" type="curve" name="hr08" smooth="yes"/>
      <point x="399" y="192"/>
      <point x="408" y="191"/>
      <point x="415" y="189" type="curve"/>
      <point x="406" y="142"/>
      <point x="417" y="86"/>
    </contour>
  </outline>
</glyph>
<glyph name="f" format="1">
  <advance width="379"/>
  <unicode hex="0066"/>
  <outline>
    <contour>
      <point x="221" y="4" type="line" name="hr01"/>
      <point x="221" y="350" type="line"/>
      <point x="269" y="347"/>
      <point x="318" y="348"/>
      <point x="367" y="343" type="curve"/>
      <point x="375" y="346"/>
      <point x="379" y="410"/>
      <point x="379" y="419" type="curve" name="hr02" smooth="yes"/>
      <point x="379" y="420"/>
      <point x="379" y="424"/>
      <point x="379" y="428" type="curve" smooth="yes"/>
      <point x="379" y="446"/>
      <point x="378" y="479"/>
      <point x="373" y="478" type="curve"/>
      <point x="224" y="478" type="line"/>
      <point x="223" y="483"/>
      <point x="222" y="489"/>
      <point x="222" y="494" type="curve" smooth="yes"/>
      <point x="222" y="509"/>
      <point x="225" y="528"/>
      <point x="242" y="534" type="curve" smooth="yes"/>
      <point x="270" y="544"/>
      <point x="370" y="544"/>
      <point x="379" y="553" type="curve"/>
      <point x="379" y="585"/>
      <point x="386" y="617"/>
      <point x="386" y="648" type="curve" smooth="yes"/>
      <point x="386" y="666"/>
      <point x="385" y="693"/>
      <point x="364" y="693" type="curve" name="hr03" smooth="yes"/>
      <point x="225" y="693"/>
      <point x="77" y="691"/>
      <point x="77" y="480" type="curve"/>
      <point x="55" y="480"/>
      <point x="33" y="481"/>
      <point x="11" y="481" type="curve"/>
      <point x="4" y="474"/>
      <point x="5" y="451"/>
      <point x="5" y="421" type="curve" smooth="yes"/>
      <point x="5" y="388"/>
      <point x="7" y="352"/>
      <point x="14" y="349" type="curve"/>
      <point x="36" y="349"/>
      <point x="58" y="350"/>
      <point x="80" y="350" type="curve" name="hr04"/>
      <point x="80" y="244"/>
      <point x="76" y="140"/>
      <point x="76" y="35" type="curve" smooth="yes"/>
      <point x="76" y="9"/>
      <point x="78" y="-5"/>
      <point x="110" y="-5" type="curve" smooth="yes"/>
      <point x="138" y="-5"/>
      <point x="167" y="0"/>
      <point x="197" y="0" type="curve" name="hr05" smooth="yes"/>
      <point x="203" y="0"/>
      <point x="209" y="-1"/>
      <point x="216" y="-1" type="curve" name="hr06"/>
    </contour>
    <contour>
      <point x="91" y="6" type="curve"/>
      <point x="91" y="122"/>
      <point x="90" y="239"/>
      <point x="90" y="355" type="curve"/>
      <point x="88" y="357"/>
      <point x="86" y="358"/>
      <point x="85" y="360" type="curve"/>
      <point x="63" y="360"/>
      <point x="41" y="359"/>
      <point x="19" y="359" type="curve"/>
      <point x="18" y="396"/>
      <point x="17" y="434"/>
      <point x="16" y="471" type="curve"/>
      <point x="38" y="471"/>
      <point x="60" y="470"/>
      <point x="83" y="470" type="curve"/>
      <point x="84" y="472"/>
      <point x="86" y="474"/>
      <point x="88" y="477" type="curve"/>
      <point x="86" y="487"/>
      <point x="85" y="497"/>
      <point x="85" y="507" type="curve" smooth="yes"/>
      <point x="85" y="571"/>
      <point x="123" y="636"/>
      <point x="181" y="662" type="curve" smooth="yes"/>
      <point x="236" y="687"/>
      <point x="312" y="683"/>
      <point x="370" y="683" type="curve"/>
      <point x="374" y="669"/>
      <point x="376" y="655"/>
      <point x="376" y="641" type="curve" smooth="yes"/>
      <point x="376" y="613"/>
      <point x="370" y="585"/>
      <point x="369" y="558" type="curve"/>
      <point x="300" y="556"/>
      <point x="211" y="553"/>
      <point x="211" y="503" type="curve" name="hr07" smooth="yes"/>
      <point x="211" y="496"/>
      <point x="211" y="472"/>
      <point x="220" y="468" type="curve"/>
      <point x="366" y="468" type="line"/>
      <point x="365" y="462"/>
      <point x="364" y="456"/>
      <point x="364" y="450" type="curve" smooth="yes"/>
      <point x="364" y="445"/>
      <point x="365" y="420"/>
      <point x="365" y="396" type="curve" smooth="yes"/>
      <point x="365" y="377"/>
      <point x="364" y="358"/>
      <point x="362" y="354" type="curve"/>
      <point x="313" y="358"/>
      <point x="265" y="357"/>
      <point x="217" y="361" type="curve"/>
      <point x="211" y="355" type="line"/>
      <point x="211" y="9" type="line"/>
      <point x="179" y="9"/>
      <point x="146" y="5"/>
      <point x="114" y="5" type="curve" smooth="yes"/>
      <point x="106" y="5"/>
      <point x="98" y="5"/>
    </contour>
  </outline>
</glyph>
<glyph name="g" format="1">
  <advance width="467"/>
  <unicode hex="0067"/>
  <outline>
    <contour>
      <point x="379" y="-180" type="curve" name="hr01" smooth="yes"/>
      <point x="435" y="-140"/>
      <point x="430" y="-118"/>
      <point x="432" y="-57" type="curve" smooth="yes"/>
      <point x="434" y="14"/>
      <point x="438" y="84"/>
      <point x="438" y="155" type="curve" smooth="yes"/>
      <point x="438" y="318" type="line" smooth="yes"/>
      <point x="438" y="378"/>
      <point x="436" y="439"/>
      <point x="434" y="499" type="curve"/>
      <point x="428" y="505"/>
      <point x="406" y="507"/>
      <point x="384" y="507" type="curve" smooth="yes"/>
      <point x="368" y="507"/>
      <point x="353" y="506"/>
      <point x="344" y="506" type="curve" name="hr02" smooth="yes"/>
      <point x="336" y="506"/>
      <point x="328" y="506"/>
      <point x="320" y="506" type="curve" smooth="yes"/>
      <point x="301" y="506"/>
      <point x="285" y="503"/>
      <point x="285" y="482" type="curve" smooth="yes"/>
      <point x="285" y="479"/>
      <point x="286" y="476"/>
      <point x="287" y="473" type="curve"/>
      <point x="287" y="461" type="line"/>
      <point x="268" y="491"/>
      <point x="232" y="503"/>
      <point x="196" y="503" type="curve" name="hr03" smooth="yes"/>
      <point x="62" y="503"/>
      <point x="14" y="383"/>
      <point x="14" y="216" type="curve" smooth="yes"/>
      <point x="14" y="7"/>
      <point x="106" y="-6"/>
      <point x="210" y="-6" type="curve" smooth="yes"/>
      <point x="237" y="-6"/>
      <point x="264" y="-3"/>
      <point x="286" y="12" type="curve"/>
      <point x="286" y="10"/>
      <point x="285" y="8"/>
      <point x="285" y="6" type="curve" smooth="yes"/>
      <point x="285" y="-4"/>
      <point x="289" y="-12"/>
      <point x="289" y="-26" type="curve" smooth="yes"/>
      <point x="289" y="-72"/>
      <point x="263" y="-94"/>
      <point x="233" y="-94" type="curve" smooth="yes"/>
      <point x="208" y="-94"/>
      <point x="176" y="-76"/>
      <point x="176" y="-37" type="curve" name="hr04"/>
      <point x="164" y="-31"/>
      <point x="139" y="-29"/>
      <point x="112" y="-29" type="curve" name="hr05" smooth="yes"/>
      <point x="64" y="-29"/>
      <point x="38" y="-31"/>
      <point x="38" y="-57" type="curve" smooth="yes"/>
      <point x="38" y="-71"/>
      <point x="42" y="-85"/>
      <point x="46" y="-99" type="curve" smooth="yes"/>
      <point x="76" y="-212"/>
      <point x="200" y="-206"/>
      <point x="291" y="-206" type="curve" name="hr06" smooth="yes"/>
      <point x="322" y="-206"/>
      <point x="352" y="-199"/>
    </contour>
    <contour>
      <point x="308" y="-195" type="curve"/>
      <point x="294" y="-197"/>
      <point x="278" y="-196"/>
      <point x="263" y="-196" type="curve" smooth="yes"/>
      <point x="180" y="-196"/>
      <point x="83" y="-191"/>
      <point x="56" y="-96" type="curve" smooth="yes"/>
      <point x="52" y="-84"/>
      <point x="48" y="-71"/>
      <point x="48" y="-57" type="curve" smooth="yes"/>
      <point x="48" y="-37"/>
      <point x="74" y="-37"/>
      <point x="96" y="-37" type="curve" smooth="yes"/>
      <point x="121" y="-37"/>
      <point x="149" y="-42"/>
      <point x="168" y="-45" type="curve"/>
      <point x="168" y="-84"/>
      <point x="199" y="-104"/>
      <point x="230" y="-104" type="curve" name="hr07" smooth="yes"/>
      <point x="272" y="-104"/>
      <point x="300" y="-76"/>
      <point x="300" y="-19" type="curve" smooth="yes"/>
      <point x="300" y="-9"/>
      <point x="297" y="1"/>
      <point x="297" y="10" type="curve" smooth="yes"/>
      <point x="297" y="14"/>
      <point x="298" y="18"/>
      <point x="299" y="22" type="curve"/>
      <point x="296" y="24"/>
      <point x="293" y="26"/>
      <point x="291" y="28" type="curve"/>
      <point x="266" y="3"/>
      <point x="231" y="4"/>
      <point x="198" y="4" type="curve" name="hr08" smooth="yes"/>
      <point x="102" y="4"/>
      <point x="24" y="24"/>
      <point x="24" y="217" type="curve" smooth="yes"/>
      <point x="24" y="378"/>
      <point x="70" y="494"/>
      <point x="196" y="494" type="curve" smooth="yes"/>
      <point x="214" y="494"/>
      <point x="234" y="490"/>
      <point x="251" y="481" type="curve" smooth="yes"/>
      <point x="264" y="473"/>
      <point x="279" y="443"/>
      <point x="289" y="444" type="curve" smooth="yes"/>
      <point x="291" y="444" type="line"/>
      <point x="297" y="450"/>
      <point x="299" y="451"/>
      <point x="299" y="461" type="curve" smooth="yes"/>
      <point x="299" y="470"/>
      <point x="296" y="477"/>
      <point x="296" y="486" type="curve" smooth="yes"/>
      <point x="296" y="498"/>
      <point x="332" y="496"/>
      <point x="345" y="496" type="curve" smooth="yes"/>
      <point x="371" y="496"/>
      <point x="398" y="494"/>
      <point x="424" y="494" type="curve"/>
      <point x="427" y="435"/>
      <point x="428" y="375"/>
      <point x="428" y="315" type="curve" smooth="yes"/>
      <point x="428" y="156" type="line" smooth="yes"/>
      <point x="428" y="84"/>
      <point x="424" y="13"/>
      <point x="422" y="-56" type="curve" smooth="yes"/>
      <point x="420" y="-112"/>
      <point x="424" y="-136"/>
      <point x="373" y="-172" type="curve" smooth="yes"/>
      <point x="354" y="-186"/>
      <point x="331" y="-195"/>
    </contour>
    <contour>
      <point x="130" y="227" type="line" smooth="yes"/>
      <point x="130" y="173"/>
      <point x="161" y="107"/>
      <point x="230" y="107" type="curve" smooth="yes"/>
      <point x="297" y="107"/>
      <point x="303" y="140"/>
      <point x="303" y="208" type="curve" smooth="yes"/>
      <point x="303" y="312"/>
      <point x="300" y="379"/>
      <point x="216" y="379" type="curve"/>
      <point x="146" y="376"/>
      <point x="130" y="281"/>
      <point x="130" y="229" type="curve" smooth="yes"/>
    </contour>
    <contour>
      <point x="140" y="228" type="curve" name="hr09" smooth="yes"/>
      <point x="140" y="282"/>
      <point x="157" y="370"/>
      <point x="222" y="370" type="curve" smooth="yes"/>
      <point x="286" y="370"/>
      <point x="286" y="317"/>
      <point x="290" y="276" type="curve" smooth="yes"/>
      <point x="291" y="259"/>
      <point x="296" y="231"/>
      <point x="296" y="203" type="curve" smooth="yes"/>
      <point x="296" y="151"/>
      <point x="284" y="115"/>
      <point x="232" y="115" type="curve" smooth="yes"/>
      <point x="178" y="115"/>
      <point x="140" y="169"/>
    </contour>
  </outline>
</glyph>
<glyph name="h" format="1">
  <advance width="448"/>
  <unicode hex="0068"/>
  <outline>
    <contour>
      <point x="57" y="-6" type="line" name="hr01" smooth="yes"/>
      <point x="76" y="-6"/>
      <point x="93" y="-10"/>
      <point x="112" y="-10" type="curve" name="hr02" smooth="yes"/>
      <point x="129" y="-10"/>
      <point x="160" y="-6"/>
      <point x="165" y="3" type="curve"/>
      <point x="165" y="28"/>
      <point x="169" y="52"/>
      <point x="169" y="78" type="curve" smooth="yes"/>
      <point x="169" y="134"/>
      <point x="164" y="190"/>
      <point x="164" y="246" type="curve" smooth="yes"/>
      <point x="164" y="283"/>
      <point x="171" y="331"/>
      <point x="228" y="331" type="curve"/>
      <point x="248" y="323"/>
      <point x="257" y="322"/>
      <point x="259" y="322" type="curve" smooth="yes"/>
      <point x="259" y="322"/>
      <point x="260" y="322"/>
      <point x="260" y="322" type="curve"/>
      <point x="260" y="322"/>
      <point x="259" y="322"/>
      <point x="259" y="322" type="curve"/>
      <point x="279" y="297"/>
      <point x="275" y="264"/>
      <point x="279" y="234" type="curve" smooth="yes"/>
      <point x="282" y="207"/>
      <point x="283" y="180"/>
      <point x="283" y="153" type="curve" smooth="yes"/>
      <point x="283" y="107"/>
      <point x="282" y="62"/>
      <point x="282" y="17" type="curve" smooth="yes"/>
      <point x="282" y="-23"/>
      <point x="351" y="-7"/>
      <point x="367" y="-7" type="curve" name="hr03" smooth="yes"/>
      <point x="389" y="-7"/>
      <point x="415" y="-6"/>
      <point x="419" y="2" type="curve"/>
      <point x="417" y="18"/>
      <point x="416" y="34"/>
      <point x="416" y="50" type="curve" smooth="yes"/>
      <point x="416" y="147"/>
      <point x="421" y="244"/>
      <point x="421" y="340" type="curve" smooth="yes"/>
      <point x="421" y="434"/>
      <point x="412" y="500"/>
      <point x="294" y="500" type="curve" smooth="yes"/>
      <point x="263" y="500"/>
      <point x="212" y="488"/>
      <point x="186" y="462" type="curve"/>
      <point x="181" y="459"/>
      <point x="176" y="457"/>
      <point x="172" y="455" type="curve"/>
      <point x="172" y="646" type="line" smooth="yes"/>
      <point x="172" y="648"/>
      <point x="173" y="669"/>
      <point x="173" y="688" type="curve" smooth="yes"/>
      <point x="173" y="701"/>
      <point x="173" y="712"/>
      <point x="171" y="718" type="curve"/>
      <point x="171" y="725" type="line" smooth="yes"/>
      <point x="171" y="731"/>
      <point x="159" y="732"/>
      <point x="143" y="732" type="curve" smooth="yes"/>
      <point x="100" y="732"/>
      <point x="93" y="725"/>
      <point x="71" y="725" type="curve" smooth="yes"/>
      <point x="59" y="725"/>
      <point x="47" y="728"/>
      <point x="36" y="728" type="curve"/>
      <point x="29" y="724"/>
      <point x="27" y="695"/>
      <point x="27" y="665" type="curve" smooth="yes"/>
      <point x="27" y="442"/>
      <point x="32" y="216"/>
      <point x="32" y="-6" type="curve" name="hr04"/>
    </contour>
    <contour>
      <point x="170" y="442" type="line"/>
      <point x="209" y="467"/>
      <point x="248" y="490"/>
      <point x="295" y="490" type="curve" smooth="yes"/>
      <point x="404" y="490"/>
      <point x="411" y="432"/>
      <point x="411" y="345" type="curve" smooth="yes"/>
      <point x="411" y="244"/>
      <point x="406" y="143"/>
      <point x="406" y="43" type="curve" smooth="yes"/>
      <point x="406" y="31"/>
      <point x="407" y="18"/>
      <point x="408" y="6" type="curve"/>
      <point x="387" y="3"/>
      <point x="365" y="2"/>
      <point x="344" y="2" type="curve" smooth="yes"/>
      <point x="327" y="2"/>
      <point x="310" y="3"/>
      <point x="293" y="3" type="curve"/>
      <point x="291" y="15"/>
      <point x="290" y="29"/>
      <point x="290" y="43" type="curve" smooth="yes"/>
      <point x="290" y="66"/>
      <point x="292" y="90"/>
      <point x="292" y="110" type="curve" smooth="yes"/>
      <point x="292" y="172" type="line" smooth="yes"/>
      <point x="292" y="223"/>
      <point x="293" y="325"/>
      <point x="259" y="332" type="curve"/>
      <point x="252" y="340"/>
      <point x="231" y="340"/>
      <point x="223" y="340" type="curve" smooth="yes"/>
      <point x="164" y="340"/>
      <point x="152" y="292"/>
      <point x="152" y="229" type="curve" smooth="yes"/>
      <point x="152" y="187"/>
      <point x="158" y="144"/>
      <point x="158" y="105" type="curve" smooth="yes"/>
      <point x="158" y="72"/>
      <point x="155" y="39"/>
      <point x="155" y="7" type="curve"/>
      <point x="135" y="1"/>
      <point x="115" y="2"/>
      <point x="95" y="2" type="curve"/>
      <point x="88" y="4"/>
      <point x="78" y="5"/>
      <point x="69" y="5" type="curve" smooth="yes"/>
      <point x="59" y="5"/>
      <point x="49" y="4"/>
      <point x="41" y="3" type="curve"/>
      <point x="41" y="203"/>
      <point x="38" y="403"/>
      <point x="38" y="605" type="curve" smooth="yes"/>
      <point x="38" y="642"/>
      <point x="39" y="680"/>
      <point x="41" y="717" type="curve"/>
      <point x="51" y="716"/>
      <point x="65" y="713"/>
      <point x="79" y="713" type="curve" smooth="yes"/>
      <point x="107" y="713"/>
      <point x="133" y="722"/>
      <point x="161" y="722" type="curve"/>
      <point x="161" y="718"/>
      <point x="161" y="717"/>
      <point x="162" y="713" type="curve"/>
      <point x="162" y="447" type="line"/>
    </contour>
  </outline>
</glyph>
<glyph name="o" format="1">
  <advance width="448"/>
  <unicode hex="006F"/>
  <outline>
    <contour>
      <point x="50" y="454" type="curve" name="hr01" smooth="yes"/>
      <point x="64" y="504"/>
      <point x="161" y="508"/>
      <point x="175" y="508" type="curve" smooth="yes"/>
      <point x="203" y="508"/>
      <point x="227" y="509"/>
      <point x="247" y="509" type="curve" name="hr02" smooth="yes"/>
      <point x="301" y="509"/>
      <point x="334" y="503"/>
      <point x="388" y="461" type="curve"/>
      <point x="413" y="422"/>
      <point x="421" y="354"/>
      <point x="421" y="286" type="curve" smooth="yes"/>
      <point x="421" y="230"/>
      <point x="415" y="173"/>
      <point x="412" y="136" type="curve" smooth="yes"/>
      <point x="405" y="59"/>
      <point x="390" y="-7"/>
      <point x="263" y="-7" type="curve" name="hr03" smooth="yes"/>
      <point x="248" y="-7"/>
      <point x="235" y="-6"/>
      <point x="224" y="-4" type="curve" smooth="yes"/>
      <point x="189" y="1"/>
      <point x="158" y="-3"/>
      <point x="124" y="9" type="curve" smooth="yes"/>
      <point x="22" y="45"/>
      <point x="29" y="176"/>
      <point x="29" y="257" type="curve" smooth="yes"/>
      <point x="29" y="305"/>
      <point x="29" y="354"/>
      <point x="34" y="401" type="curve" smooth="yes"/>
      <point x="36" y="419"/>
      <point x="46" y="437"/>
    </contour>
    <contour>
      <point x="40" y="457" type="curve"/>
      <point x="36" y="439"/>
      <point x="26" y="421"/>
      <point x="24" y="403" type="curve" smooth="yes"/>
      <point x="20" y="366"/>
      <point x="20" y="328"/>
      <point x="20" y="290" type="curve" smooth="yes"/>
      <point x="20" y="258"/>
      <point x="20" y="229"/>
      <point x="20" y="196" type="curve" smooth="yes"/>
      <point x="20" y="156"/>
      <point x="23" y="84"/>
      <point x="57" y="48" type="curve" smooth="yes"/>
      <point x="117" y="-14"/>
      <point x="132" y="-7"/>
      <point x="216" y="-13" type="curve" name="hr04" smooth="yes"/>
      <point x="231" y="-14"/>
      <point x="247" y="-16"/>
      <point x="262" y="-16" type="curve" name="hr05" smooth="yes"/>
      <point x="324" y="-16"/>
      <point x="395" y="2"/>
      <point x="412" y="67" type="curve" smooth="yes"/>
      <point x="432" y="146"/>
      <point x="431" y="221"/>
      <point x="431" y="317" type="curve" smooth="yes"/>
      <point x="431" y="382"/>
      <point x="423" y="454"/>
      <point x="374" y="485" type="curve" smooth="yes"/>
      <point x="328" y="514"/>
      <point x="288" y="519"/>
      <point x="239" y="519" type="curve" smooth="yes"/>
      <point x="219" y="519"/>
      <point x="197" y="518"/>
      <point x="174" y="518" type="curve" name="hr06" smooth="yes"/>
      <point x="143" y="518"/>
      <point x="57" y="508"/>
    </contour>
    <contour>
      <point x="167" y="342" type="curve"/>
      <point x="153" y="328"/>
      <point x="150" y="297"/>
      <point x="150" y="267" type="curve" smooth="yes"/>
      <point x="150" y="246"/>
      <point x="151" y="226"/>
      <point x="151" y="212" type="curve" smooth="yes"/>
      <point x="151" y="201"/>
      <point x="150" y="192"/>
      <point x="150" y="181" type="curve" smooth="yes"/>
      <point x="150" y="145"/>
      <point x="191" y="126"/>
      <point x="231" y="126" type="curve" smooth="yes"/>
      <point x="285" y="126"/>
      <point x="306" y="163"/>
      <point x="306" y="242" type="curve" smooth="yes"/>
      <point x="306" y="327"/>
      <point x="283" y="369"/>
      <point x="229" y="369" type="curve" smooth="yes"/>
      <point x="205" y="369"/>
      <point x="181" y="359"/>
    </contour>
    <contour>
      <point x="174" y="335" type="curve" smooth="yes"/>
      <point x="187" y="350"/>
      <point x="208" y="358"/>
      <point x="228" y="358" type="curve" name="hr07" smooth="yes"/>
      <point x="274" y="358"/>
      <point x="295" y="329"/>
      <point x="295" y="244" type="curve" smooth="yes"/>
      <point x="295" y="172"/>
      <point x="282" y="136"/>
      <point x="230" y="136" type="curve" smooth="yes"/>
      <point x="195" y="136"/>
      <point x="159" y="152"/>
      <point x="159" y="181" type="curve" smooth="yes"/>
      <point x="159" y="190"/>
      <point x="161" y="199"/>
      <point x="161" y="207" type="curve" smooth="yes"/>
      <point x="161" y="220"/>
      <point x="160" y="240"/>
      <point x="160" y="261" type="curve" smooth="yes"/>
      <point x="160" y="292"/>
      <point x="162" y="323"/>
    </contour>
  </outline>
</glyph>
<glyph name="p" format="1">
  <advance width="464"/>
  <unicode hex="0070"/>
  <outline>
    <contour>
      <point x="172" y="-203" type="line" name="hr01"/>
      <point x="175" y="-162"/>
      <point x="177" y="-102"/>
      <point x="177" y="-82" type="curve" smooth="yes"/>
      <point x="177" y="-53"/>
      <point x="176" y="-15"/>
      <point x="175" y="9" type="curve"/>
      <point x="203" y="-7"/>
      <point x="281" y="-6"/>
      <point x="295" y="-6" type="curve" smooth="yes"/>
      <point x="412" y="-6"/>
      <point x="448" y="76"/>
      <point x="448" y="228" type="curve" smooth="yes"/>
      <point x="448" y="392"/>
      <point x="401" y="503"/>
      <point x="259" y="503" type="curve" smooth="yes"/>
      <point x="224" y="503"/>
      <point x="190" y="492"/>
      <point x="178" y="457" type="curve"/>
      <point x="175" y="472"/>
      <point x="178" y="488"/>
      <point x="175" y="497" type="curve"/>
      <point x="175" y="498" type="line"/>
      <point x="171" y="505"/>
      <point x="153" y="506"/>
      <point x="137" y="506" type="curve" name="hr02" smooth="yes"/>
      <point x="131" y="506"/>
      <point x="125" y="506"/>
      <point x="121" y="506" type="curve" smooth="yes"/>
      <point x="109" y="506"/>
      <point x="94" y="507"/>
      <point x="78" y="507" type="curve" name="hr03" smooth="yes"/>
      <point x="59" y="507"/>
      <point x="40" y="505"/>
      <point x="30" y="500" type="curve"/>
      <point x="27" y="460"/>
      <point x="26" y="421"/>
      <point x="26" y="381" type="curve" smooth="yes"/>
      <point x="26" y="185"/>
      <point x="36" y="-8"/>
      <point x="36" y="-203" type="curve"/>
      <point x="39" y="-209" type="line"/>
      <point x="46" y="-211" type="line" smooth="yes"/>
      <point x="58" y="-214"/>
      <point x="75" y="-215"/>
      <point x="93" y="-215" type="curve" smooth="yes"/>
      <point x="120" y="-215"/>
      <point x="150" y="-212"/>
      <point x="168" y="-208" type="curve"/>
    </contour>
    <contour>
      <point x="46" y="-200" type="curve"/>
      <point x="46" y="-7"/>
      <point x="36" y="186"/>
      <point x="36" y="378" type="curve" smooth="yes"/>
      <point x="36" y="417"/>
      <point x="37" y="456"/>
      <point x="40" y="494" type="curve"/>
      <point x="67" y="494"/>
      <point x="95" y="496"/>
      <point x="123" y="496" type="curve" smooth="yes"/>
      <point x="138" y="496"/>
      <point x="152" y="496"/>
      <point x="166" y="493" type="curve"/>
      <point x="166" y="490"/>
      <point x="165" y="484"/>
      <point x="165" y="478" type="curve" smooth="yes"/>
      <point x="165" y="468"/>
      <point x="165" y="450"/>
      <point x="176" y="444" type="curve"/>
      <point x="203" y="457"/>
      <point x="191" y="493"/>
      <point x="259" y="493" type="curve" smooth="yes"/>
      <point x="425" y="493"/>
      <point x="437" y="333"/>
      <point x="437" y="211" type="curve" smooth="yes"/>
      <point x="437" y="163"/>
      <point x="433" y="97"/>
      <point x="404" y="53" type="curve" smooth="yes"/>
      <point x="376" y="9"/>
      <point x="320" y="2"/>
      <point x="270" y="2" type="curve" smooth="yes"/>
      <point x="242" y="2"/>
      <point x="195" y="3"/>
      <point x="175" y="24" type="curve"/>
      <point x="175" y="25" type="line"/>
      <point x="172" y="25"/>
      <point x="169" y="24"/>
      <point x="167" y="24" type="curve" smooth="yes"/>
      <point x="165" y="24" type="line"/>
      <point x="165" y="24"/>
      <point x="165" y="24"/>
      <point x="165" y="24" type="curve"/>
      <point x="165" y="17"/>
      <point x="161" y="-110"/>
      <point x="161" y="-170" type="curve" smooth="yes"/>
      <point x="161" y="-184"/>
      <point x="161" y="-195"/>
      <point x="162" y="-199" type="curve"/>
      <point x="143" y="-203"/>
      <point x="118" y="-205"/>
      <point x="94" y="-205" type="curve" smooth="yes"/>
      <point x="76" y="-205"/>
      <point x="58" y="-204"/>
    </contour>
    <contour>
      <point x="327" y="183" type="line" smooth="yes"/>
      <point x="333" y="203"/>
      <point x="336" y="228"/>
      <point x="336" y="249" type="curve" name="hr04" smooth="yes"/>
      <point x="336" y="316"/>
      <point x="289" y="379"/>
      <point x="237" y="379" type="curve" smooth="yes"/>
      <point x="157" y="379"/>
      <point x="157" y="284"/>
      <point x="157" y="194" type="curve" smooth="yes"/>
      <point x="157" y="148"/>
      <point x="166" y="109"/>
      <point x="227" y="109" type="curve" smooth="yes"/>
      <point x="276" y="109"/>
      <point x="320" y="133"/>
      <point x="327" y="185" type="curve" smooth="yes"/>
    </contour>
    <contour>
      <point x="317" y="186" type="curve"/>
      <point x="311" y="143"/>
      <point x="267" y="116"/>
      <point x="225" y="116" type="curve" smooth="yes"/>
      <point x="175" y="116"/>
      <point x="170" y="149"/>
      <point x="170" y="188" type="curve" smooth="yes"/>
      <point x="170" y="203"/>
      <point x="171" y="218"/>
      <point x="171" y="229" type="curve" smooth="yes"/>
      <point x="171" y="240"/>
      <point x="170" y="252"/>
      <point x="170" y="265" type="curve" smooth="yes"/>
      <point x="170" y="312"/>
      <point x="182" y="369"/>
      <point x="232" y="369" type="curve" smooth="yes"/>
      <point x="304" y="369"/>
      <point x="324" y="291"/>
      <point x="324" y="230" type="curve" name="hr05"/>
      <point x="320" y="216"/>
      <point x="322" y="200"/>
    </contour>
  </outline>
</glyph>
<glyph name="v" format="1">
  <advance width="429"/>
  <unicode hex="0076"/>
  <outline>
    <contour>
      <point x="151" y="502" type="line" name="hr01"/>
      <point x="139" y="503"/>
      <point x="128" y="504"/>
      <point x="116" y="504" type="curve" smooth="yes"/>
      <point x="95" y="504"/>
      <point x="73" y="502"/>
      <point x="52" y="502" type="curve" smooth="yes"/>
      <point x="39" y="502"/>
      <point x="25" y="503"/>
      <point x="12" y="505" type="curve" name="hr02"/>
      <point x="6" y="499" type="line"/>
      <point x="48" y="333"/>
      <point x="83" y="166"/>
      <point x="110" y="-4" type="curve"/>
      <point x="123" y="-11"/>
      <point x="156" y="-12"/>
      <point x="188" y="-12" type="curve" smooth="yes"/>
      <point x="237" y="-12"/>
      <point x="293" y="-18"/>
      <point x="308" y="-3" type="curve"/>
      <point x="351" y="163"/>
      <point x="374" y="336"/>
      <point x="433" y="497" type="curve"/>
      <point x="431" y="500"/>
      <point x="429" y="502"/>
      <point x="428" y="504" type="curve" name="hr03"/>
      <point x="383" y="504"/>
      <point x="338" y="501"/>
      <point x="294" y="501" type="curve"/>
      <point x="292" y="500"/>
      <point x="291" y="499"/>
      <point x="290" y="498" type="curve" smooth="yes"/>
      <point x="249" y="393"/>
      <point x="249" y="277"/>
      <point x="215" y="170" type="curve"/>
      <point x="187" y="271"/>
      <point x="169" y="391"/>
      <point x="155" y="497" type="curve"/>
    </contour>
    <contour>
      <point x="174" y="319" type="curve" smooth="yes"/>
      <point x="183" y="264"/>
      <point x="190" y="204"/>
      <point x="212" y="153" type="curve"/>
      <point x="221" y="153" type="line"/>
      <point x="257" y="263"/>
      <point x="256" y="383"/>
      <point x="297" y="491" type="curve"/>
      <point x="339" y="491"/>
      <point x="380" y="494"/>
      <point x="421" y="494" type="curve"/>
      <point x="363" y="335"/>
      <point x="342" y="166"/>
      <point x="299" y="3" type="curve"/>
      <point x="288" y="0"/>
      <point x="268" y="-1"/>
      <point x="243" y="-1" type="curve" smooth="yes"/>
      <point x="200" y="-1"/>
      <point x="146" y="2"/>
      <point x="119" y="2" type="curve"/>
      <point x="93" y="168"/>
      <point x="58" y="331"/>
      <point x="18" y="494" type="curve"/>
      <point x="29" y="492"/>
      <point x="41" y="492"/>
      <point x="52" y="492" type="curve" smooth="yes"/>
      <point x="73" y="492"/>
      <point x="94" y="493"/>
      <point x="115" y="493" type="curve" smooth="yes"/>
      <point x="125" y="493"/>
      <point x="135" y="493"/>
      <point x="145" y="492" type="curve"/>
      <point x="154" y="434"/>
      <point x="164" y="377"/>
    </contour>
  </outline>
</glyph>
<glyph name="z" format="1">
  <advance width="456"/>
  <unicode hex="007A"/>
  <outline>
    <contour>
      <point x="441" y="505" type="line" name="hr00"/>
      <point x="432" y="507"/>
      <point x="415" y="505"/>
      <point x="403" y="505" type="curve" smooth="yes"/>
      <point x="374" y="505"/>
      <point x="339" y="501"/>
      <point x="315" y="501" type="curve" smooth="yes"/>
      <point x="274" y="501"/>
      <point x="233" y="503"/>
      <point x="192" y="503" type="curve" smooth="yes"/>
      <point x="137" y="503"/>
      <point x="82" y="502"/>
      <point x="28" y="502" type="curve"/>
      <point x="16" y="490"/>
      <point x="18" y="401"/>
      <point x="18" y="388" type="curve" smooth="yes"/>
      <point x="18" y="371"/>
      <point x="19" y="347"/>
      <point x="29" y="342" type="curve"/>
      <point x="93" y="358"/>
      <point x="174" y="354"/>
      <point x="240" y="357" type="curve"/>
      <point x="163" y="267"/>
      <point x="13" y="172"/>
      <point x="13" y="98" type="curve"/>
      <point x="19" y="2" type="line"/>
      <point x="25" y="-4"/>
      <point x="42" y="-6"/>
      <point x="60" y="-6" type="curve" smooth="yes"/>
      <point x="184" y="-6"/>
      <point x="307" y="-5"/>
      <point x="431" y="2" type="curve"/>
      <point x="432" y="4"/>
      <point x="434" y="5"/>
      <point x="436" y="7" type="curve"/>
      <point x="436" y="53"/>
      <point x="434" y="100"/>
      <point x="434" y="146" type="curve"/>
      <point x="432" y="148"/>
      <point x="435" y="151"/>
      <point x="434" y="153" type="curve"/>
      <point x="408" y="148"/>
      <point x="377" y="145"/>
      <point x="351" y="145" type="curve" smooth="yes"/>
      <point x="320" y="145"/>
      <point x="289" y="147"/>
      <point x="259" y="147" type="curve" smooth="yes"/>
      <point x="247" y="147"/>
      <point x="235" y="147"/>
      <point x="224" y="146" type="curve"/>
      <point x="293" y="220"/>
      <point x="370" y="285"/>
      <point x="438" y="360" type="curve"/>
      <point x="438" y="361"/>
      <point x="438" y="363"/>
      <point x="439" y="365" type="curve"/>
      <point x="437" y="379"/>
      <point x="436" y="394"/>
      <point x="436" y="408" type="curve" smooth="yes"/>
      <point x="436" y="438"/>
      <point x="439" y="468"/>
      <point x="439" y="497" type="curve"/>
    </contour>
    <contour>
      <point x="429" y="365" type="curve"/>
      <point x="359" y="287"/>
      <point x="279" y="221"/>
      <point x="209" y="144" type="curve"/>
      <point x="210" y="141"/>
      <point x="212" y="138"/>
      <point x="213" y="135" type="curve"/>
      <point x="227" y="136"/>
      <point x="242" y="137"/>
      <point x="257" y="137" type="curve" smooth="yes"/>
      <point x="290" y="137"/>
      <point x="323" y="134"/>
      <point x="355" y="134" type="curve" smooth="yes"/>
      <point x="378" y="134"/>
      <point x="401" y="136"/>
      <point x="424" y="140" type="curve"/>
      <point x="424" y="97"/>
      <point x="426" y="54"/>
      <point x="426" y="12" type="curve"/>
      <point x="294" y="5"/>
      <point x="161" y="6"/>
      <point x="29" y="6" type="curve"/>
      <point x="29" y="11"/>
      <point x="30" y="28"/>
      <point x="30" y="44" type="curve" smooth="yes"/>
      <point x="30" y="74"/>
      <point x="26" y="88"/>
      <point x="26" y="112" type="curve" smooth="yes"/>
      <point x="26" y="117"/>
      <point x="26" y="122"/>
      <point x="27" y="127" type="curve"/>
      <point x="97" y="211"/>
      <point x="185" y="276"/>
      <point x="255" y="360" type="curve"/>
      <point x="253" y="363"/>
      <point x="252" y="365"/>
      <point x="251" y="368" type="curve"/>
      <point x="179" y="361"/>
      <point x="103" y="368"/>
      <point x="32" y="353" type="curve"/>
      <point x="30" y="366"/>
      <point x="29" y="380"/>
      <point x="29" y="394" type="curve" smooth="yes"/>
      <point x="29" y="426"/>
      <point x="33" y="460"/>
      <point x="33" y="492" type="curve"/>
      <point x="124" y="492"/>
      <point x="214" y="493"/>
      <point x="305" y="493" type="curve"/>
      <point x="361" y="491"/>
      <point x="380" y="494"/>
      <point x="414" y="494" type="curve" smooth="yes"/>
      <point x="419" y="494"/>
      <point x="424" y="494"/>
      <point x="429" y="493" type="curve"/>
      <point x="428" y="466"/>
      <point x="426" y="438"/>
      <point x="426" y="411" type="curve" smooth="yes"/>
      <point x="426" y="395"/>
      <point x="426" y="380"/>
    </contour>
  </outline>
</glyph>
